<?xml version="1.0" encoding="utf-8" standalone="no"?>
<!DOCTYPE svg PUBLIC "-//W3C//DTD SVG 1.1//EN"
  "http://www.w3.org/Graphics/SVG/1.1/DTD/svg11.dtd">
<svg xmlns:xlink="http://www.w3.org/1999/xlink" width="385.755pt" height="132.33375pt" viewBox="0 0 385.755 132.33375" xmlns="http://www.w3.org/2000/svg" version="1.1">
 <metadata>
  <rdf:RDF xmlns:dc="http://purl.org/dc/elements/1.1/" xmlns:cc="http://creativecommons.org/ns#" xmlns:rdf="http://www.w3.org/1999/02/22-rdf-syntax-ns#">
   <cc:Work>
    <dc:type rdf:resource="http://purl.org/dc/dcmitype/StillImage"/>
    <dc:date>2026-05-02T15:10:29.799354</dc:date>
    <dc:format>image/svg+xml</dc:format>
    <dc:creator>
     <cc:Agent>
      <dc:title>Matplotlib v3.9.4, https://matplotlib.org/</dc:title>
     </cc:Agent>
    </dc:creator>
   </cc:Work>
  </rdf:RDF>
 </metadata>
 <defs>
  <style type="text/css">*{stroke-linejoin: round; stroke-linecap: butt}</style>
 </defs>
 <g id="figure_1">
  <g id="patch_1">
   <path d="M 0 132.33375 
L 385.755 132.33375 
L 385.755 0 
L 0 0 
z
" style="fill: #ffffff"/>
  </g>
  <g id="axes_1">
   <g id="patch_2">
    <path d="M 43.755 88.57875 
L 189.320217 88.57875 
L 189.320217 19.27875 
L 43.755 19.27875 
z
" style="fill: #ffffff"/>
   </g>
   <g id="PolyCollection_1">
    <defs>
     <path id="ma76bb5db31" d="M 50.371601 -50.279733 
L 50.371601 -52.71365 
L 50.903055 -52.651913 
L 51.434509 -52.592812 
L 51.965962 -52.543222 
L 52.497416 -52.577564 
L 53.02887 -52.963987 
L 53.560324 -53.402253 
L 54.091778 -53.480679 
L 54.623232 -53.249602 
L 55.154686 -52.722163 
L 55.68614 -52.7383 
L 56.217593 -52.802431 
L 56.749047 -52.978984 
L 57.280501 -52.950738 
L 57.811955 -53.238813 
L 58.343409 -53.315991 
L 58.874863 -53.290558 
L 59.406317 -53.228281 
L 59.937771 -53.236303 
L 60.469224 -53.25254 
L 61.000678 -53.259351 
L 61.532132 -53.382525 
L 62.063586 -53.738173 
L 62.59504 -54.177071 
L 63.126494 -54.310461 
L 63.657948 -54.248662 
L 64.189402 -53.668268 
L 64.720856 -53.354405 
L 65.252309 -53.44987 
L 65.783763 -53.518822 
L 66.315217 -53.55734 
L 66.846671 -53.559107 
L 67.378125 -53.552823 
L 67.909579 -53.569047 
L 68.441033 -53.526683 
L 68.972487 -53.56713 
L 69.50394 -53.856312 
L 70.035394 -54.25753 
L 70.566848 -54.583009 
L 71.098302 -54.707254 
L 71.629756 -54.869068 
L 72.16121 -54.968172 
L 72.692664 -54.886007 
L 73.224118 -54.705213 
L 73.755571 -54.577348 
L 74.287025 -54.610932 
L 74.818479 -54.736872 
L 75.349933 -54.906202 
L 75.881387 -55.022102 
L 76.412841 -55.069271 
L 76.944295 -55.226232 
L 77.475749 -55.375957 
L 78.007202 -55.540681 
L 78.538656 -55.655552 
L 79.07011 -55.730826 
L 79.601564 -55.779356 
L 80.133018 -55.817626 
L 80.664472 -55.828939 
L 81.195926 -55.861517 
L 81.72738 -55.854817 
L 82.258834 -55.864224 
L 82.790287 -55.853495 
L 83.321741 -55.840035 
L 83.853195 -55.814453 
L 84.384649 -55.779247 
L 84.916103 -55.744709 
L 85.447557 -55.711828 
L 85.979011 -55.692206 
L 86.510465 -55.664461 
L 87.041918 -55.65205 
L 87.573372 -55.714178 
L 88.104826 -55.863582 
L 88.63628 -56.097894 
L 89.167734 -56.587783 
L 89.699188 -57.638701 
L 90.230642 -59.231213 
L 90.762096 -61.012578 
L 91.293549 -63.295928 
L 91.825003 -65.809393 
L 92.356457 -68.491913 
L 92.887911 -71.199603 
L 93.419365 -73.7143 
L 93.950819 -76.139371 
L 94.482273 -78.375519 
L 95.013727 -80.41851 
L 95.54518 -82.361469 
L 96.076634 -84.196225 
L 96.608088 -85.869697 
L 97.139542 -87.50838 
L 97.670996 -89.018152 
L 98.20245 -90.323441 
L 98.733904 -91.481482 
L 99.265358 -92.690119 
L 99.796812 -93.855348 
L 100.328265 -95.054352 
L 100.859719 -96.385415 
L 101.391173 -97.974573 
L 101.922627 -99.704359 
L 102.454081 -101.698687 
L 102.985535 -103.856215 
L 103.516989 -104.837604 
L 104.048443 -105.136935 
L 104.579896 -104.3826 
L 105.11135 -103.465689 
L 105.642804 -102.615887 
L 106.174258 -101.364631 
L 106.705712 -99.620948 
L 107.237166 -97.485142 
L 107.76862 -95.110932 
L 108.300074 -92.632594 
L 108.831527 -90.140285 
L 109.362981 -87.696701 
L 109.894435 -85.340475 
L 110.425889 -83.107421 
L 110.957343 -80.969413 
L 111.488797 -78.870594 
L 112.020251 -76.819535 
L 112.551705 -74.865053 
L 113.083158 -73.072234 
L 113.614612 -71.327055 
L 114.146066 -69.522202 
L 114.67752 -67.717564 
L 115.208974 -66.027531 
L 115.740428 -64.572435 
L 116.271882 -63.1329 
L 116.803336 -61.653656 
L 117.33479 -60.15648 
L 117.866243 -58.835715 
L 118.397697 -57.810808 
L 118.929151 -56.912477 
L 119.460605 -56.061987 
L 119.992059 -55.245156 
L 120.523513 -54.503248 
L 121.054967 -53.97707 
L 121.586421 -53.581792 
L 122.117874 -53.295036 
L 122.649328 -53.073182 
L 123.180782 -52.808344 
L 123.712236 -52.700856 
L 124.24369 -52.655981 
L 124.775144 -52.648169 
L 125.306598 -52.649818 
L 125.838052 -52.692399 
L 126.369505 -52.75282 
L 126.900959 -52.799504 
L 127.432413 -52.85218 
L 127.963867 -52.908572 
L 128.495321 -52.965934 
L 129.026775 -53.018721 
L 129.558229 -53.054882 
L 130.089683 -53.104095 
L 130.621136 -53.135025 
L 131.15259 -53.160311 
L 131.684044 -53.167696 
L 132.215498 -53.171467 
L 132.746952 -53.169695 
L 133.278406 -53.150336 
L 133.80986 -53.129096 
L 134.341314 -53.088214 
L 134.872768 -53.040308 
L 135.404221 -52.9855 
L 135.935675 -52.916709 
L 136.467129 -52.829246 
L 136.998583 -52.745493 
L 137.530037 -52.649435 
L 138.061491 -52.551769 
L 138.592945 -52.459259 
L 139.124399 -52.368381 
L 139.655852 -52.275735 
L 140.187306 -52.186677 
L 140.71876 -52.094243 
L 141.250214 -52.017314 
L 141.781668 -51.967961 
L 142.313122 -51.917208 
L 142.844576 -51.860581 
L 143.37603 -51.799513 
L 143.907483 -51.741159 
L 144.438937 -51.698151 
L 144.970391 -51.674768 
L 145.501845 -51.655109 
L 146.033299 -51.636871 
L 146.564753 -51.618644 
L 147.096207 -51.600381 
L 147.627661 -51.58399 
L 148.159114 -51.571117 
L 148.690568 -51.557943 
L 149.222022 -51.544566 
L 149.753476 -51.530493 
L 150.28493 -51.519422 
L 150.816384 -51.510615 
L 151.347838 -51.501407 
L 151.879292 -51.491697 
L 152.410746 -51.481481 
L 152.942199 -51.476179 
L 153.473653 -51.471422 
L 154.005107 -51.466535 
L 154.536561 -51.461755 
L 155.068015 -51.458981 
L 155.599469 -51.45821 
L 156.130923 -51.457576 
L 156.662377 -51.457055 
L 157.19383 -51.456629 
L 157.725284 -51.456284 
L 158.256738 -51.456005 
L 158.788192 -51.455779 
L 159.319646 -51.455598 
L 159.8511 -51.455453 
L 160.382554 -51.45534 
L 160.914008 -51.455251 
L 161.445461 -51.455182 
L 161.976915 -51.455128 
L 162.508369 -51.455086 
L 163.039823 -51.455058 
L 163.571277 -51.455037 
L 164.102731 -51.455021 
L 164.634185 -51.455009 
L 165.165639 -51.455001 
L 165.165639 -51.454999 
L 165.165639 -51.454999 
L 164.634185 -51.454991 
L 164.102731 -51.45498 
L 163.571277 -51.454965 
L 163.039823 -51.454946 
L 162.508369 -51.454919 
L 161.976915 -51.45488 
L 161.445461 -51.454829 
L 160.914008 -51.454764 
L 160.382554 -51.454681 
L 159.8511 -51.454575 
L 159.319646 -51.454439 
L 158.788192 -51.454269 
L 158.256738 -51.454057 
L 157.725284 -51.453795 
L 157.19383 -51.45347 
L 156.662377 -51.453071 
L 156.130923 -51.452582 
L 155.599469 -51.451987 
L 155.068015 -51.451264 
L 154.536561 -51.448824 
L 154.005107 -51.444429 
L 153.473653 -51.43992 
L 152.942199 -51.435535 
L 152.410746 -51.430653 
L 151.879292 -51.421194 
L 151.347838 -51.412221 
L 150.816384 -51.403735 
L 150.28493 -51.395645 
L 149.753476 -51.385464 
L 149.222022 -51.372506 
L 148.690568 -51.36023 
L 148.159114 -51.348177 
L 147.627661 -51.336437 
L 147.096207 -51.321453 
L 146.564753 -51.304762 
L 146.033299 -51.288144 
L 145.501845 -51.27155 
L 144.970391 -51.253665 
L 144.438937 -51.232354 
L 143.907483 -51.197343 
L 143.37603 -51.147982 
L 142.844576 -51.094971 
L 142.313122 -51.045438 
L 141.781668 -51.000921 
L 141.250214 -50.960077 
L 140.71876 -50.894633 
L 140.187306 -50.816486 
L 139.655852 -50.74558 
L 139.124399 -50.674674 
L 138.592945 -50.604794 
L 138.061491 -50.534048 
L 137.530037 -50.460482 
L 136.998583 -50.385882 
L 136.467129 -50.321185 
L 135.935675 -50.25229 
L 135.404221 -50.198129 
L 134.872768 -50.158385 
L 134.341314 -50.123448 
L 133.80986 -50.090884 
L 133.278406 -50.069266 
L 132.746952 -50.044958 
L 132.215498 -50.034169 
L 131.684044 -50.030763 
L 131.15259 -50.034895 
L 130.621136 -50.052356 
L 130.089683 -50.073032 
L 129.558229 -50.10716 
L 129.026775 -50.137129 
L 128.495321 -50.179729 
L 127.963867 -50.229107 
L 127.432413 -50.28158 
L 126.900959 -50.33203 
L 126.369505 -50.379394 
L 125.838052 -50.442449 
L 125.306598 -50.495876 
L 124.775144 -50.517398 
L 124.24369 -50.54112 
L 123.712236 -50.55316 
L 123.180782 -50.525787 
L 122.649328 -50.388111 
L 122.117874 -50.328186 
L 121.586421 -50.298199 
L 121.054967 -50.315507 
L 120.523513 -50.368995 
L 119.992059 -50.420817 
L 119.460605 -50.59575 
L 118.929151 -50.864282 
L 118.397697 -51.128285 
L 117.866243 -51.410695 
L 117.33479 -51.740505 
L 116.803336 -52.09921 
L 116.271882 -52.555518 
L 115.740428 -53.079192 
L 115.208974 -53.689098 
L 114.67752 -54.46604 
L 114.146066 -55.527133 
L 113.614612 -56.884182 
L 113.083158 -58.551944 
L 112.551705 -60.39989 
L 112.020251 -62.448815 
L 111.488797 -64.708991 
L 110.957343 -67.101496 
L 110.425889 -69.535751 
L 109.894435 -71.971052 
L 109.362981 -74.427354 
L 108.831527 -76.857706 
L 108.300074 -79.219731 
L 107.76862 -81.472855 
L 107.237166 -83.558632 
L 106.705712 -85.401268 
L 106.174258 -86.863701 
L 105.642804 -87.863105 
L 105.11135 -88.462315 
L 104.579896 -89.112435 
L 104.048443 -89.618136 
L 103.516989 -89.094267 
L 102.985535 -87.969158 
L 102.454081 -86.011434 
L 101.922627 -84.273075 
L 101.391173 -82.930854 
L 100.859719 -82.104835 
L 100.328265 -81.303232 
L 99.796812 -80.567902 
L 99.265358 -80.008967 
L 98.733904 -79.400475 
L 98.20245 -78.543629 
L 97.670996 -77.503805 
L 97.139542 -76.142722 
L 96.608088 -74.469043 
L 96.076634 -72.378105 
L 95.54518 -70.099695 
L 95.013727 -67.648234 
L 94.482273 -65.051321 
L 93.950819 -62.387509 
L 93.419365 -59.749759 
L 92.887911 -57.17037 
L 92.356457 -54.954032 
L 91.825003 -53.147892 
L 91.293549 -51.661944 
L 90.762096 -50.107986 
L 90.230642 -48.886991 
L 89.699188 -48.439486 
L 89.167734 -48.534757 
L 88.63628 -48.588582 
L 88.104826 -48.641083 
L 87.573372 -48.68605 
L 87.041918 -48.706353 
L 86.510465 -48.68058 
L 85.979011 -48.646425 
L 85.447557 -48.616885 
L 84.916103 -48.579972 
L 84.384649 -48.552876 
L 83.853195 -48.530373 
L 83.321741 -48.513285 
L 82.790287 -48.505596 
L 82.258834 -48.497692 
L 81.72738 -48.495592 
L 81.195926 -48.475972 
L 80.664472 -48.475125 
L 80.133018 -48.462117 
L 79.601564 -48.472699 
L 79.07011 -48.49322 
L 78.538656 -48.530417 
L 78.007202 -48.579751 
L 77.475749 -48.650585 
L 76.944295 -48.725695 
L 76.412841 -48.812561 
L 75.881387 -48.849631 
L 75.349933 -48.916649 
L 74.818479 -49.01545 
L 74.287025 -49.068246 
L 73.755571 -49.057983 
L 73.224118 -48.950527 
L 72.692664 -48.798633 
L 72.16121 -48.711713 
L 71.629756 -48.771464 
L 71.098302 -48.88113 
L 70.566848 -48.962555 
L 70.035394 -49.223785 
L 69.50394 -49.547386 
L 68.972487 -49.77655 
L 68.441033 -49.793311 
L 67.909579 -49.734609 
L 67.378125 -49.726624 
L 66.846671 -49.70759 
L 66.315217 -49.703778 
L 65.783763 -49.732204 
L 65.252309 -49.786901 
L 64.720856 -49.862096 
L 64.189402 -49.58504 
L 63.657948 -49.039818 
L 63.126494 -48.967973 
L 62.59504 -49.087413 
L 62.063586 -49.484593 
L 61.532132 -49.793111 
L 61.000678 -49.8737 
L 60.469224 -49.874651 
L 59.937771 -49.881956 
L 59.406317 -49.882146 
L 58.874863 -49.835359 
L 58.343409 -49.814734 
L 57.811955 -49.882129 
L 57.280501 -50.139204 
L 56.749047 -50.103934 
L 56.217593 -50.258961 
L 55.68614 -50.313438 
L 55.154686 -50.320101 
L 54.623232 -49.823178 
L 54.091778 -49.60309 
L 53.560324 -49.676836 
L 53.02887 -50.083066 
L 52.497416 -50.429199 
L 51.965962 -50.446095 
L 51.434509 -50.393857 
L 50.903055 -50.338023 
L 50.371601 -50.279733 
z
"/>
    </defs>
    <g clip-path="url(#p016bdfe808)">
     <use xlink:href="#ma76bb5db31" x="0" y="132.33375" style="fill: #800080; fill-opacity: 0.2"/>
    </g>
   </g>
   <g id="PolyCollection_2">
    <defs>
     <path id="m9b04b8ed60" d="M 50.371601 -47.290066 
L 50.371601 -62.99272 
L 50.903055 -62.94527 
L 51.434509 -62.926454 
L 51.965962 -62.947815 
L 52.497416 -63.025952 
L 53.02887 -63.181272 
L 53.560324 -63.279883 
L 54.091778 -63.152532 
L 54.623232 -62.882099 
L 55.154686 -62.626703 
L 55.68614 -62.588762 
L 56.217593 -62.529305 
L 56.749047 -62.451506 
L 57.280501 -62.28454 
L 57.811955 -62.304108 
L 58.343409 -62.287318 
L 58.874863 -62.283077 
L 59.406317 -62.309396 
L 59.937771 -62.360877 
L 60.469224 -62.432914 
L 61.000678 -62.563827 
L 61.532132 -62.883929 
L 62.063586 -63.390178 
L 62.59504 -63.785533 
L 63.126494 -63.935513 
L 63.657948 -63.874419 
L 64.189402 -63.571255 
L 64.720856 -63.581215 
L 65.252309 -63.805954 
L 65.783763 -64.021785 
L 66.315217 -64.232669 
L 66.846671 -64.441561 
L 67.378125 -64.647698 
L 67.909579 -64.866126 
L 68.441033 -65.14608 
L 68.972487 -65.53698 
L 69.50394 -66.016223 
L 70.035394 -66.50362 
L 70.566848 -66.884489 
L 71.098302 -67.178995 
L 71.629756 -67.411686 
L 72.16121 -67.607407 
L 72.692664 -67.803609 
L 73.224118 -68.005984 
L 73.755571 -68.328206 
L 74.287025 -68.767858 
L 74.818479 -69.143291 
L 75.349933 -69.421103 
L 75.881387 -69.669771 
L 76.412841 -70.025955 
L 76.944295 -70.429929 
L 77.475749 -70.824062 
L 78.007202 -71.194323 
L 78.538656 -71.533025 
L 79.07011 -71.837168 
L 79.601564 -72.113017 
L 80.133018 -72.361745 
L 80.664472 -72.583933 
L 81.195926 -72.775744 
L 81.72738 -72.936126 
L 82.258834 -73.067186 
L 82.790287 -73.168156 
L 83.321741 -73.247429 
L 83.853195 -73.313025 
L 84.384649 -73.380281 
L 84.916103 -73.461819 
L 85.447557 -73.57692 
L 85.979011 -73.745316 
L 86.510465 -73.990841 
L 87.041918 -74.323774 
L 87.573372 -74.750757 
L 88.104826 -75.293048 
L 88.63628 -76.060761 
L 89.167734 -77.029947 
L 89.699188 -78.401853 
L 90.230642 -80.276901 
L 90.762096 -82.433729 
L 91.293549 -84.073213 
L 91.825003 -85.951478 
L 92.356457 -88.004557 
L 92.887911 -89.656362 
L 93.419365 -90.726367 
L 93.950819 -91.353943 
L 94.482273 -91.62816 
L 95.013727 -91.593403 
L 95.54518 -91.342019 
L 96.076634 -90.877841 
L 96.608088 -90.320407 
L 97.139542 -89.665963 
L 97.670996 -88.865173 
L 98.20245 -88.673917 
L 98.733904 -88.372158 
L 99.265358 -88.409948 
L 99.796812 -88.951551 
L 100.328265 -90.08253 
L 100.859719 -91.289675 
L 101.391173 -92.740517 
L 101.922627 -94.281296 
L 102.454081 -95.830414 
L 102.985535 -97.415822 
L 103.516989 -98.956426 
L 104.048443 -100.419972 
L 104.579896 -101.784929 
L 105.11135 -103.027006 
L 105.642804 -104.131212 
L 106.174258 -105.091315 
L 106.705712 -105.907683 
L 107.237166 -106.584762 
L 107.76862 -107.1336 
L 108.300074 -107.568722 
L 108.831527 -107.905834 
L 109.362981 -108.158764 
L 109.894435 -108.342558 
L 110.425889 -108.465471 
L 110.957343 -108.535719 
L 111.488797 -108.555715 
L 112.020251 -108.525153 
L 112.551705 -108.442004 
L 113.083158 -108.301908 
L 113.614612 -108.099848 
L 114.146066 -107.832309 
L 114.67752 -107.497813 
L 115.208974 -107.094997 
L 115.740428 -106.625558 
L 116.271882 -106.091866 
L 116.803336 -105.495462 
L 117.33479 -104.834272 
L 117.866243 -104.116713 
L 118.397697 -103.358445 
L 118.929151 -102.572924 
L 119.460605 -101.749424 
L 119.992059 -100.874214 
L 120.523513 -99.948785 
L 121.054967 -98.99994 
L 121.586421 -98.022029 
L 122.117874 -96.984642 
L 122.649328 -95.878237 
L 123.180782 -94.703659 
L 123.712236 -93.492291 
L 124.24369 -92.221737 
L 124.775144 -90.903629 
L 125.306598 -89.532839 
L 125.838052 -88.115384 
L 126.369505 -86.665331 
L 126.900959 -85.18773 
L 127.432413 -83.698568 
L 127.963867 -82.208063 
L 128.495321 -80.726219 
L 129.026775 -79.262457 
L 129.558229 -77.82602 
L 130.089683 -76.428247 
L 130.621136 -75.075957 
L 131.15259 -73.788866 
L 131.684044 -72.570738 
L 132.215498 -71.424606 
L 132.746952 -70.350145 
L 133.278406 -69.343517 
L 133.80986 -68.402498 
L 134.341314 -67.52772 
L 134.872768 -66.714903 
L 135.404221 -65.958668 
L 135.935675 -65.256992 
L 136.467129 -64.608053 
L 136.998583 -64.012772 
L 137.530037 -63.467364 
L 138.061491 -62.973036 
L 138.592945 -62.529642 
L 139.124399 -62.136413 
L 139.655852 -61.792492 
L 140.187306 -61.490056 
L 140.71876 -61.231352 
L 141.250214 -61.009751 
L 141.781668 -60.827169 
L 142.313122 -60.677004 
L 142.844576 -60.557884 
L 143.37603 -60.466199 
L 143.907483 -60.396665 
L 144.438937 -60.344163 
L 144.970391 -60.310613 
L 145.501845 -60.291963 
L 146.033299 -60.288075 
L 146.564753 -60.293225 
L 147.096207 -60.306042 
L 147.627661 -60.323697 
L 148.159114 -60.345019 
L 148.690568 -60.368235 
L 149.222022 -60.392336 
L 149.753476 -60.416017 
L 150.28493 -60.438526 
L 150.816384 -60.460495 
L 151.347838 -60.481343 
L 151.879292 -60.500921 
L 152.410746 -60.518926 
L 152.942199 -60.536055 
L 153.473653 -60.552417 
L 154.005107 -60.568784 
L 154.536561 -60.584569 
L 155.068015 -60.600776 
L 155.599469 -60.618089 
L 156.130923 -60.636523 
L 156.662377 -60.65672 
L 157.19383 -60.678534 
L 157.725284 -60.702643 
L 158.256738 -60.729071 
L 158.788192 -60.758177 
L 159.319646 -60.790199 
L 159.8511 -60.825244 
L 160.382554 -60.863963 
L 160.914008 -60.906783 
L 161.445461 -60.953853 
L 161.976915 -61.00539 
L 162.508369 -61.061479 
L 163.039823 -61.122081 
L 163.571277 -61.187158 
L 164.102731 -61.256216 
L 164.634185 -61.328528 
L 165.165639 -61.404057 
L 165.697092 -61.48188 
L 166.228546 -61.561984 
L 166.76 -61.643749 
L 167.291454 -61.726841 
L 167.822908 -61.811037 
L 168.354362 -61.895709 
L 168.885816 -61.980356 
L 169.41727 -62.064439 
L 169.948724 -62.147518 
L 170.480177 -62.228991 
L 171.011631 -62.308534 
L 171.543085 -62.38561 
L 172.074539 -62.460145 
L 172.605993 -62.532005 
L 173.137447 -62.600969 
L 173.668901 -62.667208 
L 174.200355 -62.730917 
L 174.731808 -62.792218 
L 175.263262 -62.851596 
L 175.794716 -62.909125 
L 176.32617 -62.965103 
L 176.857624 -63.019648 
L 177.389078 -63.073037 
L 177.920532 -63.125234 
L 178.451986 -63.17672 
L 178.983439 -63.227482 
L 179.514893 -63.277862 
L 180.046347 -63.32814 
L 180.577801 -63.378502 
L 181.109255 -63.429269 
L 181.640709 -63.480215 
L 182.172163 -63.531783 
L 182.703617 -63.584035 
L 182.703617 -44.676486 
L 182.703617 -44.676486 
L 182.172163 -44.699607 
L 181.640709 -44.722661 
L 181.109255 -44.74605 
L 180.577801 -44.769729 
L 180.046347 -44.794245 
L 179.514893 -44.819505 
L 178.983439 -44.846028 
L 178.451986 -44.874133 
L 177.920532 -44.903386 
L 177.389078 -44.934531 
L 176.857624 -44.967288 
L 176.32617 -45.002166 
L 175.794716 -45.039192 
L 175.263262 -45.078421 
L 174.731808 -45.119975 
L 174.200355 -45.164202 
L 173.668901 -45.211166 
L 173.137447 -45.261039 
L 172.605993 -45.313918 
L 172.074539 -45.369754 
L 171.543085 -45.428721 
L 171.011631 -45.490514 
L 170.480177 -45.554893 
L 169.948724 -45.621528 
L 169.41727 -45.690163 
L 168.885816 -45.760579 
L 168.354362 -45.832278 
L 167.822908 -45.904817 
L 167.291454 -45.977765 
L 166.76 -46.051098 
L 166.228546 -46.124121 
L 165.697092 -46.196499 
L 165.165639 -46.268248 
L 164.634185 -46.338355 
L 164.102731 -46.407201 
L 163.571277 -46.473656 
L 163.039823 -46.537675 
L 162.508369 -46.599159 
L 161.976915 -46.657717 
L 161.445461 -46.713361 
L 160.914008 -46.766259 
L 160.382554 -46.816525 
L 159.8511 -46.864739 
L 159.319646 -46.911135 
L 158.788192 -46.955611 
L 158.256738 -46.998805 
L 157.725284 -47.040634 
L 157.19383 -47.081468 
L 156.662377 -47.121623 
L 156.130923 -47.161161 
L 155.599469 -47.201188 
L 155.068015 -47.241199 
L 154.536561 -47.282087 
L 154.005107 -47.32438 
L 153.473653 -47.368104 
L 152.942199 -47.414571 
L 152.410746 -47.463787 
L 151.879292 -47.516727 
L 151.347838 -47.573149 
L 150.816384 -47.634478 
L 150.28493 -47.700736 
L 149.753476 -47.771634 
L 149.222022 -47.849242 
L 148.690568 -47.932772 
L 148.159114 -48.022154 
L 147.627661 -48.118942 
L 147.096207 -48.2226 
L 146.564753 -48.333453 
L 146.033299 -48.452223 
L 145.501845 -48.579161 
L 144.970391 -48.712887 
L 144.438937 -48.855895 
L 143.907483 -49.008198 
L 143.37603 -49.174811 
L 142.844576 -49.355331 
L 142.313122 -49.550876 
L 141.781668 -49.763234 
L 141.250214 -49.996293 
L 140.71876 -50.250937 
L 140.187306 -50.532538 
L 139.655852 -50.842006 
L 139.124399 -51.186375 
L 138.592945 -51.564814 
L 138.061491 -51.978522 
L 137.530037 -52.43147 
L 136.998583 -52.927991 
L 136.467129 -53.471463 
L 135.935675 -54.062465 
L 135.404221 -54.703141 
L 134.872768 -55.394963 
L 134.341314 -56.135185 
L 133.80986 -56.918248 
L 133.278406 -57.737588 
L 132.746952 -58.589671 
L 132.215498 -59.470405 
L 131.684044 -60.376915 
L 131.15259 -61.303542 
L 130.621136 -62.245911 
L 130.089683 -63.201685 
L 129.558229 -64.170452 
L 129.026775 -65.156406 
L 128.495321 -66.168151 
L 127.963867 -67.208769 
L 127.432413 -68.268227 
L 126.900959 -69.349584 
L 126.369505 -70.46489 
L 125.838052 -71.617998 
L 125.306598 -72.794658 
L 124.775144 -73.999531 
L 124.24369 -75.235371 
L 123.712236 -76.478115 
L 123.180782 -77.759529 
L 122.649328 -79.009178 
L 122.117874 -80.241034 
L 121.586421 -81.465858 
L 121.054967 -82.67064 
L 120.523513 -83.824248 
L 119.992059 -84.89993 
L 119.460605 -85.902994 
L 118.929151 -86.831822 
L 118.397697 -87.674486 
L 117.866243 -88.424731 
L 117.33479 -89.090144 
L 116.803336 -89.682323 
L 116.271882 -90.210491 
L 115.740428 -90.677204 
L 115.208974 -91.087721 
L 114.67752 -91.446175 
L 114.146066 -91.76056 
L 113.614612 -92.032771 
L 113.083158 -92.264176 
L 112.551705 -92.454427 
L 112.020251 -92.601564 
L 111.488797 -92.702988 
L 110.957343 -92.754121 
L 110.425889 -92.747448 
L 109.894435 -92.677067 
L 109.362981 -92.53815 
L 108.831527 -92.324662 
L 108.300074 -92.033914 
L 107.76862 -91.662348 
L 107.237166 -91.208183 
L 106.705712 -90.667432 
L 106.174258 -90.035492 
L 105.642804 -89.306445 
L 105.11135 -88.478239 
L 104.579896 -87.549599 
L 104.048443 -86.523883 
L 103.516989 -85.408309 
L 102.985535 -84.232216 
L 102.454081 -83.079097 
L 101.922627 -81.797144 
L 101.391173 -80.539582 
L 100.859719 -79.450113 
L 100.328265 -78.192794 
L 99.796812 -76.940821 
L 99.265358 -75.457583 
L 98.733904 -73.678092 
L 98.20245 -71.735631 
L 97.670996 -70.013487 
L 97.139542 -67.878291 
L 96.608088 -66.000327 
L 96.076634 -64.194653 
L 95.54518 -62.539298 
L 95.013727 -61.104443 
L 94.482273 -59.892227 
L 93.950819 -58.968746 
L 93.419365 -58.357247 
L 92.887911 -58.114362 
L 92.356457 -58.330189 
L 91.825003 -58.85641 
L 91.293549 -59.283177 
L 90.762096 -59.516428 
L 90.230642 -60.160285 
L 89.699188 -60.618564 
L 89.167734 -60.735781 
L 88.63628 -60.80034 
L 88.104826 -60.825782 
L 87.573372 -60.785523 
L 87.041918 -60.753094 
L 86.510465 -60.706116 
L 85.979011 -60.646181 
L 85.447557 -60.56626 
L 84.916103 -60.470088 
L 84.384649 -60.362594 
L 83.853195 -60.249581 
L 83.321741 -60.130029 
L 82.790287 -60.011648 
L 82.258834 -59.901037 
L 81.72738 -59.798473 
L 81.195926 -59.706847 
L 80.664472 -59.623563 
L 80.133018 -59.538046 
L 79.601564 -59.432994 
L 79.07011 -59.297878 
L 78.538656 -59.129109 
L 78.007202 -58.925138 
L 77.475749 -58.681966 
L 76.944295 -58.413084 
L 76.412841 -58.115076 
L 75.881387 -57.799486 
L 75.349933 -57.392642 
L 74.818479 -56.975366 
L 74.287025 -56.608912 
L 73.755571 -56.26532 
L 73.224118 -55.843001 
L 72.692664 -55.28073 
L 72.16121 -54.697 
L 71.629756 -54.112833 
L 71.098302 -53.569057 
L 70.566848 -53.108185 
L 70.035394 -52.752114 
L 69.50394 -52.504942 
L 68.972487 -52.285488 
L 68.441033 -52.035641 
L 67.909579 -51.722485 
L 67.378125 -51.392266 
L 66.846671 -51.080852 
L 66.315217 -50.8006 
L 65.783763 -50.553641 
L 65.252309 -50.341832 
L 64.720856 -50.166371 
L 64.189402 -49.898785 
L 63.657948 -49.34402 
L 63.126494 -48.999008 
L 62.59504 -48.859182 
L 62.063586 -48.953008 
L 61.532132 -49.148841 
L 61.000678 -49.18374 
L 60.469224 -49.07972 
L 59.937771 -48.952573 
L 59.406317 -48.82908 
L 58.874863 -48.717208 
L 58.343409 -48.599999 
L 57.811955 -48.479051 
L 57.280501 -48.387009 
L 56.749047 -48.180963 
L 56.217593 -48.042902 
L 55.68614 -47.927256 
L 55.154686 -47.837783 
L 54.623232 -47.612564 
L 54.091778 -47.348891 
L 53.560324 -47.202752 
L 53.02887 -47.251711 
L 52.497416 -47.349531 
L 51.965962 -47.384995 
L 51.434509 -47.37768 
L 50.903055 -47.34226 
L 50.371601 -47.290066 
z
"/>
    </defs>
    <g clip-path="url(#p016bdfe808)">
     <use xlink:href="#m9b04b8ed60" x="0" y="132.33375" style="fill: #808080; fill-opacity: 0.2"/>
    </g>
   </g>
   <g id="matplotlib.axis_1">
    <g id="xtick_1">
     <g id="line2d_1">
      <defs>
       <path id="mb71425866a" d="M 0 0 
L 0 3.5 
" style="stroke: #000000; stroke-width: 0.8"/>
      </defs>
      <g>
       <use xlink:href="#mb71425866a" x="50.371601" y="88.57875" style="stroke: #000000; stroke-width: 0.8"/>
      </g>
     </g>
     <g id="text_1">
      <!-- 0 -->
      <g transform="translate(52.579101 100.66875) rotate(-90) scale(0.08 -0.08)">
       <defs>
        <path id="DejaVuSans-30" d="M 2034 4250 
Q 1547 4250 1301 3770 
Q 1056 3291 1056 2328 
Q 1056 1369 1301 889 
Q 1547 409 2034 409 
Q 2525 409 2770 889 
Q 3016 1369 3016 2328 
Q 3016 3291 2770 3770 
Q 2525 4250 2034 4250 
z
M 2034 4750 
Q 2819 4750 3233 4129 
Q 3647 3509 3647 2328 
Q 3647 1150 3233 529 
Q 2819 -91 2034 -91 
Q 1250 -91 836 529 
Q 422 1150 422 2328 
Q 422 3509 836 4129 
Q 1250 4750 2034 4750 
z
" transform="scale(0.015625)"/>
       </defs>
       <use xlink:href="#DejaVuSans-30"/>
      </g>
     </g>
    </g>
    <g id="xtick_2">
     <g id="line2d_2">
      <g>
       <use xlink:href="#mb71425866a" x="76.944295" y="88.57875" style="stroke: #000000; stroke-width: 0.8"/>
      </g>
     </g>
     <g id="text_2">
      <!-- 50 -->
      <g transform="translate(79.151795 105.75875) rotate(-90) scale(0.08 -0.08)">
       <defs>
        <path id="DejaVuSans-35" d="M 691 4666 
L 3169 4666 
L 3169 4134 
L 1269 4134 
L 1269 2991 
Q 1406 3038 1543 3061 
Q 1681 3084 1819 3084 
Q 2600 3084 3056 2656 
Q 3513 2228 3513 1497 
Q 3513 744 3044 326 
Q 2575 -91 1722 -91 
Q 1428 -91 1123 -41 
Q 819 9 494 109 
L 494 744 
Q 775 591 1075 516 
Q 1375 441 1709 441 
Q 2250 441 2565 725 
Q 2881 1009 2881 1497 
Q 2881 1984 2565 2268 
Q 2250 2553 1709 2553 
Q 1456 2553 1204 2497 
Q 953 2441 691 2322 
L 691 4666 
z
" transform="scale(0.015625)"/>
       </defs>
       <use xlink:href="#DejaVuSans-35"/>
       <use xlink:href="#DejaVuSans-30" x="63.623047"/>
      </g>
     </g>
    </g>
    <g id="xtick_3">
     <g id="line2d_3">
      <g>
       <use xlink:href="#mb71425866a" x="103.516989" y="88.57875" style="stroke: #000000; stroke-width: 0.8"/>
      </g>
     </g>
     <g id="text_3">
      <!-- 100 -->
      <g transform="translate(105.724489 110.84875) rotate(-90) scale(0.08 -0.08)">
       <defs>
        <path id="DejaVuSans-31" d="M 794 531 
L 1825 531 
L 1825 4091 
L 703 3866 
L 703 4441 
L 1819 4666 
L 2450 4666 
L 2450 531 
L 3481 531 
L 3481 0 
L 794 0 
L 794 531 
z
" transform="scale(0.015625)"/>
       </defs>
       <use xlink:href="#DejaVuSans-31"/>
       <use xlink:href="#DejaVuSans-30" x="63.623047"/>
       <use xlink:href="#DejaVuSans-30" x="127.246094"/>
      </g>
     </g>
    </g>
    <g id="xtick_4">
     <g id="line2d_4">
      <g>
       <use xlink:href="#mb71425866a" x="130.089683" y="88.57875" style="stroke: #000000; stroke-width: 0.8"/>
      </g>
     </g>
     <g id="text_4">
      <!-- 150 -->
      <g transform="translate(132.297183 110.84875) rotate(-90) scale(0.08 -0.08)">
       <use xlink:href="#DejaVuSans-31"/>
       <use xlink:href="#DejaVuSans-35" x="63.623047"/>
       <use xlink:href="#DejaVuSans-30" x="127.246094"/>
      </g>
     </g>
    </g>
    <g id="xtick_5">
     <g id="line2d_5">
      <g>
       <use xlink:href="#mb71425866a" x="156.662377" y="88.57875" style="stroke: #000000; stroke-width: 0.8"/>
      </g>
     </g>
     <g id="text_5">
      <!-- 200 -->
      <g transform="translate(158.869877 110.84875) rotate(-90) scale(0.08 -0.08)">
       <defs>
        <path id="DejaVuSans-32" d="M 1228 531 
L 3431 531 
L 3431 0 
L 469 0 
L 469 531 
Q 828 903 1448 1529 
Q 2069 2156 2228 2338 
Q 2531 2678 2651 2914 
Q 2772 3150 2772 3378 
Q 2772 3750 2511 3984 
Q 2250 4219 1831 4219 
Q 1534 4219 1204 4116 
Q 875 4013 500 3803 
L 500 4441 
Q 881 4594 1212 4672 
Q 1544 4750 1819 4750 
Q 2544 4750 2975 4387 
Q 3406 4025 3406 3419 
Q 3406 3131 3298 2873 
Q 3191 2616 2906 2266 
Q 2828 2175 2409 1742 
Q 1991 1309 1228 531 
z
" transform="scale(0.015625)"/>
       </defs>
       <use xlink:href="#DejaVuSans-32"/>
       <use xlink:href="#DejaVuSans-30" x="63.623047"/>
       <use xlink:href="#DejaVuSans-30" x="127.246094"/>
      </g>
     </g>
    </g>
    <g id="xtick_6">
     <g id="line2d_6">
      <g>
       <use xlink:href="#mb71425866a" x="183.23507" y="88.57875" style="stroke: #000000; stroke-width: 0.8"/>
      </g>
     </g>
     <g id="text_6">
      <!-- 250 -->
      <g transform="translate(185.44257 110.84875) rotate(-90) scale(0.08 -0.08)">
       <use xlink:href="#DejaVuSans-32"/>
       <use xlink:href="#DejaVuSans-35" x="63.623047"/>
       <use xlink:href="#DejaVuSans-30" x="127.246094"/>
      </g>
     </g>
    </g>
    <g id="text_7">
     <!-- Time (ms) -->
     <g transform="translate(96.378234 120.9275) scale(0.08 -0.08)">
      <defs>
       <path id="DejaVuSans-54" d="M -19 4666 
L 3928 4666 
L 3928 4134 
L 2272 4134 
L 2272 0 
L 1638 0 
L 1638 4134 
L -19 4134 
L -19 4666 
z
" transform="scale(0.015625)"/>
       <path id="DejaVuSans-69" d="M 603 3500 
L 1178 3500 
L 1178 0 
L 603 0 
L 603 3500 
z
M 603 4863 
L 1178 4863 
L 1178 4134 
L 603 4134 
L 603 4863 
z
" transform="scale(0.015625)"/>
       <path id="DejaVuSans-6d" d="M 3328 2828 
Q 3544 3216 3844 3400 
Q 4144 3584 4550 3584 
Q 5097 3584 5394 3201 
Q 5691 2819 5691 2113 
L 5691 0 
L 5113 0 
L 5113 2094 
Q 5113 2597 4934 2840 
Q 4756 3084 4391 3084 
Q 3944 3084 3684 2787 
Q 3425 2491 3425 1978 
L 3425 0 
L 2847 0 
L 2847 2094 
Q 2847 2600 2669 2842 
Q 2491 3084 2119 3084 
Q 1678 3084 1418 2786 
Q 1159 2488 1159 1978 
L 1159 0 
L 581 0 
L 581 3500 
L 1159 3500 
L 1159 2956 
Q 1356 3278 1631 3431 
Q 1906 3584 2284 3584 
Q 2666 3584 2933 3390 
Q 3200 3197 3328 2828 
z
" transform="scale(0.015625)"/>
       <path id="DejaVuSans-65" d="M 3597 1894 
L 3597 1613 
L 953 1613 
Q 991 1019 1311 708 
Q 1631 397 2203 397 
Q 2534 397 2845 478 
Q 3156 559 3463 722 
L 3463 178 
Q 3153 47 2828 -22 
Q 2503 -91 2169 -91 
Q 1331 -91 842 396 
Q 353 884 353 1716 
Q 353 2575 817 3079 
Q 1281 3584 2069 3584 
Q 2775 3584 3186 3129 
Q 3597 2675 3597 1894 
z
M 3022 2063 
Q 3016 2534 2758 2815 
Q 2500 3097 2075 3097 
Q 1594 3097 1305 2825 
Q 1016 2553 972 2059 
L 3022 2063 
z
" transform="scale(0.015625)"/>
       <path id="DejaVuSans-20" transform="scale(0.015625)"/>
       <path id="DejaVuSans-28" d="M 1984 4856 
Q 1566 4138 1362 3434 
Q 1159 2731 1159 2009 
Q 1159 1288 1364 580 
Q 1569 -128 1984 -844 
L 1484 -844 
Q 1016 -109 783 600 
Q 550 1309 550 2009 
Q 550 2706 781 3412 
Q 1013 4119 1484 4856 
L 1984 4856 
z
" transform="scale(0.015625)"/>
       <path id="DejaVuSans-73" d="M 2834 3397 
L 2834 2853 
Q 2591 2978 2328 3040 
Q 2066 3103 1784 3103 
Q 1356 3103 1142 2972 
Q 928 2841 928 2578 
Q 928 2378 1081 2264 
Q 1234 2150 1697 2047 
L 1894 2003 
Q 2506 1872 2764 1633 
Q 3022 1394 3022 966 
Q 3022 478 2636 193 
Q 2250 -91 1575 -91 
Q 1294 -91 989 -36 
Q 684 19 347 128 
L 347 722 
Q 666 556 975 473 
Q 1284 391 1588 391 
Q 1994 391 2212 530 
Q 2431 669 2431 922 
Q 2431 1156 2273 1281 
Q 2116 1406 1581 1522 
L 1381 1569 
Q 847 1681 609 1914 
Q 372 2147 372 2553 
Q 372 3047 722 3315 
Q 1072 3584 1716 3584 
Q 2034 3584 2315 3537 
Q 2597 3491 2834 3397 
z
" transform="scale(0.015625)"/>
       <path id="DejaVuSans-29" d="M 513 4856 
L 1013 4856 
Q 1481 4119 1714 3412 
Q 1947 2706 1947 2009 
Q 1947 1309 1714 600 
Q 1481 -109 1013 -844 
L 513 -844 
Q 928 -128 1133 580 
Q 1338 1288 1338 2009 
Q 1338 2731 1133 3434 
Q 928 4138 513 4856 
z
" transform="scale(0.015625)"/>
      </defs>
      <use xlink:href="#DejaVuSans-54"/>
      <use xlink:href="#DejaVuSans-69" x="57.958984"/>
      <use xlink:href="#DejaVuSans-6d" x="85.742188"/>
      <use xlink:href="#DejaVuSans-65" x="183.154297"/>
      <use xlink:href="#DejaVuSans-20" x="244.677734"/>
      <use xlink:href="#DejaVuSans-28" x="276.464844"/>
      <use xlink:href="#DejaVuSans-6d" x="315.478516"/>
      <use xlink:href="#DejaVuSans-73" x="412.890625"/>
      <use xlink:href="#DejaVuSans-29" x="464.990234"/>
     </g>
    </g>
   </g>
   <g id="matplotlib.axis_2">
    <g id="ytick_1">
     <g id="line2d_7">
      <defs>
       <path id="m93d193fe59" d="M 0 0 
L -3.5 0 
" style="stroke: #000000; stroke-width: 0.8"/>
      </defs>
      <g>
       <use xlink:href="#m93d193fe59" x="43.755" y="80.87875" style="stroke: #000000; stroke-width: 0.8"/>
      </g>
     </g>
     <g id="text_8">
      <!-- 0.00 -->
      <g transform="translate(18.9425 83.918125) scale(0.08 -0.08)">
       <defs>
        <path id="DejaVuSans-2e" d="M 684 794 
L 1344 794 
L 1344 0 
L 684 0 
L 684 794 
z
" transform="scale(0.015625)"/>
       </defs>
       <use xlink:href="#DejaVuSans-30"/>
       <use xlink:href="#DejaVuSans-2e" x="63.623047"/>
       <use xlink:href="#DejaVuSans-30" x="95.410156"/>
       <use xlink:href="#DejaVuSans-30" x="159.033203"/>
      </g>
     </g>
    </g>
    <g id="ytick_2">
     <g id="line2d_8">
      <g>
       <use xlink:href="#m93d193fe59" x="43.755" y="61.62875" style="stroke: #000000; stroke-width: 0.8"/>
      </g>
     </g>
     <g id="text_9">
      <!-- 0.25 -->
      <g transform="translate(18.9425 64.668125) scale(0.08 -0.08)">
       <use xlink:href="#DejaVuSans-30"/>
       <use xlink:href="#DejaVuSans-2e" x="63.623047"/>
       <use xlink:href="#DejaVuSans-32" x="95.410156"/>
       <use xlink:href="#DejaVuSans-35" x="159.033203"/>
      </g>
     </g>
    </g>
    <g id="ytick_3">
     <g id="line2d_9">
      <g>
       <use xlink:href="#m93d193fe59" x="43.755" y="42.37875" style="stroke: #000000; stroke-width: 0.8"/>
      </g>
     </g>
     <g id="text_10">
      <!-- 0.50 -->
      <g transform="translate(18.9425 45.418125) scale(0.08 -0.08)">
       <use xlink:href="#DejaVuSans-30"/>
       <use xlink:href="#DejaVuSans-2e" x="63.623047"/>
       <use xlink:href="#DejaVuSans-35" x="95.410156"/>
       <use xlink:href="#DejaVuSans-30" x="159.033203"/>
      </g>
     </g>
    </g>
    <g id="ytick_4">
     <g id="line2d_10">
      <g>
       <use xlink:href="#m93d193fe59" x="43.755" y="23.12875" style="stroke: #000000; stroke-width: 0.8"/>
      </g>
     </g>
     <g id="text_11">
      <!-- 0.75 -->
      <g transform="translate(18.9425 26.168125) scale(0.08 -0.08)">
       <defs>
        <path id="DejaVuSans-37" d="M 525 4666 
L 3525 4666 
L 3525 4397 
L 1831 0 
L 1172 0 
L 2766 4134 
L 525 4134 
L 525 4666 
z
" transform="scale(0.015625)"/>
       </defs>
       <use xlink:href="#DejaVuSans-30"/>
       <use xlink:href="#DejaVuSans-2e" x="63.623047"/>
       <use xlink:href="#DejaVuSans-37" x="95.410156"/>
       <use xlink:href="#DejaVuSans-35" x="159.033203"/>
      </g>
     </g>
    </g>
    <g id="text_12">
     <!-- Average vector angle (rad) -->
     <g transform="translate(13.27875 107.71125) rotate(-90) scale(0.08 -0.08)">
      <defs>
       <path id="DejaVuSans-41" d="M 2188 4044 
L 1331 1722 
L 3047 1722 
L 2188 4044 
z
M 1831 4666 
L 2547 4666 
L 4325 0 
L 3669 0 
L 3244 1197 
L 1141 1197 
L 716 0 
L 50 0 
L 1831 4666 
z
" transform="scale(0.015625)"/>
       <path id="DejaVuSans-76" d="M 191 3500 
L 800 3500 
L 1894 563 
L 2988 3500 
L 3597 3500 
L 2284 0 
L 1503 0 
L 191 3500 
z
" transform="scale(0.015625)"/>
       <path id="DejaVuSans-72" d="M 2631 2963 
Q 2534 3019 2420 3045 
Q 2306 3072 2169 3072 
Q 1681 3072 1420 2755 
Q 1159 2438 1159 1844 
L 1159 0 
L 581 0 
L 581 3500 
L 1159 3500 
L 1159 2956 
Q 1341 3275 1631 3429 
Q 1922 3584 2338 3584 
Q 2397 3584 2469 3576 
Q 2541 3569 2628 3553 
L 2631 2963 
z
" transform="scale(0.015625)"/>
       <path id="DejaVuSans-61" d="M 2194 1759 
Q 1497 1759 1228 1600 
Q 959 1441 959 1056 
Q 959 750 1161 570 
Q 1363 391 1709 391 
Q 2188 391 2477 730 
Q 2766 1069 2766 1631 
L 2766 1759 
L 2194 1759 
z
M 3341 1997 
L 3341 0 
L 2766 0 
L 2766 531 
Q 2569 213 2275 61 
Q 1981 -91 1556 -91 
Q 1019 -91 701 211 
Q 384 513 384 1019 
Q 384 1609 779 1909 
Q 1175 2209 1959 2209 
L 2766 2209 
L 2766 2266 
Q 2766 2663 2505 2880 
Q 2244 3097 1772 3097 
Q 1472 3097 1187 3025 
Q 903 2953 641 2809 
L 641 3341 
Q 956 3463 1253 3523 
Q 1550 3584 1831 3584 
Q 2591 3584 2966 3190 
Q 3341 2797 3341 1997 
z
" transform="scale(0.015625)"/>
       <path id="DejaVuSans-67" d="M 2906 1791 
Q 2906 2416 2648 2759 
Q 2391 3103 1925 3103 
Q 1463 3103 1205 2759 
Q 947 2416 947 1791 
Q 947 1169 1205 825 
Q 1463 481 1925 481 
Q 2391 481 2648 825 
Q 2906 1169 2906 1791 
z
M 3481 434 
Q 3481 -459 3084 -895 
Q 2688 -1331 1869 -1331 
Q 1566 -1331 1297 -1286 
Q 1028 -1241 775 -1147 
L 775 -588 
Q 1028 -725 1275 -790 
Q 1522 -856 1778 -856 
Q 2344 -856 2625 -561 
Q 2906 -266 2906 331 
L 2906 616 
Q 2728 306 2450 153 
Q 2172 0 1784 0 
Q 1141 0 747 490 
Q 353 981 353 1791 
Q 353 2603 747 3093 
Q 1141 3584 1784 3584 
Q 2172 3584 2450 3431 
Q 2728 3278 2906 2969 
L 2906 3500 
L 3481 3500 
L 3481 434 
z
" transform="scale(0.015625)"/>
       <path id="DejaVuSans-63" d="M 3122 3366 
L 3122 2828 
Q 2878 2963 2633 3030 
Q 2388 3097 2138 3097 
Q 1578 3097 1268 2742 
Q 959 2388 959 1747 
Q 959 1106 1268 751 
Q 1578 397 2138 397 
Q 2388 397 2633 464 
Q 2878 531 3122 666 
L 3122 134 
Q 2881 22 2623 -34 
Q 2366 -91 2075 -91 
Q 1284 -91 818 406 
Q 353 903 353 1747 
Q 353 2603 823 3093 
Q 1294 3584 2113 3584 
Q 2378 3584 2631 3529 
Q 2884 3475 3122 3366 
z
" transform="scale(0.015625)"/>
       <path id="DejaVuSans-74" d="M 1172 4494 
L 1172 3500 
L 2356 3500 
L 2356 3053 
L 1172 3053 
L 1172 1153 
Q 1172 725 1289 603 
Q 1406 481 1766 481 
L 2356 481 
L 2356 0 
L 1766 0 
Q 1100 0 847 248 
Q 594 497 594 1153 
L 594 3053 
L 172 3053 
L 172 3500 
L 594 3500 
L 594 4494 
L 1172 4494 
z
" transform="scale(0.015625)"/>
       <path id="DejaVuSans-6f" d="M 1959 3097 
Q 1497 3097 1228 2736 
Q 959 2375 959 1747 
Q 959 1119 1226 758 
Q 1494 397 1959 397 
Q 2419 397 2687 759 
Q 2956 1122 2956 1747 
Q 2956 2369 2687 2733 
Q 2419 3097 1959 3097 
z
M 1959 3584 
Q 2709 3584 3137 3096 
Q 3566 2609 3566 1747 
Q 3566 888 3137 398 
Q 2709 -91 1959 -91 
Q 1206 -91 779 398 
Q 353 888 353 1747 
Q 353 2609 779 3096 
Q 1206 3584 1959 3584 
z
" transform="scale(0.015625)"/>
       <path id="DejaVuSans-6e" d="M 3513 2113 
L 3513 0 
L 2938 0 
L 2938 2094 
Q 2938 2591 2744 2837 
Q 2550 3084 2163 3084 
Q 1697 3084 1428 2787 
Q 1159 2491 1159 1978 
L 1159 0 
L 581 0 
L 581 3500 
L 1159 3500 
L 1159 2956 
Q 1366 3272 1645 3428 
Q 1925 3584 2291 3584 
Q 2894 3584 3203 3211 
Q 3513 2838 3513 2113 
z
" transform="scale(0.015625)"/>
       <path id="DejaVuSans-6c" d="M 603 4863 
L 1178 4863 
L 1178 0 
L 603 0 
L 603 4863 
z
" transform="scale(0.015625)"/>
       <path id="DejaVuSans-64" d="M 2906 2969 
L 2906 4863 
L 3481 4863 
L 3481 0 
L 2906 0 
L 2906 525 
Q 2725 213 2448 61 
Q 2172 -91 1784 -91 
Q 1150 -91 751 415 
Q 353 922 353 1747 
Q 353 2572 751 3078 
Q 1150 3584 1784 3584 
Q 2172 3584 2448 3432 
Q 2725 3281 2906 2969 
z
M 947 1747 
Q 947 1113 1208 752 
Q 1469 391 1925 391 
Q 2381 391 2643 752 
Q 2906 1113 2906 1747 
Q 2906 2381 2643 2742 
Q 2381 3103 1925 3103 
Q 1469 3103 1208 2742 
Q 947 2381 947 1747 
z
" transform="scale(0.015625)"/>
      </defs>
      <use xlink:href="#DejaVuSans-41"/>
      <use xlink:href="#DejaVuSans-76" x="62.533203"/>
      <use xlink:href="#DejaVuSans-65" x="121.712891"/>
      <use xlink:href="#DejaVuSans-72" x="183.236328"/>
      <use xlink:href="#DejaVuSans-61" x="224.349609"/>
      <use xlink:href="#DejaVuSans-67" x="285.628906"/>
      <use xlink:href="#DejaVuSans-65" x="349.105469"/>
      <use xlink:href="#DejaVuSans-20" x="410.628906"/>
      <use xlink:href="#DejaVuSans-76" x="442.416016"/>
      <use xlink:href="#DejaVuSans-65" x="501.595703"/>
      <use xlink:href="#DejaVuSans-63" x="563.119141"/>
      <use xlink:href="#DejaVuSans-74" x="618.099609"/>
      <use xlink:href="#DejaVuSans-6f" x="657.308594"/>
      <use xlink:href="#DejaVuSans-72" x="718.490234"/>
      <use xlink:href="#DejaVuSans-20" x="759.603516"/>
      <use xlink:href="#DejaVuSans-61" x="791.390625"/>
      <use xlink:href="#DejaVuSans-6e" x="852.669922"/>
      <use xlink:href="#DejaVuSans-67" x="916.048828"/>
      <use xlink:href="#DejaVuSans-6c" x="979.525391"/>
      <use xlink:href="#DejaVuSans-65" x="1007.308594"/>
      <use xlink:href="#DejaVuSans-20" x="1068.832031"/>
      <use xlink:href="#DejaVuSans-28" x="1100.619141"/>
      <use xlink:href="#DejaVuSans-72" x="1139.632812"/>
      <use xlink:href="#DejaVuSans-61" x="1180.746094"/>
      <use xlink:href="#DejaVuSans-64" x="1242.025391"/>
      <use xlink:href="#DejaVuSans-29" x="1305.501953"/>
     </g>
    </g>
   </g>
   <g id="line2d_11">
    <path d="M 50.371601 80.837059 
L 61.000678 80.767224 
L 64.720856 80.7255 
L 75.349933 80.422325 
L 83.321741 80.15709 
L 87.573372 80.133636 
L 88.63628 79.990512 
L 89.167734 79.77248 
L 89.699188 79.294657 
L 90.230642 78.274648 
L 90.762096 76.773468 
L 92.356457 70.610777 
L 95.54518 56.103168 
L 96.608088 52.16438 
L 97.670996 49.072771 
L 98.733904 46.89277 
L 100.859719 43.088624 
L 101.391173 41.881035 
L 102.454081 38.478691 
L 102.985535 36.421064 
L 103.516989 35.367815 
L 104.048443 34.956214 
L 105.11135 36.369748 
L 105.642804 37.094255 
L 106.174258 38.219583 
L 106.705712 39.822642 
L 107.76862 44.041857 
L 112.020251 62.699575 
L 113.083158 66.52166 
L 114.146066 69.809082 
L 115.208974 72.475436 
L 117.33479 76.385257 
L 118.397697 77.864203 
L 119.992059 79.500764 
L 121.054967 80.187461 
L 122.117874 80.522139 
L 124.24369 80.735199 
L 128.495321 80.760919 
L 137.530037 80.778792 
L 146.033299 80.871243 
L 182.703617 80.87875 
L 182.703617 80.87875 
" clip-path="url(#p016bdfe808)" style="fill: none; stroke: #800080; stroke-width: 0.75; stroke-linecap: square"/>
   </g>
   <g id="line2d_12">
    <path d="M 50.371601 77.192357 
L 55.68614 77.075741 
L 58.874863 76.833607 
L 61.000678 76.459966 
L 65.252309 75.259857 
L 67.378125 74.313768 
L 68.972487 73.422516 
L 71.629756 71.57149 
L 75.349933 68.926878 
L 78.538656 67.002683 
L 80.133018 66.383854 
L 82.258834 65.849639 
L 87.041918 64.795315 
L 88.104826 64.274335 
L 89.167734 63.450886 
L 90.230642 62.115157 
L 92.887911 58.448388 
L 95.013727 55.984826 
L 97.670996 52.89442 
L 98.733904 51.308625 
L 99.796812 49.387564 
L 101.391173 45.6937 
L 104.048443 38.861822 
L 105.11135 36.581129 
L 106.174258 34.770347 
L 107.237166 33.437277 
L 108.300074 32.532432 
L 109.362981 31.985293 
L 110.425889 31.727291 
L 111.488797 31.704398 
L 112.551705 31.885534 
L 113.614612 32.26744 
L 114.67752 32.861756 
L 115.740428 33.682369 
L 116.803336 34.744856 
L 117.866243 36.063028 
L 119.460605 38.507541 
L 121.054967 41.498459 
L 123.180782 46.102155 
L 127.432413 56.350353 
L 130.089683 62.518785 
L 132.215498 66.886244 
L 133.80986 69.673377 
L 135.404221 72.002846 
L 136.998583 73.863368 
L 138.592945 75.286523 
L 140.187306 76.322453 
L 141.781668 77.038548 
L 143.37603 77.513245 
L 145.501845 77.898188 
L 148.690568 78.183246 
L 154.536561 78.400422 
L 163.571277 78.503343 
L 175.263262 78.368742 
L 182.703617 78.203489 
L 182.703617 78.203489 
" clip-path="url(#p016bdfe808)" style="fill: none; stroke: #808080; stroke-width: 0.75; stroke-linecap: square"/>
   </g>
   <g id="patch_3">
    <path d="M 43.755 88.57875 
L 43.755 19.27875 
" style="fill: none; stroke: #000000; stroke-width: 0.8; stroke-linejoin: miter; stroke-linecap: square"/>
   </g>
   <g id="patch_4">
    <path d="M 43.755 88.57875 
L 189.320217 88.57875 
" style="fill: none; stroke: #000000; stroke-width: 0.8; stroke-linejoin: miter; stroke-linecap: square"/>
   </g>
   <g id="text_13">
    <!-- Average across comparisons -->
    <g transform="translate(59.309484 13.27875) scale(0.08 -0.08)">
     <defs>
      <path id="DejaVuSans-70" d="M 1159 525 
L 1159 -1331 
L 581 -1331 
L 581 3500 
L 1159 3500 
L 1159 2969 
Q 1341 3281 1617 3432 
Q 1894 3584 2278 3584 
Q 2916 3584 3314 3078 
Q 3713 2572 3713 1747 
Q 3713 922 3314 415 
Q 2916 -91 2278 -91 
Q 1894 -91 1617 61 
Q 1341 213 1159 525 
z
M 3116 1747 
Q 3116 2381 2855 2742 
Q 2594 3103 2138 3103 
Q 1681 3103 1420 2742 
Q 1159 2381 1159 1747 
Q 1159 1113 1420 752 
Q 1681 391 2138 391 
Q 2594 391 2855 752 
Q 3116 1113 3116 1747 
z
" transform="scale(0.015625)"/>
     </defs>
     <use xlink:href="#DejaVuSans-41"/>
     <use xlink:href="#DejaVuSans-76" x="62.533203"/>
     <use xlink:href="#DejaVuSans-65" x="121.712891"/>
     <use xlink:href="#DejaVuSans-72" x="183.236328"/>
     <use xlink:href="#DejaVuSans-61" x="224.349609"/>
     <use xlink:href="#DejaVuSans-67" x="285.628906"/>
     <use xlink:href="#DejaVuSans-65" x="349.105469"/>
     <use xlink:href="#DejaVuSans-20" x="410.628906"/>
     <use xlink:href="#DejaVuSans-61" x="442.416016"/>
     <use xlink:href="#DejaVuSans-63" x="503.695312"/>
     <use xlink:href="#DejaVuSans-72" x="558.675781"/>
     <use xlink:href="#DejaVuSans-6f" x="597.539062"/>
     <use xlink:href="#DejaVuSans-73" x="658.720703"/>
     <use xlink:href="#DejaVuSans-73" x="710.820312"/>
     <use xlink:href="#DejaVuSans-20" x="762.919922"/>
     <use xlink:href="#DejaVuSans-63" x="794.707031"/>
     <use xlink:href="#DejaVuSans-6f" x="849.6875"/>
     <use xlink:href="#DejaVuSans-6d" x="910.869141"/>
     <use xlink:href="#DejaVuSans-70" x="1008.28125"/>
     <use xlink:href="#DejaVuSans-61" x="1071.757812"/>
     <use xlink:href="#DejaVuSans-72" x="1133.037109"/>
     <use xlink:href="#DejaVuSans-69" x="1174.150391"/>
     <use xlink:href="#DejaVuSans-73" x="1201.933594"/>
     <use xlink:href="#DejaVuSans-6f" x="1254.033203"/>
     <use xlink:href="#DejaVuSans-6e" x="1315.214844"/>
     <use xlink:href="#DejaVuSans-73" x="1378.59375"/>
    </g>
   </g>
   <g id="legend_1">
    <g id="line2d_13">
     <path d="M 129.445842 27.137812 
L 135.445842 27.137812 
L 141.445842 27.137812 
" style="fill: none; stroke: #800080; stroke-width: 0.75; stroke-linecap: square"/>
    </g>
    <g id="text_14">
     <!-- dESI -->
     <g transform="translate(146.245842 29.237812) scale(0.06 -0.06)">
      <defs>
       <path id="DejaVuSans-45" d="M 628 4666 
L 3578 4666 
L 3578 4134 
L 1259 4134 
L 1259 2753 
L 3481 2753 
L 3481 2222 
L 1259 2222 
L 1259 531 
L 3634 531 
L 3634 0 
L 628 0 
L 628 4666 
z
" transform="scale(0.015625)"/>
       <path id="DejaVuSans-53" d="M 3425 4513 
L 3425 3897 
Q 3066 4069 2747 4153 
Q 2428 4238 2131 4238 
Q 1616 4238 1336 4038 
Q 1056 3838 1056 3469 
Q 1056 3159 1242 3001 
Q 1428 2844 1947 2747 
L 2328 2669 
Q 3034 2534 3370 2195 
Q 3706 1856 3706 1288 
Q 3706 609 3251 259 
Q 2797 -91 1919 -91 
Q 1588 -91 1214 -16 
Q 841 59 441 206 
L 441 856 
Q 825 641 1194 531 
Q 1563 422 1919 422 
Q 2459 422 2753 634 
Q 3047 847 3047 1241 
Q 3047 1584 2836 1778 
Q 2625 1972 2144 2069 
L 1759 2144 
Q 1053 2284 737 2584 
Q 422 2884 422 3419 
Q 422 4038 858 4394 
Q 1294 4750 2059 4750 
Q 2388 4750 2728 4690 
Q 3069 4631 3425 4513 
z
" transform="scale(0.015625)"/>
       <path id="DejaVuSans-49" d="M 628 4666 
L 1259 4666 
L 1259 0 
L 628 0 
L 628 4666 
z
" transform="scale(0.015625)"/>
      </defs>
      <use xlink:href="#DejaVuSans-64"/>
      <use xlink:href="#DejaVuSans-45" x="63.476562"/>
      <use xlink:href="#DejaVuSans-53" x="126.660156"/>
      <use xlink:href="#DejaVuSans-49" x="190.136719"/>
     </g>
    </g>
    <g id="line2d_14">
     <path d="M 129.445842 35.944687 
L 135.445842 35.944687 
L 141.445842 35.944687 
" style="fill: none; stroke: #808080; stroke-width: 0.75; stroke-linecap: square"/>
    </g>
    <g id="text_15">
     <!-- Vector angle -->
     <g transform="translate(146.245842 38.044687) scale(0.06 -0.06)">
      <defs>
       <path id="DejaVuSans-56" d="M 1831 0 
L 50 4666 
L 709 4666 
L 2188 738 
L 3669 4666 
L 4325 4666 
L 2547 0 
L 1831 0 
z
" transform="scale(0.015625)"/>
      </defs>
      <use xlink:href="#DejaVuSans-56"/>
      <use xlink:href="#DejaVuSans-65" x="60.658203"/>
      <use xlink:href="#DejaVuSans-63" x="122.181641"/>
      <use xlink:href="#DejaVuSans-74" x="177.162109"/>
      <use xlink:href="#DejaVuSans-6f" x="216.371094"/>
      <use xlink:href="#DejaVuSans-72" x="277.552734"/>
      <use xlink:href="#DejaVuSans-20" x="318.666016"/>
      <use xlink:href="#DejaVuSans-61" x="350.453125"/>
      <use xlink:href="#DejaVuSans-6e" x="411.732422"/>
      <use xlink:href="#DejaVuSans-67" x="475.111328"/>
      <use xlink:href="#DejaVuSans-6c" x="538.587891"/>
      <use xlink:href="#DejaVuSans-65" x="566.371094"/>
     </g>
    </g>
   </g>
  </g>
  <g id="axes_2">
   <g id="patch_5">
    <path d="M 232.989783 88.57875 
L 378.555 88.57875 
L 378.555 19.27875 
L 232.989783 19.27875 
z
" style="fill: #ffffff"/>
   </g>
   <g id="PolyCollection_3">
    <path d="M 239.606383 77.621138 
L 239.606383 77.621138 
L 242.613929 78.783575 
L 245.621475 77.687219 
L 248.629021 76.099471 
L 251.636567 77.299669 
L 254.644112 70.87088 
L 257.651658 72.110839 
L 260.659204 71.66566 
L 263.66675 76.893494 
L 266.674296 74.683 
L 269.681842 65.320018 
L 272.689387 66.063524 
L 275.696933 64.997976 
L 278.704479 66.531428 
L 281.712025 69.910841 
L 284.719571 58.706211 
L 287.727116 59.514271 
L 290.734662 58.434576 
L 293.742208 68.662391 
L 296.749754 62.660726 
L 299.7573 53.104139 
L 302.764845 56.054285 
L 305.772391 62.016979 
L 308.779937 46.690337 
L 311.787483 55.098201 
L 314.795029 49.576396 
L 317.802575 59.473298 
L 320.81012 48.769468 
L 323.817666 41.59677 
L 326.825212 53.203625 
L 329.832758 42.473692 
L 332.840304 37.779175 
L 335.847849 48.595681 
L 338.855395 32.766029 
L 341.862941 42.556105 
L 344.870487 42.812824 
L 347.878033 30.829967 
L 350.885579 36.448223 
L 353.893124 25.814702 
L 356.90067 36.960544 
L 359.908216 30.9828 
L 362.915762 24.918007 
L 365.923308 19.872297 
L 368.930853 19.541314 
L 371.938399 14.48659 
L 371.938399 14.48659 
L 371.938399 33.919915 
L 368.930853 38.4218 
L 365.923308 36.918134 
L 362.915762 41.428936 
L 359.908216 48.678726 
L 356.90067 54.039713 
L 353.893124 41.224715 
L 350.885579 51.597113 
L 347.878033 45.765923 
L 344.870487 59.227914 
L 341.862941 56.833343 
L 338.855395 46.92408 
L 335.847849 61.855093 
L 332.840304 51.467536 
L 329.832758 55.8206 
L 326.825212 68.546022 
L 323.817666 53.969298 
L 320.81012 60.868987 
L 317.802575 70.698466 
L 314.795029 61.368739 
L 311.787483 65.602472 
L 308.779937 58.432282 
L 305.772391 75.520215 
L 302.764845 66.234945 
L 299.7573 62.23912 
L 296.749754 70.690669 
L 293.742208 77.351039 
L 290.734662 66.465258 
L 287.727116 66.891215 
L 284.719571 68.114824 
L 281.712025 80.224488 
L 278.704479 73.936535 
L 275.696933 70.964084 
L 272.689387 71.686095 
L 269.681842 72.845127 
L 266.674296 78.445596 
L 263.66675 81.772603 
L 260.659204 75.64052 
L 257.651658 77.116509 
L 254.644112 75.727369 
L 251.636567 83.094202 
L 248.629021 80.222827 
L 245.621475 79.973227 
L 242.613929 80.664422 
L 239.606383 80.321219 
z
" clip-path="url(#pd127db848f)" style="fill: #3b4cc0; fill-opacity: 0.2"/>
   </g>
   <g id="PolyCollection_4">
    <path d="M 239.606383 78.67371 
L 239.606383 78.67371 
L 242.613929 80.500718 
L 245.621475 77.186449 
L 248.629021 77.08446 
L 251.636567 76.016853 
L 254.644112 71.396803 
L 257.651658 75.191628 
L 260.659204 64.414531 
L 263.66675 76.953856 
L 266.674296 76.59111 
L 269.681842 69.438519 
L 272.689387 62.93958 
L 275.696933 57.824945 
L 278.704479 69.303307 
L 281.712025 68.720966 
L 284.719571 62.324453 
L 287.727116 56.708917 
L 290.734662 52.502781 
L 293.742208 69.735591 
L 296.749754 67.411461 
L 299.7573 51.553795 
L 302.764845 61.802669 
L 305.772391 61.903526 
L 308.779937 44.127473 
L 311.787483 60.344884 
L 314.795029 54.880552 
L 317.802575 62.251687 
L 320.81012 54.897075 
L 323.817666 43.235569 
L 326.825212 54.808063 
L 329.832758 48.189019 
L 332.840304 37.197742 
L 335.847849 53.570661 
L 338.855395 36.168872 
L 341.862941 48.2747 
L 344.870487 46.474367 
L 347.878033 30.812347 
L 350.885579 41.73532 
L 353.893124 29.551405 
L 356.90067 41.301296 
L 359.908216 34.884926 
L 362.915762 24.521285 
L 365.923308 23.085376 
L 368.930853 17.694109 
L 371.938399 16.153584 
L 371.938399 16.153584 
L 371.938399 37.167181 
L 368.930853 38.592836 
L 365.923308 40.478903 
L 362.915762 42.009126 
L 359.908216 53.480371 
L 356.90067 59.018823 
L 353.893124 44.250448 
L 350.885579 56.8735 
L 347.878033 45.955588 
L 344.870487 63.489235 
L 341.862941 62.288865 
L 338.855395 48.496843 
L 335.847849 66.651851 
L 332.840304 50.445873 
L 329.832758 60.662469 
L 326.825212 70.358147 
L 323.817666 53.746906 
L 320.81012 65.909143 
L 317.802575 73.1968 
L 314.795029 64.881546 
L 311.787483 70.123024 
L 308.779937 55.832933 
L 305.772391 75.523085 
L 302.764845 69.914112 
L 299.7573 60.700726 
L 296.749754 73.967443 
L 293.742208 78.036588 
L 290.734662 62.729738 
L 287.727116 65.214035 
L 284.719571 69.769533 
L 281.712025 79.595383 
L 278.704479 76.426309 
L 275.696933 67.075949 
L 272.689387 70.953142 
L 269.681842 74.623875 
L 266.674296 80.06228 
L 263.66675 81.734491 
L 260.659204 72.456137 
L 257.651658 78.532901 
L 254.644112 75.969537 
L 251.636567 82.578022 
L 248.629021 80.981723 
L 245.621475 79.848304 
L 242.613929 85.525894 
L 239.606383 80.662387 
z
" clip-path="url(#pd127db848f)" style="fill: #5d7ce6; fill-opacity: 0.2"/>
   </g>
   <g id="matplotlib.axis_3">
    <g id="xtick_7">
     <g id="line2d_15">
      <g>
       <use xlink:href="#mb71425866a" x="240.508647" y="88.57875" style="stroke: #000000; stroke-width: 0.8"/>
      </g>
     </g>
     <g id="text_16">
      <!-- 0.02 -->
      <g transform="translate(242.716147 113.39125) rotate(-90) scale(0.08 -0.08)">
       <use xlink:href="#DejaVuSans-30"/>
       <use xlink:href="#DejaVuSans-2e" x="63.623047"/>
       <use xlink:href="#DejaVuSans-30" x="95.410156"/>
       <use xlink:href="#DejaVuSans-32" x="159.033203"/>
      </g>
     </g>
    </g>
    <g id="xtick_8">
     <g id="line2d_16">
      <g>
       <use xlink:href="#mb71425866a" x="255.546376" y="88.57875" style="stroke: #000000; stroke-width: 0.8"/>
      </g>
     </g>
     <g id="text_17">
      <!-- 0.05 -->
      <g transform="translate(257.753876 113.39125) rotate(-90) scale(0.08 -0.08)">
       <use xlink:href="#DejaVuSans-30"/>
       <use xlink:href="#DejaVuSans-2e" x="63.623047"/>
       <use xlink:href="#DejaVuSans-30" x="95.410156"/>
       <use xlink:href="#DejaVuSans-35" x="159.033203"/>
      </g>
     </g>
    </g>
    <g id="xtick_9">
     <g id="line2d_17">
      <g>
       <use xlink:href="#mb71425866a" x="270.584105" y="88.57875" style="stroke: #000000; stroke-width: 0.8"/>
      </g>
     </g>
     <g id="text_18">
      <!-- 0.08 -->
      <g transform="translate(272.791605 113.39125) rotate(-90) scale(0.08 -0.08)">
       <defs>
        <path id="DejaVuSans-38" d="M 2034 2216 
Q 1584 2216 1326 1975 
Q 1069 1734 1069 1313 
Q 1069 891 1326 650 
Q 1584 409 2034 409 
Q 2484 409 2743 651 
Q 3003 894 3003 1313 
Q 3003 1734 2745 1975 
Q 2488 2216 2034 2216 
z
M 1403 2484 
Q 997 2584 770 2862 
Q 544 3141 544 3541 
Q 544 4100 942 4425 
Q 1341 4750 2034 4750 
Q 2731 4750 3128 4425 
Q 3525 4100 3525 3541 
Q 3525 3141 3298 2862 
Q 3072 2584 2669 2484 
Q 3125 2378 3379 2068 
Q 3634 1759 3634 1313 
Q 3634 634 3220 271 
Q 2806 -91 2034 -91 
Q 1263 -91 848 271 
Q 434 634 434 1313 
Q 434 1759 690 2068 
Q 947 2378 1403 2484 
z
M 1172 3481 
Q 1172 3119 1398 2916 
Q 1625 2713 2034 2713 
Q 2441 2713 2670 2916 
Q 2900 3119 2900 3481 
Q 2900 3844 2670 4047 
Q 2441 4250 2034 4250 
Q 1625 4250 1398 4047 
Q 1172 3844 1172 3481 
z
" transform="scale(0.015625)"/>
       </defs>
       <use xlink:href="#DejaVuSans-30"/>
       <use xlink:href="#DejaVuSans-2e" x="63.623047"/>
       <use xlink:href="#DejaVuSans-30" x="95.410156"/>
       <use xlink:href="#DejaVuSans-38" x="159.033203"/>
      </g>
     </g>
    </g>
    <g id="xtick_10">
     <g id="line2d_18">
      <g>
       <use xlink:href="#mb71425866a" x="285.621834" y="88.57875" style="stroke: #000000; stroke-width: 0.8"/>
      </g>
     </g>
     <g id="text_19">
      <!-- 0.11 -->
      <g transform="translate(287.829334 113.39125) rotate(-90) scale(0.08 -0.08)">
       <use xlink:href="#DejaVuSans-30"/>
       <use xlink:href="#DejaVuSans-2e" x="63.623047"/>
       <use xlink:href="#DejaVuSans-31" x="95.410156"/>
       <use xlink:href="#DejaVuSans-31" x="159.033203"/>
      </g>
     </g>
    </g>
    <g id="xtick_11">
     <g id="line2d_19">
      <g>
       <use xlink:href="#mb71425866a" x="300.659563" y="88.57875" style="stroke: #000000; stroke-width: 0.8"/>
      </g>
     </g>
     <g id="text_20">
      <!-- 0.14 -->
      <g transform="translate(302.867063 113.39125) rotate(-90) scale(0.08 -0.08)">
       <defs>
        <path id="DejaVuSans-34" d="M 2419 4116 
L 825 1625 
L 2419 1625 
L 2419 4116 
z
M 2253 4666 
L 3047 4666 
L 3047 1625 
L 3713 1625 
L 3713 1100 
L 3047 1100 
L 3047 0 
L 2419 0 
L 2419 1100 
L 313 1100 
L 313 1709 
L 2253 4666 
z
" transform="scale(0.015625)"/>
       </defs>
       <use xlink:href="#DejaVuSans-30"/>
       <use xlink:href="#DejaVuSans-2e" x="63.623047"/>
       <use xlink:href="#DejaVuSans-31" x="95.410156"/>
       <use xlink:href="#DejaVuSans-34" x="159.033203"/>
      </g>
     </g>
    </g>
    <g id="xtick_12">
     <g id="line2d_20">
      <g>
       <use xlink:href="#mb71425866a" x="315.697292" y="88.57875" style="stroke: #000000; stroke-width: 0.8"/>
      </g>
     </g>
     <g id="text_21">
      <!-- 0.18 -->
      <g transform="translate(317.904792 113.39125) rotate(-90) scale(0.08 -0.08)">
       <use xlink:href="#DejaVuSans-30"/>
       <use xlink:href="#DejaVuSans-2e" x="63.623047"/>
       <use xlink:href="#DejaVuSans-31" x="95.410156"/>
       <use xlink:href="#DejaVuSans-38" x="159.033203"/>
      </g>
     </g>
    </g>
    <g id="xtick_13">
     <g id="line2d_21">
      <g>
       <use xlink:href="#mb71425866a" x="330.735022" y="88.57875" style="stroke: #000000; stroke-width: 0.8"/>
      </g>
     </g>
     <g id="text_22">
      <!-- 0.21 -->
      <g transform="translate(332.942522 113.39125) rotate(-90) scale(0.08 -0.08)">
       <use xlink:href="#DejaVuSans-30"/>
       <use xlink:href="#DejaVuSans-2e" x="63.623047"/>
       <use xlink:href="#DejaVuSans-32" x="95.410156"/>
       <use xlink:href="#DejaVuSans-31" x="159.033203"/>
      </g>
     </g>
    </g>
    <g id="xtick_14">
     <g id="line2d_22">
      <g>
       <use xlink:href="#mb71425866a" x="345.772751" y="88.57875" style="stroke: #000000; stroke-width: 0.8"/>
      </g>
     </g>
     <g id="text_23">
      <!-- 0.24 -->
      <g transform="translate(347.980251 113.39125) rotate(-90) scale(0.08 -0.08)">
       <use xlink:href="#DejaVuSans-30"/>
       <use xlink:href="#DejaVuSans-2e" x="63.623047"/>
       <use xlink:href="#DejaVuSans-32" x="95.410156"/>
       <use xlink:href="#DejaVuSans-34" x="159.033203"/>
      </g>
     </g>
    </g>
    <g id="xtick_15">
     <g id="line2d_23">
      <g>
       <use xlink:href="#mb71425866a" x="360.81048" y="88.57875" style="stroke: #000000; stroke-width: 0.8"/>
      </g>
     </g>
     <g id="text_24">
      <!-- 0.27 -->
      <g transform="translate(363.01798 113.39125) rotate(-90) scale(0.08 -0.08)">
       <use xlink:href="#DejaVuSans-30"/>
       <use xlink:href="#DejaVuSans-2e" x="63.623047"/>
       <use xlink:href="#DejaVuSans-32" x="95.410156"/>
       <use xlink:href="#DejaVuSans-37" x="159.033203"/>
      </g>
     </g>
    </g>
    <g id="xtick_16">
     <g id="line2d_24">
      <g>
       <use xlink:href="#mb71425866a" x="374.344436" y="88.57875" style="stroke: #000000; stroke-width: 0.8"/>
      </g>
     </g>
     <g id="text_25">
      <!-- 0.3 -->
      <g transform="translate(376.551936 108.30125) rotate(-90) scale(0.08 -0.08)">
       <defs>
        <path id="DejaVuSans-33" d="M 2597 2516 
Q 3050 2419 3304 2112 
Q 3559 1806 3559 1356 
Q 3559 666 3084 287 
Q 2609 -91 1734 -91 
Q 1441 -91 1130 -33 
Q 819 25 488 141 
L 488 750 
Q 750 597 1062 519 
Q 1375 441 1716 441 
Q 2309 441 2620 675 
Q 2931 909 2931 1356 
Q 2931 1769 2642 2001 
Q 2353 2234 1838 2234 
L 1294 2234 
L 1294 2753 
L 1863 2753 
Q 2328 2753 2575 2939 
Q 2822 3125 2822 3475 
Q 2822 3834 2567 4026 
Q 2313 4219 1838 4219 
Q 1578 4219 1281 4162 
Q 984 4106 628 3988 
L 628 4550 
Q 988 4650 1302 4700 
Q 1616 4750 1894 4750 
Q 2613 4750 3031 4423 
Q 3450 4097 3450 3541 
Q 3450 3153 3228 2886 
Q 3006 2619 2597 2516 
z
" transform="scale(0.015625)"/>
       </defs>
       <use xlink:href="#DejaVuSans-30"/>
       <use xlink:href="#DejaVuSans-2e" x="63.623047"/>
       <use xlink:href="#DejaVuSans-33" x="95.410156"/>
      </g>
     </g>
    </g>
    <g id="text_26">
     <!-- SF difference (absolute) -->
     <g transform="translate(257.931766 123.47) scale(0.08 -0.08)">
      <defs>
       <path id="DejaVuSans-46" d="M 628 4666 
L 3309 4666 
L 3309 4134 
L 1259 4134 
L 1259 2759 
L 3109 2759 
L 3109 2228 
L 1259 2228 
L 1259 0 
L 628 0 
L 628 4666 
z
" transform="scale(0.015625)"/>
       <path id="DejaVuSans-66" d="M 2375 4863 
L 2375 4384 
L 1825 4384 
Q 1516 4384 1395 4259 
Q 1275 4134 1275 3809 
L 1275 3500 
L 2222 3500 
L 2222 3053 
L 1275 3053 
L 1275 0 
L 697 0 
L 697 3053 
L 147 3053 
L 147 3500 
L 697 3500 
L 697 3744 
Q 697 4328 969 4595 
Q 1241 4863 1831 4863 
L 2375 4863 
z
" transform="scale(0.015625)"/>
       <path id="DejaVuSans-62" d="M 3116 1747 
Q 3116 2381 2855 2742 
Q 2594 3103 2138 3103 
Q 1681 3103 1420 2742 
Q 1159 2381 1159 1747 
Q 1159 1113 1420 752 
Q 1681 391 2138 391 
Q 2594 391 2855 752 
Q 3116 1113 3116 1747 
z
M 1159 2969 
Q 1341 3281 1617 3432 
Q 1894 3584 2278 3584 
Q 2916 3584 3314 3078 
Q 3713 2572 3713 1747 
Q 3713 922 3314 415 
Q 2916 -91 2278 -91 
Q 1894 -91 1617 61 
Q 1341 213 1159 525 
L 1159 0 
L 581 0 
L 581 4863 
L 1159 4863 
L 1159 2969 
z
" transform="scale(0.015625)"/>
       <path id="DejaVuSans-75" d="M 544 1381 
L 544 3500 
L 1119 3500 
L 1119 1403 
Q 1119 906 1312 657 
Q 1506 409 1894 409 
Q 2359 409 2629 706 
Q 2900 1003 2900 1516 
L 2900 3500 
L 3475 3500 
L 3475 0 
L 2900 0 
L 2900 538 
Q 2691 219 2414 64 
Q 2138 -91 1772 -91 
Q 1169 -91 856 284 
Q 544 659 544 1381 
z
M 1991 3584 
L 1991 3584 
z
" transform="scale(0.015625)"/>
      </defs>
      <use xlink:href="#DejaVuSans-53"/>
      <use xlink:href="#DejaVuSans-46" x="63.476562"/>
      <use xlink:href="#DejaVuSans-20" x="120.996094"/>
      <use xlink:href="#DejaVuSans-64" x="152.783203"/>
      <use xlink:href="#DejaVuSans-69" x="216.259766"/>
      <use xlink:href="#DejaVuSans-66" x="244.042969"/>
      <use xlink:href="#DejaVuSans-66" x="279.248047"/>
      <use xlink:href="#DejaVuSans-65" x="314.453125"/>
      <use xlink:href="#DejaVuSans-72" x="375.976562"/>
      <use xlink:href="#DejaVuSans-65" x="414.839844"/>
      <use xlink:href="#DejaVuSans-6e" x="476.363281"/>
      <use xlink:href="#DejaVuSans-63" x="539.742188"/>
      <use xlink:href="#DejaVuSans-65" x="594.722656"/>
      <use xlink:href="#DejaVuSans-20" x="656.246094"/>
      <use xlink:href="#DejaVuSans-28" x="688.033203"/>
      <use xlink:href="#DejaVuSans-61" x="727.046875"/>
      <use xlink:href="#DejaVuSans-62" x="788.326172"/>
      <use xlink:href="#DejaVuSans-73" x="851.802734"/>
      <use xlink:href="#DejaVuSans-6f" x="903.902344"/>
      <use xlink:href="#DejaVuSans-6c" x="965.083984"/>
      <use xlink:href="#DejaVuSans-75" x="992.867188"/>
      <use xlink:href="#DejaVuSans-74" x="1056.246094"/>
      <use xlink:href="#DejaVuSans-65" x="1095.455078"/>
      <use xlink:href="#DejaVuSans-29" x="1156.978516"/>
     </g>
    </g>
   </g>
   <g id="matplotlib.axis_4">
    <g id="ytick_5">
     <g id="line2d_25">
      <g>
       <use xlink:href="#m93d193fe59" x="232.989783" y="84.502279" style="stroke: #000000; stroke-width: 0.8"/>
      </g>
     </g>
     <g id="text_27">
      <!-- 0.0 -->
      <g transform="translate(213.267283 87.541654) scale(0.08 -0.08)">
       <use xlink:href="#DejaVuSans-30"/>
       <use xlink:href="#DejaVuSans-2e" x="63.623047"/>
       <use xlink:href="#DejaVuSans-30" x="95.410156"/>
      </g>
     </g>
    </g>
    <g id="ytick_6">
     <g id="line2d_26">
      <g>
       <use xlink:href="#m93d193fe59" x="232.989783" y="64.119926" style="stroke: #000000; stroke-width: 0.8"/>
      </g>
     </g>
     <g id="text_28">
      <!-- 0.5 -->
      <g transform="translate(213.267283 67.159301) scale(0.08 -0.08)">
       <use xlink:href="#DejaVuSans-30"/>
       <use xlink:href="#DejaVuSans-2e" x="63.623047"/>
       <use xlink:href="#DejaVuSans-35" x="95.410156"/>
      </g>
     </g>
    </g>
    <g id="ytick_7">
     <g id="line2d_27">
      <g>
       <use xlink:href="#m93d193fe59" x="232.989783" y="43.737574" style="stroke: #000000; stroke-width: 0.8"/>
      </g>
     </g>
     <g id="text_29">
      <!-- 1.0 -->
      <g transform="translate(213.267283 46.776949) scale(0.08 -0.08)">
       <use xlink:href="#DejaVuSans-31"/>
       <use xlink:href="#DejaVuSans-2e" x="63.623047"/>
       <use xlink:href="#DejaVuSans-30" x="95.410156"/>
      </g>
     </g>
    </g>
    <g id="ytick_8">
     <g id="line2d_28">
      <g>
       <use xlink:href="#m93d193fe59" x="232.989783" y="23.355221" style="stroke: #000000; stroke-width: 0.8"/>
      </g>
     </g>
     <g id="text_30">
      <!-- 1.5 -->
      <g transform="translate(213.267283 26.394596) scale(0.08 -0.08)">
       <use xlink:href="#DejaVuSans-31"/>
       <use xlink:href="#DejaVuSans-2e" x="63.623047"/>
       <use xlink:href="#DejaVuSans-35" x="95.410156"/>
      </g>
     </g>
    </g>
    <g id="text_31">
     <!-- Vector angle (rad) -->
     <g transform="translate(207.603533 90.0725) rotate(-90) scale(0.08 -0.08)">
      <use xlink:href="#DejaVuSans-56"/>
      <use xlink:href="#DejaVuSans-65" x="60.658203"/>
      <use xlink:href="#DejaVuSans-63" x="122.181641"/>
      <use xlink:href="#DejaVuSans-74" x="177.162109"/>
      <use xlink:href="#DejaVuSans-6f" x="216.371094"/>
      <use xlink:href="#DejaVuSans-72" x="277.552734"/>
      <use xlink:href="#DejaVuSans-20" x="318.666016"/>
      <use xlink:href="#DejaVuSans-61" x="350.453125"/>
      <use xlink:href="#DejaVuSans-6e" x="411.732422"/>
      <use xlink:href="#DejaVuSans-67" x="475.111328"/>
      <use xlink:href="#DejaVuSans-6c" x="538.587891"/>
      <use xlink:href="#DejaVuSans-65" x="566.371094"/>
      <use xlink:href="#DejaVuSans-20" x="627.894531"/>
      <use xlink:href="#DejaVuSans-28" x="659.681641"/>
      <use xlink:href="#DejaVuSans-72" x="698.695312"/>
      <use xlink:href="#DejaVuSans-61" x="739.808594"/>
      <use xlink:href="#DejaVuSans-64" x="801.087891"/>
      <use xlink:href="#DejaVuSans-29" x="864.564453"/>
     </g>
    </g>
   </g>
   <g id="line2d_29">
    <path d="M 239.606383 78.971179 
L 242.613929 79.723999 
L 245.621475 78.830223 
L 248.629021 78.161149 
L 251.636567 80.196936 
L 254.644112 73.299125 
L 257.651658 74.613674 
L 260.659204 73.65309 
L 263.66675 79.333049 
L 266.674296 76.564298 
L 269.681842 69.082572 
L 272.689387 68.874809 
L 275.696933 67.98103 
L 278.704479 70.233981 
L 281.712025 75.067664 
L 284.719571 63.410517 
L 287.727116 63.202743 
L 290.734662 62.449917 
L 293.742208 73.006715 
L 296.749754 66.675698 
L 299.7573 57.671629 
L 302.764845 61.144615 
L 305.772391 68.768597 
L 308.779937 52.561309 
L 311.787483 60.350337 
L 314.795029 55.472567 
L 317.802575 65.085882 
L 320.81012 54.819228 
L 323.817666 47.783034 
L 326.825212 60.874824 
L 329.832758 49.147146 
L 332.840304 44.623354 
L 335.847849 55.225387 
L 338.855395 39.845055 
L 341.862941 49.694725 
L 344.870487 51.020369 
L 347.878033 38.297945 
L 350.885579 44.022668 
L 353.893124 33.519709 
L 356.90067 45.500128 
L 359.908216 39.830763 
L 362.915762 33.173472 
L 365.923308 28.395216 
L 368.930853 28.981557 
L 371.938399 24.203253 
" clip-path="url(#pd127db848f)" style="fill: none; stroke: #808080; stroke-width: 0.75; stroke-linecap: square"/>
   </g>
   <g id="line2d_30">
    <path d="M 239.606383 79.668048 
L 242.613929 83.013306 
L 245.621475 78.517376 
L 248.629021 79.033091 
L 251.636567 79.297437 
L 254.644112 73.68317 
L 257.651658 76.862265 
L 260.659204 68.435334 
L 263.66675 79.344173 
L 266.674296 78.326695 
L 269.681842 72.031197 
L 272.689387 66.946361 
L 275.696933 62.450447 
L 278.704479 72.864808 
L 281.712025 74.158175 
L 284.719571 66.046993 
L 287.727116 60.961476 
L 290.734662 57.61626 
L 293.742208 73.88609 
L 296.749754 70.689452 
L 299.7573 56.12726 
L 302.764845 65.85839 
L 305.772391 68.713305 
L 308.779937 49.980203 
L 311.787483 65.233953 
L 314.795029 59.881049 
L 317.802575 67.724244 
L 320.81012 60.403109 
L 323.817666 48.491238 
L 326.825212 62.583104 
L 329.832758 54.425744 
L 332.840304 43.821809 
L 335.847849 60.111255 
L 338.855395 42.332858 
L 341.862941 55.281782 
L 344.870487 54.981801 
L 347.878033 38.383968 
L 350.885579 49.30441 
L 353.893124 36.900927 
L 356.90067 50.160059 
L 359.908216 44.182648 
L 362.915762 33.265205 
L 365.923308 31.782139 
L 368.930853 28.143473 
L 371.938399 26.660382 
" clip-path="url(#pd127db848f)" style="fill: none; stroke: #800080; stroke-width: 0.75; stroke-linecap: square"/>
   </g>
   <g id="patch_6">
    <path d="M 232.989783 88.57875 
L 232.989783 19.27875 
" style="fill: none; stroke: #000000; stroke-width: 0.8; stroke-linejoin: miter; stroke-linecap: square"/>
   </g>
   <g id="patch_7">
    <path d="M 232.989783 88.57875 
L 378.555 88.57875 
" style="fill: none; stroke: #000000; stroke-width: 0.8; stroke-linejoin: miter; stroke-linecap: square"/>
   </g>
   <g id="text_32">
    <!-- $\mu$(PearsonR) = 0.95 -->
    <g transform="translate(248.629021 43.737574) scale(0.06 -0.06)">
     <defs>
      <path id="DejaVuSans-Oblique-3bc" d="M -84 -1331 
L 856 3500 
L 1434 3500 
L 1009 1322 
Q 997 1256 987 1175 
Q 978 1094 978 1013 
Q 978 722 1161 565 
Q 1344 409 1684 409 
Q 2147 409 2431 671 
Q 2716 934 2816 1459 
L 3213 3500 
L 3788 3500 
L 3266 809 
Q 3253 750 3248 706 
Q 3244 663 3244 628 
Q 3244 531 3283 486 
Q 3322 441 3406 441 
Q 3438 441 3492 456 
Q 3547 472 3647 513 
L 3559 50 
Q 3422 -19 3297 -55 
Q 3172 -91 3053 -91 
Q 2847 -91 2730 40 
Q 2613 172 2613 403 
Q 2438 153 2195 31 
Q 1953 -91 1625 -91 
Q 1334 -91 1117 43 
Q 900 178 831 397 
L 494 -1331 
L -84 -1331 
z
" transform="scale(0.015625)"/>
      <path id="DejaVuSans-50" d="M 1259 4147 
L 1259 2394 
L 2053 2394 
Q 2494 2394 2734 2622 
Q 2975 2850 2975 3272 
Q 2975 3691 2734 3919 
Q 2494 4147 2053 4147 
L 1259 4147 
z
M 628 4666 
L 2053 4666 
Q 2838 4666 3239 4311 
Q 3641 3956 3641 3272 
Q 3641 2581 3239 2228 
Q 2838 1875 2053 1875 
L 1259 1875 
L 1259 0 
L 628 0 
L 628 4666 
z
" transform="scale(0.015625)"/>
      <path id="DejaVuSans-52" d="M 2841 2188 
Q 3044 2119 3236 1894 
Q 3428 1669 3622 1275 
L 4263 0 
L 3584 0 
L 2988 1197 
Q 2756 1666 2539 1819 
Q 2322 1972 1947 1972 
L 1259 1972 
L 1259 0 
L 628 0 
L 628 4666 
L 2053 4666 
Q 2853 4666 3247 4331 
Q 3641 3997 3641 3322 
Q 3641 2881 3436 2590 
Q 3231 2300 2841 2188 
z
M 1259 4147 
L 1259 2491 
L 2053 2491 
Q 2509 2491 2742 2702 
Q 2975 2913 2975 3322 
Q 2975 3731 2742 3939 
Q 2509 4147 2053 4147 
L 1259 4147 
z
" transform="scale(0.015625)"/>
      <path id="DejaVuSans-3d" d="M 678 2906 
L 4684 2906 
L 4684 2381 
L 678 2381 
L 678 2906 
z
M 678 1631 
L 4684 1631 
L 4684 1100 
L 678 1100 
L 678 1631 
z
" transform="scale(0.015625)"/>
      <path id="DejaVuSans-39" d="M 703 97 
L 703 672 
Q 941 559 1184 500 
Q 1428 441 1663 441 
Q 2288 441 2617 861 
Q 2947 1281 2994 2138 
Q 2813 1869 2534 1725 
Q 2256 1581 1919 1581 
Q 1219 1581 811 2004 
Q 403 2428 403 3163 
Q 403 3881 828 4315 
Q 1253 4750 1959 4750 
Q 2769 4750 3195 4129 
Q 3622 3509 3622 2328 
Q 3622 1225 3098 567 
Q 2575 -91 1691 -91 
Q 1453 -91 1209 -44 
Q 966 3 703 97 
z
M 1959 2075 
Q 2384 2075 2632 2365 
Q 2881 2656 2881 3163 
Q 2881 3666 2632 3958 
Q 2384 4250 1959 4250 
Q 1534 4250 1286 3958 
Q 1038 3666 1038 3163 
Q 1038 2656 1286 2365 
Q 1534 2075 1959 2075 
z
" transform="scale(0.015625)"/>
     </defs>
     <use xlink:href="#DejaVuSans-Oblique-3bc" transform="translate(0 0.125)"/>
     <use xlink:href="#DejaVuSans-28" transform="translate(63.623047 0.125)"/>
     <use xlink:href="#DejaVuSans-50" transform="translate(102.636719 0.125)"/>
     <use xlink:href="#DejaVuSans-65" transform="translate(162.939453 0.125)"/>
     <use xlink:href="#DejaVuSans-61" transform="translate(224.462891 0.125)"/>
     <use xlink:href="#DejaVuSans-72" transform="translate(285.742188 0.125)"/>
     <use xlink:href="#DejaVuSans-73" transform="translate(326.855469 0.125)"/>
     <use xlink:href="#DejaVuSans-6f" transform="translate(378.955078 0.125)"/>
     <use xlink:href="#DejaVuSans-6e" transform="translate(440.136719 0.125)"/>
     <use xlink:href="#DejaVuSans-52" transform="translate(503.515625 0.125)"/>
     <use xlink:href="#DejaVuSans-29" transform="translate(572.998047 0.125)"/>
     <use xlink:href="#DejaVuSans-20" transform="translate(612.011719 0.125)"/>
     <use xlink:href="#DejaVuSans-3d" transform="translate(643.798828 0.125)"/>
     <use xlink:href="#DejaVuSans-20" transform="translate(727.587891 0.125)"/>
     <use xlink:href="#DejaVuSans-30" transform="translate(759.375 0.125)"/>
     <use xlink:href="#DejaVuSans-2e" transform="translate(822.998047 0.125)"/>
     <use xlink:href="#DejaVuSans-39" transform="translate(854.785156 0.125)"/>
     <use xlink:href="#DejaVuSans-35" transform="translate(918.408203 0.125)"/>
    </g>
   </g>
   <g id="text_33">
    <!-- Comparisons at max timepoint -->
    <g transform="translate(243.953016 13.27875) scale(0.08 -0.08)">
     <defs>
      <path id="DejaVuSans-43" d="M 4122 4306 
L 4122 3641 
Q 3803 3938 3442 4084 
Q 3081 4231 2675 4231 
Q 1875 4231 1450 3742 
Q 1025 3253 1025 2328 
Q 1025 1406 1450 917 
Q 1875 428 2675 428 
Q 3081 428 3442 575 
Q 3803 722 4122 1019 
L 4122 359 
Q 3791 134 3420 21 
Q 3050 -91 2638 -91 
Q 1578 -91 968 557 
Q 359 1206 359 2328 
Q 359 3453 968 4101 
Q 1578 4750 2638 4750 
Q 3056 4750 3426 4639 
Q 3797 4528 4122 4306 
z
" transform="scale(0.015625)"/>
      <path id="DejaVuSans-78" d="M 3513 3500 
L 2247 1797 
L 3578 0 
L 2900 0 
L 1881 1375 
L 863 0 
L 184 0 
L 1544 1831 
L 300 3500 
L 978 3500 
L 1906 2253 
L 2834 3500 
L 3513 3500 
z
" transform="scale(0.015625)"/>
     </defs>
     <use xlink:href="#DejaVuSans-43"/>
     <use xlink:href="#DejaVuSans-6f" x="69.824219"/>
     <use xlink:href="#DejaVuSans-6d" x="131.005859"/>
     <use xlink:href="#DejaVuSans-70" x="228.417969"/>
     <use xlink:href="#DejaVuSans-61" x="291.894531"/>
     <use xlink:href="#DejaVuSans-72" x="353.173828"/>
     <use xlink:href="#DejaVuSans-69" x="394.287109"/>
     <use xlink:href="#DejaVuSans-73" x="422.070312"/>
     <use xlink:href="#DejaVuSans-6f" x="474.169922"/>
     <use xlink:href="#DejaVuSans-6e" x="535.351562"/>
     <use xlink:href="#DejaVuSans-73" x="598.730469"/>
     <use xlink:href="#DejaVuSans-20" x="650.830078"/>
     <use xlink:href="#DejaVuSans-61" x="682.617188"/>
     <use xlink:href="#DejaVuSans-74" x="743.896484"/>
     <use xlink:href="#DejaVuSans-20" x="783.105469"/>
     <use xlink:href="#DejaVuSans-6d" x="814.892578"/>
     <use xlink:href="#DejaVuSans-61" x="912.304688"/>
     <use xlink:href="#DejaVuSans-78" x="973.583984"/>
     <use xlink:href="#DejaVuSans-20" x="1032.763672"/>
     <use xlink:href="#DejaVuSans-74" x="1064.550781"/>
     <use xlink:href="#DejaVuSans-69" x="1103.759766"/>
     <use xlink:href="#DejaVuSans-6d" x="1131.542969"/>
     <use xlink:href="#DejaVuSans-65" x="1228.955078"/>
     <use xlink:href="#DejaVuSans-70" x="1290.478516"/>
     <use xlink:href="#DejaVuSans-6f" x="1353.955078"/>
     <use xlink:href="#DejaVuSans-69" x="1415.136719"/>
     <use xlink:href="#DejaVuSans-6e" x="1442.919922"/>
     <use xlink:href="#DejaVuSans-74" x="1506.298828"/>
    </g>
   </g>
  </g>
 </g>
 <defs>
  <clipPath id="p016bdfe808">
   <rect x="43.755" y="19.27875" width="145.565217" height="69.3"/>
  </clipPath>
  <clipPath id="pd127db848f">
   <rect x="232.989783" y="19.27875" width="145.565217" height="69.3"/>
  </clipPath>
 </defs>
</svg>
