<?xml version="1.0" encoding="utf-8" standalone="no"?>
<!DOCTYPE svg PUBLIC "-//W3C//DTD SVG 1.1//EN"
  "http://www.w3.org/Graphics/SVG/1.1/DTD/svg11.dtd">
<svg xmlns:xlink="http://www.w3.org/1999/xlink" width="214.86375pt" height="274.72375pt" viewBox="0 0 214.86375 274.72375" xmlns="http://www.w3.org/2000/svg" version="1.1">
 <metadata>
  <rdf:RDF xmlns:dc="http://purl.org/dc/elements/1.1/" xmlns:cc="http://creativecommons.org/ns#" xmlns:rdf="http://www.w3.org/1999/02/22-rdf-syntax-ns#">
   <cc:Work>
    <dc:type rdf:resource="http://purl.org/dc/dcmitype/StillImage"/>
    <dc:date>2026-04-29T18:00:54.255338</dc:date>
    <dc:format>image/svg+xml</dc:format>
    <dc:creator>
     <cc:Agent>
      <dc:title>Matplotlib v3.9.4, https://matplotlib.org/</dc:title>
     </cc:Agent>
    </dc:creator>
   </cc:Work>
  </rdf:RDF>
 </metadata>
 <defs>
  <style type="text/css">*{stroke-linejoin: round; stroke-linecap: butt}</style>
 </defs>
 <g id="figure_1">
  <g id="patch_1">
   <path d="M 0 274.72375 
L 214.86375 274.72375 
L 214.86375 0 
L 0 0 
z
" style="fill: #ffffff"/>
  </g>
  <g id="axes_1">
   <g id="patch_2">
    <path d="M 38.665 77.636645 
L 206.065 77.636645 
L 206.065 19.27875 
L 38.665 19.27875 
z
" style="fill: #ffffff"/>
   </g>
   <g id="matplotlib.axis_1"/>
   <g id="matplotlib.axis_2">
    <g id="ytick_1">
     <g id="line2d_1">
      <defs>
       <path id="m97a0fc6659" d="M 0 0 
L -3.5 0 
" style="stroke: #000000; stroke-width: 0.8"/>
      </defs>
      <g>
       <use xlink:href="#m97a0fc6659" x="38.665" y="66.97514" style="stroke: #000000; stroke-width: 0.8"/>
      </g>
     </g>
     <g id="text_1">
      <!-- 0 -->
      <g transform="translate(26.575 70.014515) scale(0.08 -0.08)">
       <defs>
        <path id="DejaVuSans-30" d="M 2034 4250 
Q 1547 4250 1301 3770 
Q 1056 3291 1056 2328 
Q 1056 1369 1301 889 
Q 1547 409 2034 409 
Q 2525 409 2770 889 
Q 3016 1369 3016 2328 
Q 3016 3291 2770 3770 
Q 2525 4250 2034 4250 
z
M 2034 4750 
Q 2819 4750 3233 4129 
Q 3647 3509 3647 2328 
Q 3647 1150 3233 529 
Q 2819 -91 2034 -91 
Q 1250 -91 836 529 
Q 422 1150 422 2328 
Q 422 3509 836 4129 
Q 1250 4750 2034 4750 
z
" transform="scale(0.015625)"/>
       </defs>
       <use xlink:href="#DejaVuSans-30"/>
      </g>
     </g>
    </g>
    <g id="ytick_2">
     <g id="line2d_2">
      <g>
       <use xlink:href="#m97a0fc6659" x="38.665" y="40.466003" style="stroke: #000000; stroke-width: 0.8"/>
      </g>
     </g>
     <g id="text_2">
      <!-- 1 -->
      <g transform="translate(26.575 43.505378) scale(0.08 -0.08)">
       <defs>
        <path id="DejaVuSans-31" d="M 794 531 
L 1825 531 
L 1825 4091 
L 703 3866 
L 703 4441 
L 1819 4666 
L 2450 4666 
L 2450 531 
L 3481 531 
L 3481 0 
L 794 0 
L 794 531 
z
" transform="scale(0.015625)"/>
       </defs>
       <use xlink:href="#DejaVuSans-31"/>
      </g>
     </g>
    </g>
    <g id="text_3">
     <!-- Au -->
     <g transform="translate(20.91125 53.728947) rotate(-90) scale(0.08 -0.08)">
      <defs>
       <path id="DejaVuSans-41" d="M 2188 4044 
L 1331 1722 
L 3047 1722 
L 2188 4044 
z
M 1831 4666 
L 2547 4666 
L 4325 0 
L 3669 0 
L 3244 1197 
L 1141 1197 
L 716 0 
L 50 0 
L 1831 4666 
z
" transform="scale(0.015625)"/>
       <path id="DejaVuSans-75" d="M 544 1381 
L 544 3500 
L 1119 3500 
L 1119 1403 
Q 1119 906 1312 657 
Q 1506 409 1894 409 
Q 2359 409 2629 706 
Q 2900 1003 2900 1516 
L 2900 3500 
L 3475 3500 
L 3475 0 
L 2900 0 
L 2900 538 
Q 2691 219 2414 64 
Q 2138 -91 1772 -91 
Q 1169 -91 856 284 
Q 544 659 544 1381 
z
M 1991 3584 
L 1991 3584 
z
" transform="scale(0.015625)"/>
      </defs>
      <use xlink:href="#DejaVuSans-41"/>
      <use xlink:href="#DejaVuSans-75" x="68.408203"/>
     </g>
    </g>
   </g>
   <g id="line2d_3">
    <path d="M 46.274091 66.97514 
L 62.437691 66.864996 
L 63.962559 66.625569 
L 64.87748 66.289465 
L 65.7924 65.670363 
L 66.402347 65.015077 
L 67.012295 64.090125 
L 67.622242 62.822202 
L 68.232189 61.1373 
L 69.14711 57.691766 
L 70.06203 53.055088 
L 71.281925 45.23737 
L 73.721713 28.818179 
L 74.331661 25.921773 
L 74.941608 23.933119 
L 75.246581 23.314826 
L 75.551555 22.955095 
L 75.856529 22.852495 
L 76.161502 23.000127 
L 76.466476 23.385878 
L 77.076423 24.802112 
L 77.68637 26.931177 
L 78.601291 31.033732 
L 84.700762 60.988455 
L 85.920657 65.391266 
L 86.835578 67.909059 
L 87.750498 69.755793 
L 88.665419 71.048739 
L 89.58034 71.962725 
L 91.105208 73.08168 
L 93.240023 74.340824 
L 94.459917 74.805751 
L 95.374838 74.932052 
L 96.289759 74.829705 
L 97.204679 74.497921 
L 98.424574 73.750502 
L 99.949442 72.49934 
L 102.999177 69.903101 
L 104.524045 68.895326 
L 106.048913 68.15504 
L 107.573781 67.65612 
L 109.403623 67.300141 
L 111.843411 67.081353 
L 115.808068 66.98776 
L 133.801509 66.97514 
L 198.455909 66.97514 
L 198.455909 66.97514 
" clip-path="url(#p268c012998)" style="fill: none; stroke: #ff8c00; stroke-width: 0.5; stroke-linecap: square"/>
   </g>
   <g id="line2d_4">
    <path d="M 46.274091 66.97514 
L 62.132717 66.886021 
L 63.657585 66.690271 
L 64.572506 66.411049 
L 65.487427 65.887978 
L 66.097374 65.32575 
L 66.707321 64.521164 
L 67.317268 63.402074 
L 67.927215 61.892059 
L 68.537163 59.918887 
L 69.452083 55.975284 
L 70.367004 50.821109 
L 71.586898 42.460944 
L 73.41674 29.686326 
L 74.331661 24.99695 
L 74.941608 22.996654 
L 75.246581 22.379805 
L 75.551555 22.025484 
L 75.856529 21.931382 
L 76.161502 22.089546 
L 76.466476 22.486801 
L 77.076423 23.924154 
L 77.68637 26.064434 
L 78.601291 30.149864 
L 84.700762 59.697998 
L 85.920657 64.264921 
L 86.835578 66.946182 
L 87.750498 68.964432 
L 88.665419 70.417605 
L 89.58034 71.469335 
L 90.800234 72.53003 
L 92.630076 73.832811 
L 93.84997 74.519499 
L 94.764891 74.856113 
L 95.679811 74.984013 
L 96.594732 74.878505 
L 97.509653 74.544855 
L 98.729547 73.802657 
L 100.254415 72.570816 
L 103.304151 70.018624 
L 104.829019 69.017529 
L 106.353887 68.270582 
L 107.878755 67.755149 
L 109.708596 67.373575 
L 112.148385 67.122881 
L 115.808068 67.002965 
L 126.787117 66.975195 
L 198.455909 66.97514 
L 198.455909 66.97514 
" clip-path="url(#p268c012998)" style="fill: none; stroke: #000000; stroke-width: 0.5; stroke-linecap: square"/>
   </g>
   <g id="line2d_5">
    <path d="M 46.274091 66.97514 
L 67.317268 66.873469 
L 70.06203 66.587275 
L 74.331661 66.050314 
L 76.771449 66.087309 
L 78.906264 66.074568 
L 81.346053 65.793372 
L 83.480868 65.626224 
L 85.005736 65.717337 
L 87.445525 66.127054 
L 90.495261 66.594442 
L 95.374838 67.009798 
L 100.254415 67.317297 
L 103.914098 67.296803 
L 117.637909 66.982194 
L 157.894422 66.97514 
L 198.455909 66.97514 
L 198.455909 66.97514 
" clip-path="url(#p268c012998)" style="fill: none; stroke: #800080; stroke-width: 0.5; stroke-linecap: square"/>
   </g>
   <g id="line2d_6">
    <path d="M 46.274091 66.97514 
L 198.455909 66.97514 
L 198.455909 66.97514 
" clip-path="url(#p268c012998)" style="fill: none; stroke-dasharray: 1.85,0.8; stroke-dashoffset: 0; stroke: #000000; stroke-width: 0.5"/>
   </g>
   <g id="patch_3">
    <path d="M 38.665 77.636645 
L 38.665 19.27875 
" style="fill: none; stroke: #000000; stroke-width: 0.8; stroke-linejoin: miter; stroke-linecap: square"/>
   </g>
   <g id="patch_4">
    <path d="M 38.665 77.636645 
L 206.065 77.636645 
" style="fill: none; stroke: #000000; stroke-width: 0.8; stroke-linejoin: miter; stroke-linecap: square"/>
   </g>
   <g id="text_4">
    <!-- Frequency integrator response -->
    <g transform="translate(61.021875 13.27875) scale(0.08 -0.08)">
     <defs>
      <path id="DejaVuSans-46" d="M 628 4666 
L 3309 4666 
L 3309 4134 
L 1259 4134 
L 1259 2759 
L 3109 2759 
L 3109 2228 
L 1259 2228 
L 1259 0 
L 628 0 
L 628 4666 
z
" transform="scale(0.015625)"/>
      <path id="DejaVuSans-72" d="M 2631 2963 
Q 2534 3019 2420 3045 
Q 2306 3072 2169 3072 
Q 1681 3072 1420 2755 
Q 1159 2438 1159 1844 
L 1159 0 
L 581 0 
L 581 3500 
L 1159 3500 
L 1159 2956 
Q 1341 3275 1631 3429 
Q 1922 3584 2338 3584 
Q 2397 3584 2469 3576 
Q 2541 3569 2628 3553 
L 2631 2963 
z
" transform="scale(0.015625)"/>
      <path id="DejaVuSans-65" d="M 3597 1894 
L 3597 1613 
L 953 1613 
Q 991 1019 1311 708 
Q 1631 397 2203 397 
Q 2534 397 2845 478 
Q 3156 559 3463 722 
L 3463 178 
Q 3153 47 2828 -22 
Q 2503 -91 2169 -91 
Q 1331 -91 842 396 
Q 353 884 353 1716 
Q 353 2575 817 3079 
Q 1281 3584 2069 3584 
Q 2775 3584 3186 3129 
Q 3597 2675 3597 1894 
z
M 3022 2063 
Q 3016 2534 2758 2815 
Q 2500 3097 2075 3097 
Q 1594 3097 1305 2825 
Q 1016 2553 972 2059 
L 3022 2063 
z
" transform="scale(0.015625)"/>
      <path id="DejaVuSans-71" d="M 947 1747 
Q 947 1113 1208 752 
Q 1469 391 1925 391 
Q 2381 391 2643 752 
Q 2906 1113 2906 1747 
Q 2906 2381 2643 2742 
Q 2381 3103 1925 3103 
Q 1469 3103 1208 2742 
Q 947 2381 947 1747 
z
M 2906 525 
Q 2725 213 2448 61 
Q 2172 -91 1784 -91 
Q 1150 -91 751 415 
Q 353 922 353 1747 
Q 353 2572 751 3078 
Q 1150 3584 1784 3584 
Q 2172 3584 2448 3432 
Q 2725 3281 2906 2969 
L 2906 3500 
L 3481 3500 
L 3481 -1331 
L 2906 -1331 
L 2906 525 
z
" transform="scale(0.015625)"/>
      <path id="DejaVuSans-6e" d="M 3513 2113 
L 3513 0 
L 2938 0 
L 2938 2094 
Q 2938 2591 2744 2837 
Q 2550 3084 2163 3084 
Q 1697 3084 1428 2787 
Q 1159 2491 1159 1978 
L 1159 0 
L 581 0 
L 581 3500 
L 1159 3500 
L 1159 2956 
Q 1366 3272 1645 3428 
Q 1925 3584 2291 3584 
Q 2894 3584 3203 3211 
Q 3513 2838 3513 2113 
z
" transform="scale(0.015625)"/>
      <path id="DejaVuSans-63" d="M 3122 3366 
L 3122 2828 
Q 2878 2963 2633 3030 
Q 2388 3097 2138 3097 
Q 1578 3097 1268 2742 
Q 959 2388 959 1747 
Q 959 1106 1268 751 
Q 1578 397 2138 397 
Q 2388 397 2633 464 
Q 2878 531 3122 666 
L 3122 134 
Q 2881 22 2623 -34 
Q 2366 -91 2075 -91 
Q 1284 -91 818 406 
Q 353 903 353 1747 
Q 353 2603 823 3093 
Q 1294 3584 2113 3584 
Q 2378 3584 2631 3529 
Q 2884 3475 3122 3366 
z
" transform="scale(0.015625)"/>
      <path id="DejaVuSans-79" d="M 2059 -325 
Q 1816 -950 1584 -1140 
Q 1353 -1331 966 -1331 
L 506 -1331 
L 506 -850 
L 844 -850 
Q 1081 -850 1212 -737 
Q 1344 -625 1503 -206 
L 1606 56 
L 191 3500 
L 800 3500 
L 1894 763 
L 2988 3500 
L 3597 3500 
L 2059 -325 
z
" transform="scale(0.015625)"/>
      <path id="DejaVuSans-20" transform="scale(0.015625)"/>
      <path id="DejaVuSans-69" d="M 603 3500 
L 1178 3500 
L 1178 0 
L 603 0 
L 603 3500 
z
M 603 4863 
L 1178 4863 
L 1178 4134 
L 603 4134 
L 603 4863 
z
" transform="scale(0.015625)"/>
      <path id="DejaVuSans-74" d="M 1172 4494 
L 1172 3500 
L 2356 3500 
L 2356 3053 
L 1172 3053 
L 1172 1153 
Q 1172 725 1289 603 
Q 1406 481 1766 481 
L 2356 481 
L 2356 0 
L 1766 0 
Q 1100 0 847 248 
Q 594 497 594 1153 
L 594 3053 
L 172 3053 
L 172 3500 
L 594 3500 
L 594 4494 
L 1172 4494 
z
" transform="scale(0.015625)"/>
      <path id="DejaVuSans-67" d="M 2906 1791 
Q 2906 2416 2648 2759 
Q 2391 3103 1925 3103 
Q 1463 3103 1205 2759 
Q 947 2416 947 1791 
Q 947 1169 1205 825 
Q 1463 481 1925 481 
Q 2391 481 2648 825 
Q 2906 1169 2906 1791 
z
M 3481 434 
Q 3481 -459 3084 -895 
Q 2688 -1331 1869 -1331 
Q 1566 -1331 1297 -1286 
Q 1028 -1241 775 -1147 
L 775 -588 
Q 1028 -725 1275 -790 
Q 1522 -856 1778 -856 
Q 2344 -856 2625 -561 
Q 2906 -266 2906 331 
L 2906 616 
Q 2728 306 2450 153 
Q 2172 0 1784 0 
Q 1141 0 747 490 
Q 353 981 353 1791 
Q 353 2603 747 3093 
Q 1141 3584 1784 3584 
Q 2172 3584 2450 3431 
Q 2728 3278 2906 2969 
L 2906 3500 
L 3481 3500 
L 3481 434 
z
" transform="scale(0.015625)"/>
      <path id="DejaVuSans-61" d="M 2194 1759 
Q 1497 1759 1228 1600 
Q 959 1441 959 1056 
Q 959 750 1161 570 
Q 1363 391 1709 391 
Q 2188 391 2477 730 
Q 2766 1069 2766 1631 
L 2766 1759 
L 2194 1759 
z
M 3341 1997 
L 3341 0 
L 2766 0 
L 2766 531 
Q 2569 213 2275 61 
Q 1981 -91 1556 -91 
Q 1019 -91 701 211 
Q 384 513 384 1019 
Q 384 1609 779 1909 
Q 1175 2209 1959 2209 
L 2766 2209 
L 2766 2266 
Q 2766 2663 2505 2880 
Q 2244 3097 1772 3097 
Q 1472 3097 1187 3025 
Q 903 2953 641 2809 
L 641 3341 
Q 956 3463 1253 3523 
Q 1550 3584 1831 3584 
Q 2591 3584 2966 3190 
Q 3341 2797 3341 1997 
z
" transform="scale(0.015625)"/>
      <path id="DejaVuSans-6f" d="M 1959 3097 
Q 1497 3097 1228 2736 
Q 959 2375 959 1747 
Q 959 1119 1226 758 
Q 1494 397 1959 397 
Q 2419 397 2687 759 
Q 2956 1122 2956 1747 
Q 2956 2369 2687 2733 
Q 2419 3097 1959 3097 
z
M 1959 3584 
Q 2709 3584 3137 3096 
Q 3566 2609 3566 1747 
Q 3566 888 3137 398 
Q 2709 -91 1959 -91 
Q 1206 -91 779 398 
Q 353 888 353 1747 
Q 353 2609 779 3096 
Q 1206 3584 1959 3584 
z
" transform="scale(0.015625)"/>
      <path id="DejaVuSans-73" d="M 2834 3397 
L 2834 2853 
Q 2591 2978 2328 3040 
Q 2066 3103 1784 3103 
Q 1356 3103 1142 2972 
Q 928 2841 928 2578 
Q 928 2378 1081 2264 
Q 1234 2150 1697 2047 
L 1894 2003 
Q 2506 1872 2764 1633 
Q 3022 1394 3022 966 
Q 3022 478 2636 193 
Q 2250 -91 1575 -91 
Q 1294 -91 989 -36 
Q 684 19 347 128 
L 347 722 
Q 666 556 975 473 
Q 1284 391 1588 391 
Q 1994 391 2212 530 
Q 2431 669 2431 922 
Q 2431 1156 2273 1281 
Q 2116 1406 1581 1522 
L 1381 1569 
Q 847 1681 609 1914 
Q 372 2147 372 2553 
Q 372 3047 722 3315 
Q 1072 3584 1716 3584 
Q 2034 3584 2315 3537 
Q 2597 3491 2834 3397 
z
" transform="scale(0.015625)"/>
      <path id="DejaVuSans-70" d="M 1159 525 
L 1159 -1331 
L 581 -1331 
L 581 3500 
L 1159 3500 
L 1159 2969 
Q 1341 3281 1617 3432 
Q 1894 3584 2278 3584 
Q 2916 3584 3314 3078 
Q 3713 2572 3713 1747 
Q 3713 922 3314 415 
Q 2916 -91 2278 -91 
Q 1894 -91 1617 61 
Q 1341 213 1159 525 
z
M 3116 1747 
Q 3116 2381 2855 2742 
Q 2594 3103 2138 3103 
Q 1681 3103 1420 2742 
Q 1159 2381 1159 1747 
Q 1159 1113 1420 752 
Q 1681 391 2138 391 
Q 2594 391 2855 752 
Q 3116 1113 3116 1747 
z
" transform="scale(0.015625)"/>
     </defs>
     <use xlink:href="#DejaVuSans-46"/>
     <use xlink:href="#DejaVuSans-72" x="50.269531"/>
     <use xlink:href="#DejaVuSans-65" x="89.132812"/>
     <use xlink:href="#DejaVuSans-71" x="150.65625"/>
     <use xlink:href="#DejaVuSans-75" x="214.132812"/>
     <use xlink:href="#DejaVuSans-65" x="277.511719"/>
     <use xlink:href="#DejaVuSans-6e" x="339.035156"/>
     <use xlink:href="#DejaVuSans-63" x="402.414062"/>
     <use xlink:href="#DejaVuSans-79" x="457.394531"/>
     <use xlink:href="#DejaVuSans-20" x="516.574219"/>
     <use xlink:href="#DejaVuSans-69" x="548.361328"/>
     <use xlink:href="#DejaVuSans-6e" x="576.144531"/>
     <use xlink:href="#DejaVuSans-74" x="639.523438"/>
     <use xlink:href="#DejaVuSans-65" x="678.732422"/>
     <use xlink:href="#DejaVuSans-67" x="740.255859"/>
     <use xlink:href="#DejaVuSans-72" x="803.732422"/>
     <use xlink:href="#DejaVuSans-61" x="844.845703"/>
     <use xlink:href="#DejaVuSans-74" x="906.125"/>
     <use xlink:href="#DejaVuSans-6f" x="945.333984"/>
     <use xlink:href="#DejaVuSans-72" x="1006.515625"/>
     <use xlink:href="#DejaVuSans-20" x="1047.628906"/>
     <use xlink:href="#DejaVuSans-72" x="1079.416016"/>
     <use xlink:href="#DejaVuSans-65" x="1118.279297"/>
     <use xlink:href="#DejaVuSans-73" x="1179.802734"/>
     <use xlink:href="#DejaVuSans-70" x="1231.902344"/>
     <use xlink:href="#DejaVuSans-6f" x="1295.378906"/>
     <use xlink:href="#DejaVuSans-6e" x="1356.560547"/>
     <use xlink:href="#DejaVuSans-73" x="1419.939453"/>
     <use xlink:href="#DejaVuSans-65" x="1472.039062"/>
    </g>
   </g>
   <g id="legend_1">
    <g id="line2d_7">
     <path d="M 151.688125 27.137813 
L 157.688125 27.137813 
L 163.688125 27.137813 
" style="fill: none; stroke: #ff8c00; stroke-width: 0.5; stroke-linecap: square"/>
    </g>
    <g id="text_5">
     <!-- LPF image -->
     <g transform="translate(168.488125 29.237813) scale(0.06 -0.06)">
      <defs>
       <path id="DejaVuSans-4c" d="M 628 4666 
L 1259 4666 
L 1259 531 
L 3531 531 
L 3531 0 
L 628 0 
L 628 4666 
z
" transform="scale(0.015625)"/>
       <path id="DejaVuSans-50" d="M 1259 4147 
L 1259 2394 
L 2053 2394 
Q 2494 2394 2734 2622 
Q 2975 2850 2975 3272 
Q 2975 3691 2734 3919 
Q 2494 4147 2053 4147 
L 1259 4147 
z
M 628 4666 
L 2053 4666 
Q 2838 4666 3239 4311 
Q 3641 3956 3641 3272 
Q 3641 2581 3239 2228 
Q 2838 1875 2053 1875 
L 1259 1875 
L 1259 0 
L 628 0 
L 628 4666 
z
" transform="scale(0.015625)"/>
       <path id="DejaVuSans-6d" d="M 3328 2828 
Q 3544 3216 3844 3400 
Q 4144 3584 4550 3584 
Q 5097 3584 5394 3201 
Q 5691 2819 5691 2113 
L 5691 0 
L 5113 0 
L 5113 2094 
Q 5113 2597 4934 2840 
Q 4756 3084 4391 3084 
Q 3944 3084 3684 2787 
Q 3425 2491 3425 1978 
L 3425 0 
L 2847 0 
L 2847 2094 
Q 2847 2600 2669 2842 
Q 2491 3084 2119 3084 
Q 1678 3084 1418 2786 
Q 1159 2488 1159 1978 
L 1159 0 
L 581 0 
L 581 3500 
L 1159 3500 
L 1159 2956 
Q 1356 3278 1631 3431 
Q 1906 3584 2284 3584 
Q 2666 3584 2933 3390 
Q 3200 3197 3328 2828 
z
" transform="scale(0.015625)"/>
      </defs>
      <use xlink:href="#DejaVuSans-4c"/>
      <use xlink:href="#DejaVuSans-50" x="55.712891"/>
      <use xlink:href="#DejaVuSans-46" x="116.015625"/>
      <use xlink:href="#DejaVuSans-20" x="173.535156"/>
      <use xlink:href="#DejaVuSans-69" x="205.322266"/>
      <use xlink:href="#DejaVuSans-6d" x="233.105469"/>
      <use xlink:href="#DejaVuSans-61" x="330.517578"/>
      <use xlink:href="#DejaVuSans-67" x="391.796875"/>
      <use xlink:href="#DejaVuSans-65" x="455.273438"/>
     </g>
    </g>
    <g id="line2d_8">
     <path d="M 151.688125 35.944688 
L 157.688125 35.944688 
L 163.688125 35.944688 
" style="fill: none; stroke: #000000; stroke-width: 0.5; stroke-linecap: square"/>
    </g>
    <g id="text_6">
     <!-- FS image -->
     <g transform="translate(168.488125 38.044688) scale(0.06 -0.06)">
      <defs>
       <path id="DejaVuSans-53" d="M 3425 4513 
L 3425 3897 
Q 3066 4069 2747 4153 
Q 2428 4238 2131 4238 
Q 1616 4238 1336 4038 
Q 1056 3838 1056 3469 
Q 1056 3159 1242 3001 
Q 1428 2844 1947 2747 
L 2328 2669 
Q 3034 2534 3370 2195 
Q 3706 1856 3706 1288 
Q 3706 609 3251 259 
Q 2797 -91 1919 -91 
Q 1588 -91 1214 -16 
Q 841 59 441 206 
L 441 856 
Q 825 641 1194 531 
Q 1563 422 1919 422 
Q 2459 422 2753 634 
Q 3047 847 3047 1241 
Q 3047 1584 2836 1778 
Q 2625 1972 2144 2069 
L 1759 2144 
Q 1053 2284 737 2584 
Q 422 2884 422 3419 
Q 422 4038 858 4394 
Q 1294 4750 2059 4750 
Q 2388 4750 2728 4690 
Q 3069 4631 3425 4513 
z
" transform="scale(0.015625)"/>
      </defs>
      <use xlink:href="#DejaVuSans-46"/>
      <use xlink:href="#DejaVuSans-53" x="55.769531"/>
      <use xlink:href="#DejaVuSans-20" x="119.246094"/>
      <use xlink:href="#DejaVuSans-69" x="151.033203"/>
      <use xlink:href="#DejaVuSans-6d" x="178.816406"/>
      <use xlink:href="#DejaVuSans-61" x="276.228516"/>
      <use xlink:href="#DejaVuSans-67" x="337.507812"/>
      <use xlink:href="#DejaVuSans-65" x="400.984375"/>
     </g>
    </g>
    <g id="line2d_9">
     <path d="M 151.688125 44.751563 
L 157.688125 44.751563 
L 163.688125 44.751563 
" style="fill: none; stroke: #800080; stroke-width: 0.5; stroke-linecap: square"/>
    </g>
    <g id="text_7">
     <!-- HPF image -->
     <g transform="translate(168.488125 46.851563) scale(0.06 -0.06)">
      <defs>
       <path id="DejaVuSans-48" d="M 628 4666 
L 1259 4666 
L 1259 2753 
L 3553 2753 
L 3553 4666 
L 4184 4666 
L 4184 0 
L 3553 0 
L 3553 2222 
L 1259 2222 
L 1259 0 
L 628 0 
L 628 4666 
z
" transform="scale(0.015625)"/>
      </defs>
      <use xlink:href="#DejaVuSans-48"/>
      <use xlink:href="#DejaVuSans-50" x="75.195312"/>
      <use xlink:href="#DejaVuSans-46" x="135.498047"/>
      <use xlink:href="#DejaVuSans-20" x="193.017578"/>
      <use xlink:href="#DejaVuSans-69" x="224.804688"/>
      <use xlink:href="#DejaVuSans-6d" x="252.587891"/>
      <use xlink:href="#DejaVuSans-61" x="350"/>
      <use xlink:href="#DejaVuSans-67" x="411.279297"/>
      <use xlink:href="#DejaVuSans-65" x="474.755859"/>
     </g>
    </g>
   </g>
  </g>
  <g id="axes_2">
   <g id="patch_5">
    <path d="M 38.665 159.337697 
L 206.065 159.337697 
L 206.065 100.979803 
L 38.665 100.979803 
z
" style="fill: #ffffff"/>
   </g>
   <g id="matplotlib.axis_3"/>
   <g id="matplotlib.axis_4">
    <g id="ytick_3">
     <g id="line2d_10">
      <g>
       <use xlink:href="#m97a0fc6659" x="38.665" y="148.579484" style="stroke: #000000; stroke-width: 0.8"/>
      </g>
     </g>
     <g id="text_8">
      <!-- 0.0 -->
      <g transform="translate(18.9425 151.618859) scale(0.08 -0.08)">
       <defs>
        <path id="DejaVuSans-2e" d="M 684 794 
L 1344 794 
L 1344 0 
L 684 0 
L 684 794 
z
" transform="scale(0.015625)"/>
       </defs>
       <use xlink:href="#DejaVuSans-30"/>
       <use xlink:href="#DejaVuSans-2e" x="63.623047"/>
       <use xlink:href="#DejaVuSans-30" x="95.410156"/>
      </g>
     </g>
    </g>
    <g id="ytick_4">
     <g id="line2d_11">
      <g>
       <use xlink:href="#m97a0fc6659" x="38.665" y="120.519277" style="stroke: #000000; stroke-width: 0.8"/>
      </g>
     </g>
     <g id="text_9">
      <!-- 0.2 -->
      <g transform="translate(18.9425 123.558652) scale(0.08 -0.08)">
       <defs>
        <path id="DejaVuSans-32" d="M 1228 531 
L 3431 531 
L 3431 0 
L 469 0 
L 469 531 
Q 828 903 1448 1529 
Q 2069 2156 2228 2338 
Q 2531 2678 2651 2914 
Q 2772 3150 2772 3378 
Q 2772 3750 2511 3984 
Q 2250 4219 1831 4219 
Q 1534 4219 1204 4116 
Q 875 4013 500 3803 
L 500 4441 
Q 881 4594 1212 4672 
Q 1544 4750 1819 4750 
Q 2544 4750 2975 4387 
Q 3406 4025 3406 3419 
Q 3406 3131 3298 2873 
Q 3191 2616 2906 2266 
Q 2828 2175 2409 1742 
Q 1991 1309 1228 531 
z
" transform="scale(0.015625)"/>
       </defs>
       <use xlink:href="#DejaVuSans-30"/>
       <use xlink:href="#DejaVuSans-2e" x="63.623047"/>
       <use xlink:href="#DejaVuSans-32" x="95.410156"/>
      </g>
     </g>
    </g>
    <g id="text_10">
     <!-- Au -->
     <g transform="translate(13.27875 135.43) rotate(-90) scale(0.08 -0.08)">
      <use xlink:href="#DejaVuSans-41"/>
      <use xlink:href="#DejaVuSans-75" x="68.408203"/>
     </g>
    </g>
   </g>
   <g id="line2d_12">
    <path d="M 46.274091 148.579484 
L 62.132717 148.490436 
L 63.657585 148.29631 
L 64.572506 148.019931 
L 65.487427 147.50253 
L 66.097374 146.946462 
L 66.707321 146.150575 
L 67.317268 145.043229 
L 67.927215 143.548342 
L 68.537163 141.593728 
L 69.452083 137.683344 
L 70.367004 132.565172 
L 71.586898 124.245253 
L 73.41674 111.476467 
L 74.331661 106.759062 
L 74.941608 104.733248 
L 75.246581 104.103403 
L 75.551555 103.73695 
L 75.856529 103.632434 
L 76.161502 103.782823 
L 76.466476 104.175781 
L 77.076423 105.618479 
L 77.68637 107.787322 
L 78.601291 111.966532 
L 84.700762 142.480941 
L 85.920657 146.966016 
L 86.835578 149.530852 
L 87.750498 151.412091 
L 88.665419 152.729195 
L 89.58034 153.660259 
L 91.105208 154.80012 
L 93.240023 156.082791 
L 94.459917 156.556405 
L 95.374838 156.685066 
L 96.289759 156.580806 
L 97.204679 156.242824 
L 98.424574 155.481439 
L 99.949442 154.206901 
L 102.999177 151.562152 
L 104.524045 150.535548 
L 106.048913 149.781429 
L 107.573781 149.273187 
L 109.403623 148.910558 
L 111.843411 148.687681 
L 115.808068 148.592339 
L 133.496536 148.579484 
L 198.455909 148.579484 
L 198.455909 148.579484 
" clip-path="url(#p3acc5635bd)" style="fill: none; stroke: #ff8c00; stroke-width: 0.5; stroke-linecap: square"/>
   </g>
   <g id="line2d_13">
    <path d="M 46.274091 148.579484 
L 62.742664 148.478764 
L 64.267532 148.259879 
L 65.182453 147.957088 
L 66.097374 147.408767 
L 66.707321 146.837682 
L 67.317268 146.043366 
L 67.927215 144.971576 
L 68.537163 143.571043 
L 69.452083 140.771923 
L 70.367004 137.113553 
L 71.586898 131.179613 
L 73.41674 122.112346 
L 74.331661 118.783886 
L 74.941608 117.364101 
L 75.551555 116.674777 
L 75.856529 116.607983 
L 76.161502 116.720246 
L 76.466476 117.002214 
L 77.076423 118.022428 
L 77.68637 119.541574 
L 78.601291 122.44136 
L 84.700762 143.414259 
L 85.920657 146.655804 
L 86.835578 148.55893 
L 87.750498 149.991458 
L 88.665419 151.022902 
L 89.885313 151.976128 
L 91.715155 153.005647 
L 93.544996 153.827536 
L 94.764891 154.173301 
L 95.984785 154.257778 
L 97.204679 154.048247 
L 98.424574 153.576129 
L 100.254415 152.551225 
L 103.609125 150.583535 
L 105.438966 149.795691 
L 107.268808 149.261747 
L 109.403623 148.897224 
L 112.148385 148.684349 
L 116.722989 148.592095 
L 137.766166 148.579484 
L 198.455909 148.579484 
L 198.455909 148.579484 
" clip-path="url(#p3acc5635bd)" style="fill: none; stroke: #000000; stroke-width: 0.5; stroke-linecap: square"/>
   </g>
   <g id="line2d_14">
    <path d="M 46.274091 148.579484 
L 198.455909 148.579484 
L 198.455909 148.579484 
" clip-path="url(#p3acc5635bd)" style="fill: none; stroke-dasharray: 1.85,0.8; stroke-dashoffset: 0; stroke: #000000; stroke-width: 0.5"/>
   </g>
   <g id="line2d_15">
    <path d="M 46.274091 148.579484 
L 66.097374 148.471057 
L 67.927215 148.241905 
L 69.757057 147.773232 
L 74.026687 146.447282 
L 75.246581 146.390852 
L 78.906264 146.471471 
L 80.431132 146.102226 
L 82.565947 145.506528 
L 83.785842 145.42926 
L 85.005736 145.635285 
L 86.530604 146.193326 
L 89.58034 147.424583 
L 91.410181 147.903097 
L 97.204679 149.005512 
L 99.644468 149.335835 
L 101.779283 149.419908 
L 104.524045 149.286712 
L 113.368279 148.667654 
L 119.772725 148.585616 
L 161.554105 148.579484 
L 198.455909 148.579484 
L 198.455909 148.579484 
" clip-path="url(#p3acc5635bd)" style="fill: none; stroke: #800080; stroke-width: 0.5; stroke-linecap: square"/>
   </g>
   <g id="patch_6">
    <path d="M 38.665 159.337697 
L 38.665 100.979803 
" style="fill: none; stroke: #000000; stroke-width: 0.8; stroke-linejoin: miter; stroke-linecap: square"/>
   </g>
   <g id="patch_7">
    <path d="M 38.665 159.337697 
L 206.065 159.337697 
" style="fill: none; stroke: #000000; stroke-width: 0.8; stroke-linejoin: miter; stroke-linecap: square"/>
   </g>
   <g id="text_11">
    <!-- Normalized Frequency integrator response -->
    <g transform="translate(37.06625 94.979803) scale(0.08 -0.08)">
     <defs>
      <path id="DejaVuSans-4e" d="M 628 4666 
L 1478 4666 
L 3547 763 
L 3547 4666 
L 4159 4666 
L 4159 0 
L 3309 0 
L 1241 3903 
L 1241 0 
L 628 0 
L 628 4666 
z
" transform="scale(0.015625)"/>
      <path id="DejaVuSans-6c" d="M 603 4863 
L 1178 4863 
L 1178 0 
L 603 0 
L 603 4863 
z
" transform="scale(0.015625)"/>
      <path id="DejaVuSans-7a" d="M 353 3500 
L 3084 3500 
L 3084 2975 
L 922 459 
L 3084 459 
L 3084 0 
L 275 0 
L 275 525 
L 2438 3041 
L 353 3041 
L 353 3500 
z
" transform="scale(0.015625)"/>
      <path id="DejaVuSans-64" d="M 2906 2969 
L 2906 4863 
L 3481 4863 
L 3481 0 
L 2906 0 
L 2906 525 
Q 2725 213 2448 61 
Q 2172 -91 1784 -91 
Q 1150 -91 751 415 
Q 353 922 353 1747 
Q 353 2572 751 3078 
Q 1150 3584 1784 3584 
Q 2172 3584 2448 3432 
Q 2725 3281 2906 2969 
z
M 947 1747 
Q 947 1113 1208 752 
Q 1469 391 1925 391 
Q 2381 391 2643 752 
Q 2906 1113 2906 1747 
Q 2906 2381 2643 2742 
Q 2381 3103 1925 3103 
Q 1469 3103 1208 2742 
Q 947 2381 947 1747 
z
" transform="scale(0.015625)"/>
     </defs>
     <use xlink:href="#DejaVuSans-4e"/>
     <use xlink:href="#DejaVuSans-6f" x="74.804688"/>
     <use xlink:href="#DejaVuSans-72" x="135.986328"/>
     <use xlink:href="#DejaVuSans-6d" x="175.349609"/>
     <use xlink:href="#DejaVuSans-61" x="272.761719"/>
     <use xlink:href="#DejaVuSans-6c" x="334.041016"/>
     <use xlink:href="#DejaVuSans-69" x="361.824219"/>
     <use xlink:href="#DejaVuSans-7a" x="389.607422"/>
     <use xlink:href="#DejaVuSans-65" x="442.097656"/>
     <use xlink:href="#DejaVuSans-64" x="503.621094"/>
     <use xlink:href="#DejaVuSans-20" x="567.097656"/>
     <use xlink:href="#DejaVuSans-46" x="598.884766"/>
     <use xlink:href="#DejaVuSans-72" x="649.154297"/>
     <use xlink:href="#DejaVuSans-65" x="688.017578"/>
     <use xlink:href="#DejaVuSans-71" x="749.541016"/>
     <use xlink:href="#DejaVuSans-75" x="813.017578"/>
     <use xlink:href="#DejaVuSans-65" x="876.396484"/>
     <use xlink:href="#DejaVuSans-6e" x="937.919922"/>
     <use xlink:href="#DejaVuSans-63" x="1001.298828"/>
     <use xlink:href="#DejaVuSans-79" x="1056.279297"/>
     <use xlink:href="#DejaVuSans-20" x="1115.458984"/>
     <use xlink:href="#DejaVuSans-69" x="1147.246094"/>
     <use xlink:href="#DejaVuSans-6e" x="1175.029297"/>
     <use xlink:href="#DejaVuSans-74" x="1238.408203"/>
     <use xlink:href="#DejaVuSans-65" x="1277.617188"/>
     <use xlink:href="#DejaVuSans-67" x="1339.140625"/>
     <use xlink:href="#DejaVuSans-72" x="1402.617188"/>
     <use xlink:href="#DejaVuSans-61" x="1443.730469"/>
     <use xlink:href="#DejaVuSans-74" x="1505.009766"/>
     <use xlink:href="#DejaVuSans-6f" x="1544.21875"/>
     <use xlink:href="#DejaVuSans-72" x="1605.400391"/>
     <use xlink:href="#DejaVuSans-20" x="1646.513672"/>
     <use xlink:href="#DejaVuSans-72" x="1678.300781"/>
     <use xlink:href="#DejaVuSans-65" x="1717.164062"/>
     <use xlink:href="#DejaVuSans-73" x="1778.6875"/>
     <use xlink:href="#DejaVuSans-70" x="1830.787109"/>
     <use xlink:href="#DejaVuSans-6f" x="1894.263672"/>
     <use xlink:href="#DejaVuSans-6e" x="1955.445312"/>
     <use xlink:href="#DejaVuSans-73" x="2018.824219"/>
     <use xlink:href="#DejaVuSans-65" x="2070.923828"/>
    </g>
   </g>
  </g>
  <g id="axes_3">
   <g id="patch_8">
    <path d="M 38.665 241.03875 
L 206.065 241.03875 
L 206.065 182.680855 
L 38.665 182.680855 
z
" style="fill: #ffffff"/>
   </g>
   <g id="matplotlib.axis_5">
    <g id="xtick_1">
     <g id="line2d_16">
      <defs>
       <path id="m41e3258ce4" d="M 0 0 
L 0 3.5 
" style="stroke: #000000; stroke-width: 0.8"/>
      </defs>
      <g>
       <use xlink:href="#m41e3258ce4" x="46.274091" y="241.03875" style="stroke: #000000; stroke-width: 0.8"/>
      </g>
     </g>
     <g id="text_12">
      <!-- 0 -->
      <g transform="translate(43.729091 254.1175) scale(0.08 -0.08)">
       <use xlink:href="#DejaVuSans-30"/>
      </g>
     </g>
    </g>
    <g id="xtick_2">
     <g id="line2d_17">
      <g>
       <use xlink:href="#m41e3258ce4" x="76.771449" y="241.03875" style="stroke: #000000; stroke-width: 0.8"/>
      </g>
     </g>
     <g id="text_13">
      <!-- 100 -->
      <g transform="translate(69.136449 254.1175) scale(0.08 -0.08)">
       <use xlink:href="#DejaVuSans-31"/>
       <use xlink:href="#DejaVuSans-30" x="63.623047"/>
       <use xlink:href="#DejaVuSans-30" x="127.246094"/>
      </g>
     </g>
    </g>
    <g id="xtick_3">
     <g id="line2d_18">
      <g>
       <use xlink:href="#m41e3258ce4" x="107.268808" y="241.03875" style="stroke: #000000; stroke-width: 0.8"/>
      </g>
     </g>
     <g id="text_14">
      <!-- 200 -->
      <g transform="translate(99.633808 254.1175) scale(0.08 -0.08)">
       <use xlink:href="#DejaVuSans-32"/>
       <use xlink:href="#DejaVuSans-30" x="63.623047"/>
       <use xlink:href="#DejaVuSans-30" x="127.246094"/>
      </g>
     </g>
    </g>
    <g id="xtick_4">
     <g id="line2d_19">
      <g>
       <use xlink:href="#m41e3258ce4" x="137.766166" y="241.03875" style="stroke: #000000; stroke-width: 0.8"/>
      </g>
     </g>
     <g id="text_15">
      <!-- 300 -->
      <g transform="translate(130.131166 254.1175) scale(0.08 -0.08)">
       <defs>
        <path id="DejaVuSans-33" d="M 2597 2516 
Q 3050 2419 3304 2112 
Q 3559 1806 3559 1356 
Q 3559 666 3084 287 
Q 2609 -91 1734 -91 
Q 1441 -91 1130 -33 
Q 819 25 488 141 
L 488 750 
Q 750 597 1062 519 
Q 1375 441 1716 441 
Q 2309 441 2620 675 
Q 2931 909 2931 1356 
Q 2931 1769 2642 2001 
Q 2353 2234 1838 2234 
L 1294 2234 
L 1294 2753 
L 1863 2753 
Q 2328 2753 2575 2939 
Q 2822 3125 2822 3475 
Q 2822 3834 2567 4026 
Q 2313 4219 1838 4219 
Q 1578 4219 1281 4162 
Q 984 4106 628 3988 
L 628 4550 
Q 988 4650 1302 4700 
Q 1616 4750 1894 4750 
Q 2613 4750 3031 4423 
Q 3450 4097 3450 3541 
Q 3450 3153 3228 2886 
Q 3006 2619 2597 2516 
z
" transform="scale(0.015625)"/>
       </defs>
       <use xlink:href="#DejaVuSans-33"/>
       <use xlink:href="#DejaVuSans-30" x="63.623047"/>
       <use xlink:href="#DejaVuSans-30" x="127.246094"/>
      </g>
     </g>
    </g>
    <g id="xtick_5">
     <g id="line2d_20">
      <g>
       <use xlink:href="#m41e3258ce4" x="168.263524" y="241.03875" style="stroke: #000000; stroke-width: 0.8"/>
      </g>
     </g>
     <g id="text_16">
      <!-- 400 -->
      <g transform="translate(160.628524 254.1175) scale(0.08 -0.08)">
       <defs>
        <path id="DejaVuSans-34" d="M 2419 4116 
L 825 1625 
L 2419 1625 
L 2419 4116 
z
M 2253 4666 
L 3047 4666 
L 3047 1625 
L 3713 1625 
L 3713 1100 
L 3047 1100 
L 3047 0 
L 2419 0 
L 2419 1100 
L 313 1100 
L 313 1709 
L 2253 4666 
z
" transform="scale(0.015625)"/>
       </defs>
       <use xlink:href="#DejaVuSans-34"/>
       <use xlink:href="#DejaVuSans-30" x="63.623047"/>
       <use xlink:href="#DejaVuSans-30" x="127.246094"/>
      </g>
     </g>
    </g>
    <g id="xtick_6">
     <g id="line2d_21">
      <g>
       <use xlink:href="#m41e3258ce4" x="198.760883" y="241.03875" style="stroke: #000000; stroke-width: 0.8"/>
      </g>
     </g>
     <g id="text_17">
      <!-- 500 -->
      <g transform="translate(191.125883 254.1175) scale(0.08 -0.08)">
       <defs>
        <path id="DejaVuSans-35" d="M 691 4666 
L 3169 4666 
L 3169 4134 
L 1269 4134 
L 1269 2991 
Q 1406 3038 1543 3061 
Q 1681 3084 1819 3084 
Q 2600 3084 3056 2656 
Q 3513 2228 3513 1497 
Q 3513 744 3044 326 
Q 2575 -91 1722 -91 
Q 1428 -91 1123 -41 
Q 819 9 494 109 
L 494 744 
Q 775 591 1075 516 
Q 1375 441 1709 441 
Q 2250 441 2565 725 
Q 2881 1009 2881 1497 
Q 2881 1984 2565 2268 
Q 2250 2553 1709 2553 
Q 1456 2553 1204 2497 
Q 953 2441 691 2322 
L 691 4666 
z
" transform="scale(0.015625)"/>
       </defs>
       <use xlink:href="#DejaVuSans-35"/>
       <use xlink:href="#DejaVuSans-30" x="63.623047"/>
       <use xlink:href="#DejaVuSans-30" x="127.246094"/>
      </g>
     </g>
    </g>
    <g id="text_18">
     <!-- Time (ms) -->
     <g transform="translate(102.205625 265.86) scale(0.08 -0.08)">
      <defs>
       <path id="DejaVuSans-54" d="M -19 4666 
L 3928 4666 
L 3928 4134 
L 2272 4134 
L 2272 0 
L 1638 0 
L 1638 4134 
L -19 4134 
L -19 4666 
z
" transform="scale(0.015625)"/>
       <path id="DejaVuSans-28" d="M 1984 4856 
Q 1566 4138 1362 3434 
Q 1159 2731 1159 2009 
Q 1159 1288 1364 580 
Q 1569 -128 1984 -844 
L 1484 -844 
Q 1016 -109 783 600 
Q 550 1309 550 2009 
Q 550 2706 781 3412 
Q 1013 4119 1484 4856 
L 1984 4856 
z
" transform="scale(0.015625)"/>
       <path id="DejaVuSans-29" d="M 513 4856 
L 1013 4856 
Q 1481 4119 1714 3412 
Q 1947 2706 1947 2009 
Q 1947 1309 1714 600 
Q 1481 -109 1013 -844 
L 513 -844 
Q 928 -128 1133 580 
Q 1338 1288 1338 2009 
Q 1338 2731 1133 3434 
Q 928 4138 513 4856 
z
" transform="scale(0.015625)"/>
      </defs>
      <use xlink:href="#DejaVuSans-54"/>
      <use xlink:href="#DejaVuSans-69" x="57.958984"/>
      <use xlink:href="#DejaVuSans-6d" x="85.742188"/>
      <use xlink:href="#DejaVuSans-65" x="183.154297"/>
      <use xlink:href="#DejaVuSans-20" x="244.677734"/>
      <use xlink:href="#DejaVuSans-28" x="276.464844"/>
      <use xlink:href="#DejaVuSans-6d" x="315.478516"/>
      <use xlink:href="#DejaVuSans-73" x="412.890625"/>
      <use xlink:href="#DejaVuSans-29" x="464.990234"/>
     </g>
    </g>
   </g>
   <g id="matplotlib.axis_6">
    <g id="ytick_5">
     <g id="line2d_22">
      <g>
       <use xlink:href="#m97a0fc6659" x="38.665" y="233.777616" style="stroke: #000000; stroke-width: 0.8"/>
      </g>
     </g>
     <g id="text_19">
      <!-- 0.1 -->
      <g transform="translate(18.9425 236.816991) scale(0.08 -0.08)">
       <use xlink:href="#DejaVuSans-30"/>
       <use xlink:href="#DejaVuSans-2e" x="63.623047"/>
       <use xlink:href="#DejaVuSans-31" x="95.410156"/>
      </g>
     </g>
    </g>
    <g id="ytick_6">
     <g id="line2d_23">
      <g>
       <use xlink:href="#m97a0fc6659" x="38.665" y="210.111383" style="stroke: #000000; stroke-width: 0.8"/>
      </g>
     </g>
     <g id="text_20">
      <!-- 0.2 -->
      <g transform="translate(18.9425 213.150758) scale(0.08 -0.08)">
       <use xlink:href="#DejaVuSans-30"/>
       <use xlink:href="#DejaVuSans-2e" x="63.623047"/>
       <use xlink:href="#DejaVuSans-32" x="95.410156"/>
      </g>
     </g>
    </g>
    <g id="ytick_7">
     <g id="line2d_24">
      <g>
       <use xlink:href="#m97a0fc6659" x="38.665" y="186.44515" style="stroke: #000000; stroke-width: 0.8"/>
      </g>
     </g>
     <g id="text_21">
      <!-- 0.3 -->
      <g transform="translate(18.9425 189.484525) scale(0.08 -0.08)">
       <use xlink:href="#DejaVuSans-30"/>
       <use xlink:href="#DejaVuSans-2e" x="63.623047"/>
       <use xlink:href="#DejaVuSans-33" x="95.410156"/>
      </g>
     </g>
    </g>
    <g id="text_22">
     <!-- Au -->
     <g transform="translate(13.27875 217.131053) rotate(-90) scale(0.08 -0.08)">
      <use xlink:href="#DejaVuSans-41"/>
      <use xlink:href="#DejaVuSans-75" x="68.408203"/>
     </g>
    </g>
   </g>
   <g id="line2d_25">
    <path d="M 46.274091 228.834159 
L 46.579064 229.512881 
L 46.884038 229.653971 
L 47.798959 230.964471 
L 48.103932 230.891465 
L 48.408906 231.112547 
L 48.71388 231.829621 
L 49.018853 231.971099 
L 49.933774 232.0308 
L 50.238747 232.318865 
L 50.543721 232.311182 
L 50.848695 232.68804 
L 51.153668 232.726491 
L 51.458642 233.114824 
L 52.068589 233.279926 
L 52.373563 233.061715 
L 52.678536 233.013457 
L 52.98351 233.080787 
L 53.593457 232.378298 
L 53.89843 232.495441 
L 54.203404 232.030771 
L 54.508378 231.825576 
L 54.813351 232.003752 
L 55.423298 231.02898 
L 55.728272 231.106759 
L 56.338219 231.567178 
L 56.948166 232.095075 
L 57.558113 231.727772 
L 57.863087 232.210748 
L 59.387955 232.069819 
L 59.997902 232.9215 
L 60.607849 232.841568 
L 61.52277 233.847913 
L 61.827744 234.285543 
L 62.132717 234.287938 
L 62.437691 234.651844 
L 62.742664 235.67951 
L 63.352612 236.353634 
L 63.657585 236.387529 
L 63.962559 236.763556 
L 64.267532 236.937335 
L 64.87748 237.870668 
L 65.182453 237.767126 
L 65.487427 238.261279 
L 65.7924 238.386118 
L 67.012295 237.906242 
L 67.622242 237.566701 
L 67.927215 237.334888 
L 68.232189 237.264812 
L 68.537163 237.370888 
L 68.842136 236.985603 
L 69.14711 236.8975 
L 69.452083 237.124733 
L 69.757057 237.178475 
L 70.06203 236.491489 
L 70.367004 236.163889 
L 70.671978 236.5317 
L 70.976951 236.47422 
L 71.281925 235.999217 
L 71.891872 235.649232 
L 72.501819 234.381501 
L 72.806793 234.013191 
L 73.111766 233.375601 
L 73.41674 232.049498 
L 73.721713 231.621834 
L 74.026687 230.809479 
L 74.331661 230.342917 
L 74.636634 229.220454 
L 75.246581 227.903017 
L 76.161502 225.156094 
L 76.466476 223.950797 
L 77.381396 219.341606 
L 79.821185 209.248004 
L 80.126159 208.293111 
L 80.736106 205.02419 
L 81.346053 203.686825 
L 81.651027 202.24974 
L 82.870921 199.811432 
L 83.175895 198.542178 
L 84.090815 196.215348 
L 84.700762 195.635714 
L 85.005736 195.148701 
L 85.31071 195.116256 
L 85.615683 195.402745 
L 86.835578 195.112654 
L 87.750498 195.860382 
L 88.665419 196.093102 
L 88.970393 196.398423 
L 89.275366 197.066346 
L 89.58034 197.379801 
L 89.885313 197.440044 
L 90.190287 197.7175 
L 90.495261 197.682864 
L 90.800234 198.096083 
L 91.715155 198.368072 
L 92.325102 198.39119 
L 92.630076 198.809286 
L 92.935049 198.877111 
L 93.240023 199.084226 
L 93.544996 198.948719 
L 94.154944 199.216334 
L 94.459917 199.47391 
L 94.764891 199.443504 
L 95.374838 199.819854 
L 95.679811 200.011684 
L 95.984785 199.925571 
L 96.289759 201.021643 
L 96.594732 201.272842 
L 96.899706 201.085099 
L 97.814627 201.684536 
L 98.1196 202.334479 
L 98.424574 202.545574 
L 99.644468 204.235733 
L 99.949442 204.529287 
L 100.559389 205.513958 
L 100.864362 205.852081 
L 101.47431 207.254123 
L 102.38923 210.192285 
L 102.694204 210.750345 
L 103.914098 213.998331 
L 104.524045 215.701368 
L 105.438966 218.25592 
L 105.74394 218.161629 
L 106.353887 218.842505 
L 106.65886 219.694145 
L 107.268808 220.399185 
L 107.573781 220.231945 
L 108.488702 221.530463 
L 109.403623 223.645207 
L 109.708596 223.597922 
L 110.01357 224.119182 
L 110.318543 224.112298 
L 110.928491 225.895245 
L 111.233464 225.842654 
L 112.148385 227.403268 
L 112.758332 227.70603 
L 113.673253 229.001711 
L 113.978226 229.033447 
L 114.2832 229.179683 
L 114.588174 230.004041 
L 115.503094 229.99774 
L 115.808068 230.418496 
L 116.113042 230.583286 
L 116.722989 230.62589 
L 117.027962 231.450029 
L 117.332936 231.862042 
L 117.637909 231.780063 
L 118.247857 231.460212 
L 118.55283 231.00333 
L 118.857804 230.294254 
L 119.162777 230.572703 
L 120.077698 230.079582 
L 120.382672 230.629309 
L 120.687645 230.322212 
L 120.992619 230.183264 
L 121.297592 229.809131 
L 121.602566 229.74725 
L 121.90754 229.494682 
L 122.517487 228.696508 
L 122.82246 228.720258 
L 123.127434 228.182954 
L 123.432408 228.028776 
L 123.737381 227.624615 
L 124.042355 227.679857 
L 124.347328 227.258127 
L 124.652302 227.572025 
L 124.957275 227.324371 
L 125.567223 227.710748 
L 125.872196 227.191067 
L 126.17717 227.200398 
L 126.482143 227.586529 
L 127.092091 227.139969 
L 127.397064 227.948055 
L 127.702038 228.204543 
L 128.007011 228.763739 
L 128.311985 228.94871 
L 128.616958 228.739204 
L 128.921932 229.249501 
L 129.226906 229.413428 
L 129.531879 229.004746 
L 130.141826 229.335611 
L 130.4468 229.704878 
L 130.751774 230.41984 
L 131.056747 230.304527 
L 131.361721 229.715724 
L 132.276641 229.484589 
L 132.581615 229.448429 
L 132.886589 229.278491 
L 133.496536 228.143884 
L 133.801509 228.175282 
L 134.106483 228.562035 
L 134.411457 228.662089 
L 134.71643 229.034839 
L 135.326377 228.417126 
L 135.631351 228.868439 
L 136.241298 228.914686 
L 137.156219 228.878623 
L 137.766166 228.452928 
L 138.07114 228.607524 
L 138.681087 227.922691 
L 138.98606 228.054294 
L 139.291034 227.806765 
L 139.596007 227.742429 
L 139.900981 227.886205 
L 140.205955 227.437796 
L 140.815902 227.325731 
L 141.120875 227.255151 
L 141.425849 227.329414 
L 141.730823 227.725001 
L 142.34077 227.40163 
L 142.645743 227.696798 
L 142.950717 227.706923 
L 143.25569 227.382779 
L 144.475585 227.992111 
L 145.085532 227.929533 
L 145.390506 227.591011 
L 146.305426 227.361362 
L 146.6104 227.226509 
L 146.915373 227.558123 
L 147.220347 227.486886 
L 147.830294 226.754974 
L 148.135268 226.688854 
L 148.440241 226.814347 
L 148.745215 226.395451 
L 149.050189 226.682042 
L 149.660136 225.998487 
L 149.965109 225.982492 
L 150.575056 225.781587 
L 150.88003 225.238795 
L 151.489977 224.83409 
L 151.794951 224.160336 
L 152.099924 223.954977 
L 152.404898 223.5001 
L 153.319819 221.313628 
L 153.624792 221.155866 
L 153.929766 221.123956 
L 155.759607 218.172366 
L 156.064581 218.262658 
L 156.674528 217.449567 
L 158.199396 217.647712 
L 158.50437 218.054076 
L 158.809343 218.209258 
L 159.114317 218.688311 
L 159.41929 218.883482 
L 159.724264 219.449528 
L 160.029238 219.494358 
L 160.334211 219.741905 
L 160.639185 219.814328 
L 160.944158 220.105916 
L 161.249132 219.90131 
L 161.554105 220.033309 
L 161.859079 221.176193 
L 162.469026 222.483294 
L 162.774 222.466541 
L 163.993894 224.534526 
L 164.298868 224.715813 
L 164.603841 224.693962 
L 164.908815 225.204613 
L 165.213788 225.340223 
L 165.518762 225.626491 
L 165.823736 225.728228 
L 166.128709 225.493831 
L 166.433683 225.55133 
L 166.738656 225.462776 
L 167.04363 225.584909 
L 167.958551 224.811996 
L 168.263524 225.062148 
L 170.093366 222.427652 
L 170.398339 221.972353 
L 171.008287 220.285579 
L 171.618234 217.851838 
L 171.923207 217.531029 
L 173.143102 214.282736 
L 174.058022 211.070441 
L 174.362996 210.564381 
L 174.972943 208.865655 
L 175.58289 208.416605 
L 175.887864 208.477065 
L 176.192837 208.08567 
L 176.497811 207.446934 
L 176.802785 207.293278 
L 177.107758 207.28771 
L 177.412732 207.118945 
L 178.022679 207.043683 
L 178.327653 206.685106 
L 178.632626 206.525698 
L 180.157494 207.691208 
L 180.462468 207.770395 
L 182.292309 211.223827 
L 183.512203 213.942162 
L 183.817177 214.176462 
L 184.427124 215.620364 
L 184.732098 216.064257 
L 185.342045 217.247974 
L 185.647019 217.476463 
L 186.256966 218.488756 
L 186.561939 218.793235 
L 187.171887 219.84671 
L 187.781834 220.616705 
L 188.086807 220.608086 
L 189.001728 221.865624 
L 189.306702 222.315663 
L 189.916649 222.8703 
L 190.221622 222.456495 
L 190.526596 222.743919 
L 190.83157 222.331577 
L 191.136543 222.46971 
L 191.74649 223.073898 
L 193.271358 223.898137 
L 193.576332 224.328948 
L 194.186279 224.288482 
L 194.491253 224.666461 
L 194.796226 224.307711 
L 195.1012 224.524154 
L 195.406173 225.045075 
L 196.01612 225.41831 
L 196.321094 225.558815 
L 196.626068 226.240934 
L 197.540988 227.101588 
L 197.845962 227.708148 
L 198.150936 227.778142 
L 198.455909 228.457343 
L 198.455909 228.457343 
" clip-path="url(#p392fcee8ae)" style="fill: none; stroke: #ff8c00; stroke-width: 0.5; stroke-linecap: square"/>
   </g>
   <g id="line2d_26">
    <path d="M 46.274091 229.540903 
L 46.579064 230.246858 
L 46.884038 230.450485 
L 47.189012 230.837377 
L 47.493985 231.004568 
L 47.798959 230.579231 
L 48.103932 230.94207 
L 48.71388 229.879558 
L 49.323827 230.002355 
L 49.6288 229.813399 
L 50.238747 229.89842 
L 50.543721 229.674046 
L 50.848695 229.876367 
L 51.153668 229.86913 
L 51.458642 230.170299 
L 51.763615 230.177004 
L 52.068589 230.336497 
L 52.678536 230.860473 
L 53.593457 230.509712 
L 53.89843 229.967907 
L 54.813351 230.692688 
L 55.423298 230.078259 
L 55.728272 230.704126 
L 56.033246 230.661229 
L 57.558113 231.487733 
L 57.863087 231.981154 
L 58.168061 231.676467 
L 58.473034 231.779085 
L 58.778008 232.056343 
L 59.387955 231.173963 
L 59.692929 231.472404 
L 59.997902 231.554142 
L 60.302876 230.913224 
L 60.607849 231.208732 
L 60.912823 231.808526 
L 61.217797 231.617066 
L 61.827744 230.954737 
L 62.132717 231.194644 
L 62.742664 231.268524 
L 63.352612 231.352425 
L 63.962559 230.985834 
L 64.267532 231.185548 
L 64.87748 230.128992 
L 65.182453 230.010007 
L 66.097374 229.364509 
L 66.707321 227.726049 
L 67.012295 227.60408 
L 67.317268 227.920982 
L 67.622242 227.782598 
L 68.232189 228.456757 
L 68.537163 228.32646 
L 68.842136 228.988188 
L 69.14711 228.619735 
L 69.757057 228.59081 
L 70.06203 229.299275 
L 70.367004 229.393088 
L 70.671978 230.080773 
L 70.976951 229.863981 
L 71.891872 230.027655 
L 72.196846 230.551488 
L 72.501819 230.4323 
L 72.806793 230.674413 
L 73.41674 230.723433 
L 74.026687 230.043394 
L 74.331661 229.899598 
L 74.636634 230.128746 
L 74.941608 229.389361 
L 75.246581 229.447781 
L 77.076423 223.824757 
L 78.906264 215.908739 
L 79.516212 213.488923 
L 80.431132 209.220552 
L 82.565947 198.589815 
L 83.175895 196.11335 
L 84.395789 191.285754 
L 85.31071 189.352944 
L 86.530604 186.39664 
L 86.835578 186.360406 
L 87.445525 185.445921 
L 87.750498 185.333487 
L 88.055472 185.515523 
L 88.970393 186.906383 
L 89.275366 187.103383 
L 89.885313 187.782588 
L 90.190287 187.948338 
L 90.800234 189.112567 
L 91.105208 189.837247 
L 91.410181 190.095486 
L 92.935049 194.69891 
L 93.84997 196.99022 
L 94.459917 198.419528 
L 95.069864 199.594236 
L 96.594732 202.685858 
L 97.204679 204.050281 
L 97.814627 204.890789 
L 98.1196 204.908657 
L 98.424574 205.092637 
L 98.729547 205.451744 
L 99.339494 205.316438 
L 99.644468 205.592936 
L 99.949442 205.139995 
L 100.254415 205.24533 
L 100.559389 204.789011 
L 100.864362 204.812793 
L 101.169336 205.553758 
L 101.47431 205.918344 
L 101.779283 206.020691 
L 102.084257 206.26785 
L 102.38923 206.255398 
L 102.999177 207.211512 
L 103.609125 207.45121 
L 103.914098 208.367717 
L 104.219072 208.378384 
L 104.524045 208.832634 
L 104.829019 209.02825 
L 105.133993 209.383212 
L 105.438966 209.381972 
L 105.74394 209.779051 
L 106.048913 210.596563 
L 106.353887 210.997339 
L 106.65886 210.785906 
L 106.963834 210.963843 
L 107.268808 211.421101 
L 107.878755 212.694478 
L 108.183728 212.934178 
L 108.793676 214.675016 
L 109.403623 215.841647 
L 110.01357 217.180934 
L 110.928491 219.713255 
L 111.233464 220.394636 
L 111.538438 220.726212 
L 111.843411 220.76209 
L 112.148385 221.219898 
L 112.453359 222.341114 
L 113.063306 223.083886 
L 113.368279 224.236833 
L 113.673253 224.91606 
L 113.978226 225.202823 
L 114.2832 225.845636 
L 114.588174 225.791995 
L 115.198121 226.772008 
L 115.503094 227.745736 
L 115.808068 227.607088 
L 116.113042 227.680243 
L 116.418015 227.565701 
L 116.722989 227.929806 
L 117.027962 228.061014 
L 117.332936 228.451608 
L 117.942883 228.534788 
L 118.55283 228.309961 
L 119.162777 227.873689 
L 119.772725 228.178427 
L 120.077698 228.125544 
L 120.992619 226.463537 
L 121.297592 226.342939 
L 121.602566 225.636853 
L 121.90754 225.645265 
L 122.212513 225.187737 
L 122.517487 224.479316 
L 122.82246 224.261711 
L 123.127434 223.828129 
L 123.432408 224.146191 
L 123.737381 223.572017 
L 124.042355 223.260152 
L 124.347328 223.355094 
L 124.957275 223.245941 
L 125.262249 222.97117 
L 125.567223 223.369138 
L 126.787117 223.154167 
L 127.397064 222.296786 
L 128.007011 222.82134 
L 128.311985 222.378735 
L 128.616958 222.262569 
L 128.921932 222.433296 
L 129.226906 222.267811 
L 129.531879 222.338611 
L 129.836853 222.12709 
L 130.141826 222.411039 
L 130.751774 222.564166 
L 131.056747 222.297362 
L 131.361721 221.878852 
L 131.666694 221.853196 
L 131.971668 222.086089 
L 132.276641 221.887596 
L 132.581615 222.185019 
L 132.886589 222.049817 
L 133.496536 222.685443 
L 133.801509 222.571533 
L 134.106483 223.277027 
L 134.411457 223.360424 
L 135.021404 223.803282 
L 135.326377 223.588008 
L 135.631351 223.721106 
L 135.936324 224.389747 
L 136.241298 224.076934 
L 136.546272 223.951426 
L 136.851245 223.671282 
L 137.156219 224.340419 
L 137.461192 224.024425 
L 137.766166 224.052591 
L 138.681087 223.857447 
L 138.98606 224.069865 
L 139.291034 224.109893 
L 139.596007 224.326644 
L 139.900981 224.348656 
L 140.510928 223.745421 
L 141.120875 223.413964 
L 141.425849 222.783716 
L 142.34077 223.039929 
L 142.645743 223.430376 
L 143.25569 222.660954 
L 143.560664 222.515568 
L 144.170611 223.006946 
L 145.390506 221.861894 
L 146.000453 221.707783 
L 146.305426 222.027772 
L 146.6104 222.709449 
L 146.915373 222.970042 
L 147.525321 222.825737 
L 148.135268 222.993654 
L 148.440241 222.680133 
L 148.745215 223.060586 
L 149.050189 223.13183 
L 149.355162 223.663316 
L 149.660136 223.733827 
L 149.965109 224.212684 
L 150.270083 224.448238 
L 151.489977 224.417864 
L 152.099924 224.179193 
L 152.709872 224.126948 
L 153.014845 223.782893 
L 153.624792 223.799567 
L 153.929766 224.285322 
L 154.539713 224.10263 
L 154.844687 223.487098 
L 155.454634 223.292178 
L 155.759607 222.68838 
L 156.064581 222.64549 
L 156.369555 222.816003 
L 156.979502 222.312715 
L 157.284475 222.494576 
L 157.589449 222.363583 
L 157.894422 222.406184 
L 158.809343 221.76413 
L 159.41929 221.209304 
L 159.724264 221.356236 
L 160.334211 220.94448 
L 160.944158 219.50727 
L 161.249132 218.674818 
L 161.554105 218.175259 
L 161.859079 218.264578 
L 162.164053 218.141302 
L 162.469026 217.392094 
L 162.774 217.418757 
L 163.078973 216.924376 
L 163.383947 216.795639 
L 163.688921 216.37015 
L 164.298868 216.87396 
L 164.603841 216.739425 
L 164.908815 217.280941 
L 165.213788 217.532021 
L 165.518762 217.111598 
L 165.823736 217.20135 
L 166.128709 216.79471 
L 166.433683 216.638533 
L 167.348604 216.994619 
L 167.653577 216.642205 
L 167.958551 216.466932 
L 168.263524 216.54683 
L 168.873471 216.26672 
L 169.178445 215.67053 
L 169.788392 215.127066 
L 170.093366 214.697643 
L 170.398339 214.653639 
L 170.703313 213.856385 
L 171.008287 213.885248 
L 171.618234 213.51982 
L 172.228181 212.667922 
L 172.533154 212.065421 
L 172.838128 211.898884 
L 173.143102 211.969359 
L 173.753049 211.001259 
L 174.66797 210.435333 
L 174.972943 210.509694 
L 175.887864 209.982661 
L 176.192837 209.634677 
L 176.497811 209.0544 
L 176.802785 208.788795 
L 177.107758 208.749216 
L 177.412732 208.422994 
L 177.717705 208.352397 
L 178.022679 208.554579 
L 178.327653 208.197556 
L 178.632626 208.286367 
L 178.9376 207.876289 
L 179.242573 207.668992 
L 179.547547 208.40586 
L 180.157494 208.670548 
L 181.682362 210.401988 
L 181.987336 210.572109 
L 182.597283 211.644591 
L 183.20723 211.434972 
L 184.122151 212.527297 
L 184.427124 213.145235 
L 184.732098 213.303389 
L 185.037071 213.912773 
L 185.342045 213.952999 
L 185.951992 215.033097 
L 186.256966 215.368745 
L 186.561939 215.942724 
L 186.866913 216.219852 
L 187.171887 217.272137 
L 187.47686 217.433771 
L 187.781834 217.765653 
L 188.086807 218.263199 
L 188.391781 218.154214 
L 188.696754 218.564898 
L 189.306702 219.556979 
L 189.611675 219.679623 
L 191.441517 221.637763 
L 192.051464 222.730508 
L 192.661411 223.42488 
L 192.966385 223.612459 
L 193.271358 224.021104 
L 193.576332 224.00279 
L 193.881305 224.325719 
L 194.186279 225.04186 
L 194.491253 225.068345 
L 195.1012 225.83951 
L 195.711147 226.940154 
L 196.626068 227.415022 
L 197.236015 228.057123 
L 197.540988 228.192158 
L 197.845962 228.183574 
L 198.455909 228.886428 
L 198.455909 228.886428 
" clip-path="url(#p392fcee8ae)" style="fill: none; stroke: #000000; stroke-width: 0.5; stroke-linecap: square"/>
   </g>
   <g id="line2d_27">
    <path d="M 46.274091 228.986718 
L 46.579064 229.332264 
L 46.884038 229.352554 
L 47.189012 229.224369 
L 47.493985 228.776238 
L 48.103932 229.785252 
L 48.408906 230.120174 
L 49.018853 229.802988 
L 49.323827 229.913862 
L 49.6288 229.722292 
L 50.848695 230.148088 
L 51.458642 230.204018 
L 51.763615 230.349124 
L 52.068589 230.806117 
L 52.678536 230.800117 
L 53.593457 230.601864 
L 53.89843 231.058018 
L 54.203404 231.183786 
L 54.813351 232.414883 
L 55.423298 232.474805 
L 55.728272 233.008 
L 56.643193 233.312831 
L 56.948166 233.17215 
L 57.558113 233.196961 
L 57.863087 233.101829 
L 58.168061 233.487053 
L 58.473034 233.335665 
L 58.778008 233.668354 
L 59.082981 233.603377 
L 59.692929 232.914965 
L 59.997902 232.544657 
L 60.302876 232.864269 
L 60.607849 232.486248 
L 60.912823 232.599154 
L 61.52277 231.084028 
L 61.827744 230.835502 
L 62.132717 231.009264 
L 62.437691 230.802187 
L 63.657585 230.77351 
L 63.962559 229.666578 
L 64.267532 229.557263 
L 64.572506 229.712154 
L 64.87748 229.389063 
L 65.182453 229.293126 
L 65.487427 228.688221 
L 66.707321 227.288958 
L 67.012295 226.768985 
L 67.317268 225.78409 
L 67.622242 226.232658 
L 68.537163 226.465151 
L 68.842136 226.818331 
L 69.14711 226.760346 
L 69.452083 226.841011 
L 69.757057 227.059714 
L 70.06203 227.56244 
L 70.671978 227.996775 
L 70.976951 228.472534 
L 71.281925 227.978672 
L 71.586898 228.53911 
L 71.891872 228.554594 
L 72.196846 228.903351 
L 72.501819 229.46792 
L 73.721713 230.180312 
L 74.026687 230.177766 
L 74.331661 229.718144 
L 74.636634 230.035629 
L 74.941608 229.665223 
L 75.551555 229.598949 
L 75.856529 228.736537 
L 76.466476 227.812592 
L 76.771449 227.743979 
L 77.076423 227.27732 
L 77.381396 227.075588 
L 77.68637 226.468529 
L 78.296317 224.870709 
L 78.601291 224.21812 
L 79.821185 219.204457 
L 80.736106 216.516157 
L 84.395789 204.216514 
L 86.530604 198.910604 
L 86.835578 198.825726 
L 87.140551 198.437095 
L 87.445525 198.229352 
L 88.055472 196.768526 
L 88.665419 196.262927 
L 88.970393 196.163365 
L 89.275366 196.498449 
L 90.190287 196.806091 
L 90.495261 197.234655 
L 90.800234 197.422633 
L 91.410181 197.147873 
L 92.020128 197.658522 
L 92.935049 198.506071 
L 93.240023 199.336504 
L 93.544996 199.725133 
L 93.84997 200.473412 
L 94.154944 200.867787 
L 94.764891 202.266583 
L 95.374838 202.591365 
L 95.984785 203.995921 
L 96.289759 204.5466 
L 96.899706 206.037806 
L 97.204679 206.510777 
L 99.644468 212.11547 
L 100.254415 213.644595 
L 101.169336 215.540289 
L 101.47431 216.166908 
L 102.084257 216.842226 
L 102.38923 217.308742 
L 102.694204 218.171441 
L 102.999177 218.534699 
L 103.304151 219.554256 
L 105.133993 222.760113 
L 105.438966 223.072658 
L 105.74394 223.599137 
L 106.048913 223.747245 
L 106.353887 223.655414 
L 106.65886 223.184998 
L 106.963834 223.824514 
L 107.268808 223.972418 
L 107.573781 223.894965 
L 108.183728 224.266174 
L 108.488702 224.104795 
L 108.793676 224.197744 
L 109.403623 223.649578 
L 110.01357 224.937743 
L 110.318543 224.796113 
L 110.623517 225.316713 
L 110.928491 225.339662 
L 111.233464 225.134167 
L 111.538438 225.444518 
L 112.148385 225.495742 
L 112.758332 225.103741 
L 113.063306 225.42537 
L 113.368279 225.162693 
L 113.673253 225.691971 
L 114.2832 225.708051 
L 114.588174 225.829287 
L 115.198121 226.448313 
L 115.503094 227.240652 
L 116.418015 227.607523 
L 116.722989 227.201575 
L 117.027962 227.898259 
L 117.332936 227.995327 
L 117.942883 228.647484 
L 118.247857 228.529847 
L 118.55283 228.627185 
L 118.857804 229.009472 
L 119.162777 229.052319 
L 119.467751 228.687629 
L 119.772725 228.722632 
L 120.077698 229.313901 
L 120.382672 229.210182 
L 120.687645 229.5442 
L 120.992619 229.199118 
L 121.297592 228.590125 
L 121.602566 229.013727 
L 121.90754 228.875573 
L 122.517487 228.752641 
L 122.82246 229.238634 
L 123.432408 228.324014 
L 123.737381 228.33176 
L 124.652302 227.031117 
L 124.957275 226.907023 
L 125.567223 227.255027 
L 127.397064 225.763763 
L 127.702038 225.151858 
L 128.007011 225.307794 
L 128.311985 225.268553 
L 128.616958 224.627217 
L 128.921932 224.577067 
L 129.226906 224.742302 
L 129.531879 224.657695 
L 129.836853 224.741708 
L 130.141826 224.985237 
L 130.4468 225.44901 
L 130.751774 225.330142 
L 131.361721 225.848704 
L 131.971668 226.418871 
L 132.276641 227.191664 
L 132.581615 227.257186 
L 132.886589 227.511096 
L 133.191562 227.294445 
L 133.801509 227.803107 
L 135.021404 229.732649 
L 135.936324 230.658592 
L 136.546272 230.49063 
L 136.851245 230.293102 
L 137.461192 231.211164 
L 137.766166 231.233594 
L 138.07114 231.087145 
L 138.376113 231.590245 
L 138.681087 231.53747 
L 139.291034 232.290411 
L 139.900981 232.444513 
L 140.205955 232.231064 
L 140.815902 231.556386 
L 141.120875 231.786665 
L 141.425849 231.555535 
L 142.035796 231.635554 
L 142.34077 231.035263 
L 142.950717 230.783695 
L 143.25569 231.117781 
L 143.560664 231.024583 
L 144.475585 229.901048 
L 144.780558 230.11857 
L 145.085532 229.704261 
L 145.695479 229.217418 
L 146.000453 229.415713 
L 146.6104 228.701161 
L 146.915373 228.481496 
L 147.525321 226.802812 
L 147.830294 227.161104 
L 148.135268 227.302976 
L 148.440241 227.004819 
L 148.745215 227.381859 
L 149.660136 227.446222 
L 149.965109 227.264674 
L 150.270083 227.552419 
L 150.88003 227.589837 
L 151.185004 227.345786 
L 151.489977 227.536523 
L 151.794951 227.119887 
L 152.404898 227.473183 
L 153.319819 226.85339 
L 153.624792 226.653836 
L 154.234739 226.733269 
L 154.539713 225.916495 
L 154.844687 225.469038 
L 155.454634 225.210735 
L 156.064581 224.594752 
L 156.674528 223.098573 
L 156.979502 223.190381 
L 157.589449 222.279825 
L 158.199396 221.296872 
L 158.50437 220.55269 
L 158.809343 220.295731 
L 159.114317 220.345658 
L 160.029238 219.061412 
L 160.334211 218.865417 
L 160.639185 218.11376 
L 160.944158 218.339237 
L 161.249132 218.047717 
L 161.554105 218.186788 
L 161.859079 218.514839 
L 162.164053 218.287721 
L 162.469026 218.216448 
L 162.774 218.511805 
L 163.078973 218.599519 
L 163.383947 218.810723 
L 163.688921 218.818161 
L 164.603841 218.304528 
L 164.908815 217.924074 
L 165.213788 218.624686 
L 166.128709 219.603956 
L 167.348604 220.398424 
L 167.653577 220.27514 
L 168.263524 220.788846 
L 168.873471 219.737596 
L 169.178445 219.66433 
L 169.788392 219.202996 
L 170.093366 219.268516 
L 170.398339 219.217527 
L 170.703313 219.652097 
L 171.31326 218.845793 
L 171.923207 218.132511 
L 172.228181 217.838269 
L 172.838128 216.825926 
L 173.143102 216.524195 
L 173.448075 216.547145 
L 173.753049 216.426096 
L 174.058022 216.14144 
L 174.66797 215.340693 
L 174.972943 215.428334 
L 175.277917 215.395155 
L 175.58289 215.240206 
L 175.887864 215.522182 
L 176.497811 214.884539 
L 177.412732 214.468262 
L 178.022679 213.977097 
L 178.327653 213.931161 
L 178.9376 214.15755 
L 179.85252 214.636641 
L 180.462468 215.661357 
L 180.767441 215.729558 
L 181.072415 216.090314 
L 181.682362 216.171655 
L 182.292309 216.970941 
L 182.902256 218.355917 
L 183.20723 218.344584 
L 183.512203 218.572366 
L 183.817177 219.334896 
L 184.122151 219.757285 
L 184.427124 220.773829 
L 184.732098 221.134788 
L 185.342045 221.464642 
L 185.951992 222.223652 
L 186.256966 222.146587 
L 186.561939 222.266259 
L 186.866913 222.08264 
L 187.47686 222.300689 
L 187.781834 222.568343 
L 188.391781 223.434064 
L 188.696754 223.836923 
L 189.001728 223.763443 
L 189.306702 223.91395 
L 189.611675 224.238913 
L 189.916649 224.400128 
L 190.221622 224.768821 
L 190.526596 224.661632 
L 190.83157 225.243099 
L 191.136543 224.987324 
L 192.356437 226.153989 
L 192.661411 226.115529 
L 192.966385 226.291216 
L 193.271358 227.193872 
L 193.576332 227.055195 
L 193.881305 227.172707 
L 194.186279 227.549455 
L 194.491253 228.105438 
L 195.406173 227.684707 
L 195.711147 228.614224 
L 196.626068 229.087396 
L 196.931041 229.298085 
L 197.236015 229.021051 
L 197.845962 229.395532 
L 198.150936 229.262937 
L 198.455909 228.934277 
L 198.455909 228.934277 
" clip-path="url(#p392fcee8ae)" style="fill: none; stroke: #800080; stroke-width: 0.5; stroke-linecap: square"/>
   </g>
   <g id="patch_9">
    <path d="M 38.665 241.03875 
L 38.665 182.680855 
" style="fill: none; stroke: #000000; stroke-width: 0.8; stroke-linejoin: miter; stroke-linecap: square"/>
   </g>
   <g id="patch_10">
    <path d="M 38.665 241.03875 
L 206.065 241.03875 
" style="fill: none; stroke: #000000; stroke-width: 0.8; stroke-linejoin: miter; stroke-linecap: square"/>
   </g>
   <g id="text_23">
    <!-- Recorded response -->
    <g transform="translate(84.105625 176.680855) scale(0.08 -0.08)">
     <defs>
      <path id="DejaVuSans-52" d="M 2841 2188 
Q 3044 2119 3236 1894 
Q 3428 1669 3622 1275 
L 4263 0 
L 3584 0 
L 2988 1197 
Q 2756 1666 2539 1819 
Q 2322 1972 1947 1972 
L 1259 1972 
L 1259 0 
L 628 0 
L 628 4666 
L 2053 4666 
Q 2853 4666 3247 4331 
Q 3641 3997 3641 3322 
Q 3641 2881 3436 2590 
Q 3231 2300 2841 2188 
z
M 1259 4147 
L 1259 2491 
L 2053 2491 
Q 2509 2491 2742 2702 
Q 2975 2913 2975 3322 
Q 2975 3731 2742 3939 
Q 2509 4147 2053 4147 
L 1259 4147 
z
" transform="scale(0.015625)"/>
     </defs>
     <use xlink:href="#DejaVuSans-52"/>
     <use xlink:href="#DejaVuSans-65" x="64.982422"/>
     <use xlink:href="#DejaVuSans-63" x="126.505859"/>
     <use xlink:href="#DejaVuSans-6f" x="181.486328"/>
     <use xlink:href="#DejaVuSans-72" x="242.667969"/>
     <use xlink:href="#DejaVuSans-64" x="282.03125"/>
     <use xlink:href="#DejaVuSans-65" x="345.507812"/>
     <use xlink:href="#DejaVuSans-64" x="407.03125"/>
     <use xlink:href="#DejaVuSans-20" x="470.507812"/>
     <use xlink:href="#DejaVuSans-72" x="502.294922"/>
     <use xlink:href="#DejaVuSans-65" x="541.158203"/>
     <use xlink:href="#DejaVuSans-73" x="602.681641"/>
     <use xlink:href="#DejaVuSans-70" x="654.78125"/>
     <use xlink:href="#DejaVuSans-6f" x="718.257812"/>
     <use xlink:href="#DejaVuSans-6e" x="779.439453"/>
     <use xlink:href="#DejaVuSans-73" x="842.818359"/>
     <use xlink:href="#DejaVuSans-65" x="894.917969"/>
    </g>
   </g>
  </g>
 </g>
 <defs>
  <clipPath id="p268c012998">
   <rect x="38.665" y="19.27875" width="167.4" height="58.357895"/>
  </clipPath>
  <clipPath id="p3acc5635bd">
   <rect x="38.665" y="100.979803" width="167.4" height="58.357895"/>
  </clipPath>
  <clipPath id="p392fcee8ae">
   <rect x="38.665" y="182.680855" width="167.4" height="58.357895"/>
  </clipPath>
 </defs>
</svg>
