<?xml version="1.0" encoding="utf-8" standalone="no"?>
<!DOCTYPE svg PUBLIC "-//W3C//DTD SVG 1.1//EN"
  "http://www.w3.org/Graphics/SVG/1.1/DTD/svg11.dtd">
<svg xmlns:xlink="http://www.w3.org/1999/xlink" width="219.95375pt" height="274.72375pt" viewBox="0 0 219.95375 274.72375" xmlns="http://www.w3.org/2000/svg" version="1.1">
 <metadata>
  <rdf:RDF xmlns:dc="http://purl.org/dc/elements/1.1/" xmlns:cc="http://creativecommons.org/ns#" xmlns:rdf="http://www.w3.org/1999/02/22-rdf-syntax-ns#">
   <cc:Work>
    <dc:type rdf:resource="http://purl.org/dc/dcmitype/StillImage"/>
    <dc:date>2026-04-29T18:01:01.235831</dc:date>
    <dc:format>image/svg+xml</dc:format>
    <dc:creator>
     <cc:Agent>
      <dc:title>Matplotlib v3.9.4, https://matplotlib.org/</dc:title>
     </cc:Agent>
    </dc:creator>
   </cc:Work>
  </rdf:RDF>
 </metadata>
 <defs>
  <style type="text/css">*{stroke-linejoin: round; stroke-linecap: butt}</style>
 </defs>
 <g id="figure_1">
  <g id="patch_1">
   <path d="M 0 274.72375 
L 219.95375 274.72375 
L 219.95375 0 
L 0 0 
z
" style="fill: #ffffff"/>
  </g>
  <g id="axes_1">
   <g id="patch_2">
    <path d="M 43.755 77.636645 
L 211.155 77.636645 
L 211.155 19.27875 
L 43.755 19.27875 
z
" style="fill: #ffffff"/>
   </g>
   <g id="matplotlib.axis_1"/>
   <g id="matplotlib.axis_2">
    <g id="ytick_1">
     <g id="line2d_1">
      <defs>
       <path id="mdfe2834ba7" d="M 0 0 
L -3.5 0 
" style="stroke: #000000; stroke-width: 0.8"/>
      </defs>
      <g>
       <use xlink:href="#mdfe2834ba7" x="43.755" y="60.15688" style="stroke: #000000; stroke-width: 0.8"/>
      </g>
     </g>
     <g id="text_1">
      <!-- 0 -->
      <g transform="translate(31.665 63.196255) scale(0.08 -0.08)">
       <defs>
        <path id="DejaVuSans-30" d="M 2034 4250 
Q 1547 4250 1301 3770 
Q 1056 3291 1056 2328 
Q 1056 1369 1301 889 
Q 1547 409 2034 409 
Q 2525 409 2770 889 
Q 3016 1369 3016 2328 
Q 3016 3291 2770 3770 
Q 2525 4250 2034 4250 
z
M 2034 4750 
Q 2819 4750 3233 4129 
Q 3647 3509 3647 2328 
Q 3647 1150 3233 529 
Q 2819 -91 2034 -91 
Q 1250 -91 836 529 
Q 422 1150 422 2328 
Q 422 3509 836 4129 
Q 1250 4750 2034 4750 
z
" transform="scale(0.015625)"/>
       </defs>
       <use xlink:href="#DejaVuSans-30"/>
      </g>
     </g>
    </g>
    <g id="ytick_2">
     <g id="line2d_2">
      <g>
       <use xlink:href="#mdfe2834ba7" x="43.755" y="28.628097" style="stroke: #000000; stroke-width: 0.8"/>
      </g>
     </g>
     <g id="text_2">
      <!-- 2 -->
      <g transform="translate(31.665 31.667472) scale(0.08 -0.08)">
       <defs>
        <path id="DejaVuSans-32" d="M 1228 531 
L 3431 531 
L 3431 0 
L 469 0 
L 469 531 
Q 828 903 1448 1529 
Q 2069 2156 2228 2338 
Q 2531 2678 2651 2914 
Q 2772 3150 2772 3378 
Q 2772 3750 2511 3984 
Q 2250 4219 1831 4219 
Q 1534 4219 1204 4116 
Q 875 4013 500 3803 
L 500 4441 
Q 881 4594 1212 4672 
Q 1544 4750 1819 4750 
Q 2544 4750 2975 4387 
Q 3406 4025 3406 3419 
Q 3406 3131 3298 2873 
Q 3191 2616 2906 2266 
Q 2828 2175 2409 1742 
Q 1991 1309 1228 531 
z
" transform="scale(0.015625)"/>
       </defs>
       <use xlink:href="#DejaVuSans-32"/>
      </g>
     </g>
    </g>
    <g id="text_3">
     <!-- Au -->
     <g transform="translate(26.00125 53.728947) rotate(-90) scale(0.08 -0.08)">
      <defs>
       <path id="DejaVuSans-41" d="M 2188 4044 
L 1331 1722 
L 3047 1722 
L 2188 4044 
z
M 1831 4666 
L 2547 4666 
L 4325 0 
L 3669 0 
L 3244 1197 
L 1141 1197 
L 716 0 
L 50 0 
L 1831 4666 
z
" transform="scale(0.015625)"/>
       <path id="DejaVuSans-75" d="M 544 1381 
L 544 3500 
L 1119 3500 
L 1119 1403 
Q 1119 906 1312 657 
Q 1506 409 1894 409 
Q 2359 409 2629 706 
Q 2900 1003 2900 1516 
L 2900 3500 
L 3475 3500 
L 3475 0 
L 2900 0 
L 2900 538 
Q 2691 219 2414 64 
Q 2138 -91 1772 -91 
Q 1169 -91 856 284 
Q 544 659 544 1381 
z
M 1991 3584 
L 1991 3584 
z
" transform="scale(0.015625)"/>
      </defs>
      <use xlink:href="#DejaVuSans-41"/>
      <use xlink:href="#DejaVuSans-75" x="68.408203"/>
     </g>
    </g>
   </g>
   <g id="line2d_3">
    <path d="M 51.364091 60.156854 
L 62.648113 60.06287 
L 64.477955 59.837095 
L 65.697849 59.463896 
L 66.61277 58.956673 
L 67.527691 58.141762 
L 68.442612 56.888477 
L 69.357532 55.050667 
L 70.272453 52.491415 
L 71.187374 49.122296 
L 72.102295 44.953182 
L 73.627163 36.737033 
L 75.15203 28.647193 
L 76.066951 25.037012 
L 76.676898 23.555496 
L 76.981872 23.155236 
L 77.286846 23.003745 
L 77.591819 23.112911 
L 77.896793 23.490579 
L 78.201766 24.14027 
L 78.811713 26.246467 
L 79.421661 29.366147 
L 80.336581 35.628694 
L 81.861449 48.426543 
L 83.386317 60.731712 
L 84.301238 66.530002 
L 85.216159 70.724521 
L 85.826106 72.629007 
L 86.436053 73.894586 
L 87.046 74.624959 
L 87.655947 74.94169 
L 88.265895 74.968913 
L 89.180815 74.710385 
L 91.31563 73.962264 
L 94.975313 73.051914 
L 95.890234 72.476683 
L 96.805155 71.680744 
L 98.025049 70.321288 
L 100.159864 67.502767 
L 102.294679 64.805925 
L 103.819547 63.25701 
L 105.039442 62.298875 
L 106.259336 61.57953 
L 107.784204 60.964689 
L 109.309072 60.58913 
L 111.443887 60.320183 
L 114.493623 60.19034 
L 122.727909 60.157031 
L 203.545909 60.15688 
L 203.545909 60.15688 
" clip-path="url(#p08b42f0e30)" style="fill: none; stroke: #ff8c00; stroke-width: 0.5; stroke-linecap: square"/>
   </g>
   <g id="line2d_4">
    <path d="M 51.364091 60.156842 
L 62.038166 60.046602 
L 63.868008 59.831327 
L 65.087902 59.506649 
L 66.002823 59.083286 
L 66.917744 58.416013 
L 67.832664 57.39501 
L 68.747585 55.887543 
L 69.662506 53.752559 
L 70.577427 50.86906 
L 71.492347 47.178064 
L 72.712242 41.113913 
L 75.457004 26.466428 
L 76.066951 24.150346 
L 76.676898 22.586349 
L 76.981872 22.137101 
L 77.286846 21.931382 
L 77.591819 21.981242 
L 77.896793 22.294759 
L 78.201766 22.875827 
L 78.811713 24.833623 
L 79.421661 27.794908 
L 80.336581 33.817173 
L 81.861449 46.277632 
L 83.386317 58.42536 
L 84.301238 64.243922 
L 85.216159 68.546114 
L 85.826106 70.566722 
L 86.436053 71.979291 
L 87.046 72.88299 
L 87.655947 73.394833 
L 88.265895 73.634667 
L 89.180815 73.71965 
L 91.010657 73.787259 
L 92.840498 74.174697 
L 94.060393 74.357311 
L 94.975313 74.282507 
L 95.890234 73.948768 
L 96.805155 73.332616 
L 97.720076 72.452081 
L 98.93997 70.956118 
L 104.124521 64.081346 
L 105.344415 62.952473 
L 106.56431 62.07826 
L 107.784204 61.432273 
L 109.309072 60.885518 
L 111.138913 60.50462 
L 113.578702 60.272822 
L 117.543359 60.171797 
L 133.706958 60.15688 
L 203.545909 60.15688 
L 203.545909 60.15688 
" clip-path="url(#p08b42f0e30)" style="fill: none; stroke: #000000; stroke-width: 0.5; stroke-linecap: square"/>
   </g>
   <g id="line2d_5">
    <path d="M 51.364091 60.156867 
L 63.563034 60.058764 
L 67.832664 59.772108 
L 72.712242 59.470818 
L 76.066951 59.270217 
L 78.201766 58.892437 
L 82.77637 57.886304 
L 84.301238 57.870801 
L 85.826106 58.094594 
L 87.655947 58.610022 
L 90.40071 59.653524 
L 94.67034 61.29486 
L 96.500181 61.756124 
L 98.025049 61.943366 
L 99.854891 61.925676 
L 101.989706 61.649145 
L 109.309072 60.453268 
L 112.663781 60.245511 
L 118.153306 60.163743 
L 152.920294 60.15688 
L 203.545909 60.15688 
L 203.545909 60.15688 
" clip-path="url(#p08b42f0e30)" style="fill: none; stroke: #800080; stroke-width: 0.5; stroke-linecap: square"/>
   </g>
   <g id="line2d_6">
    <path d="M 51.364091 60.15688 
L 203.545909 60.15688 
L 203.545909 60.15688 
" clip-path="url(#p08b42f0e30)" style="fill: none; stroke-dasharray: 1.85,0.8; stroke-dashoffset: 0; stroke: #000000; stroke-width: 0.5"/>
   </g>
   <g id="patch_3">
    <path d="M 43.755 77.636645 
L 43.755 19.27875 
" style="fill: none; stroke: #000000; stroke-width: 0.8; stroke-linejoin: miter; stroke-linecap: square"/>
   </g>
   <g id="patch_4">
    <path d="M 43.755 77.636645 
L 211.155 77.636645 
" style="fill: none; stroke: #000000; stroke-width: 0.8; stroke-linejoin: miter; stroke-linecap: square"/>
   </g>
   <g id="text_4">
    <!-- Frequency integrator response -->
    <g transform="translate(66.111875 13.27875) scale(0.08 -0.08)">
     <defs>
      <path id="DejaVuSans-46" d="M 628 4666 
L 3309 4666 
L 3309 4134 
L 1259 4134 
L 1259 2759 
L 3109 2759 
L 3109 2228 
L 1259 2228 
L 1259 0 
L 628 0 
L 628 4666 
z
" transform="scale(0.015625)"/>
      <path id="DejaVuSans-72" d="M 2631 2963 
Q 2534 3019 2420 3045 
Q 2306 3072 2169 3072 
Q 1681 3072 1420 2755 
Q 1159 2438 1159 1844 
L 1159 0 
L 581 0 
L 581 3500 
L 1159 3500 
L 1159 2956 
Q 1341 3275 1631 3429 
Q 1922 3584 2338 3584 
Q 2397 3584 2469 3576 
Q 2541 3569 2628 3553 
L 2631 2963 
z
" transform="scale(0.015625)"/>
      <path id="DejaVuSans-65" d="M 3597 1894 
L 3597 1613 
L 953 1613 
Q 991 1019 1311 708 
Q 1631 397 2203 397 
Q 2534 397 2845 478 
Q 3156 559 3463 722 
L 3463 178 
Q 3153 47 2828 -22 
Q 2503 -91 2169 -91 
Q 1331 -91 842 396 
Q 353 884 353 1716 
Q 353 2575 817 3079 
Q 1281 3584 2069 3584 
Q 2775 3584 3186 3129 
Q 3597 2675 3597 1894 
z
M 3022 2063 
Q 3016 2534 2758 2815 
Q 2500 3097 2075 3097 
Q 1594 3097 1305 2825 
Q 1016 2553 972 2059 
L 3022 2063 
z
" transform="scale(0.015625)"/>
      <path id="DejaVuSans-71" d="M 947 1747 
Q 947 1113 1208 752 
Q 1469 391 1925 391 
Q 2381 391 2643 752 
Q 2906 1113 2906 1747 
Q 2906 2381 2643 2742 
Q 2381 3103 1925 3103 
Q 1469 3103 1208 2742 
Q 947 2381 947 1747 
z
M 2906 525 
Q 2725 213 2448 61 
Q 2172 -91 1784 -91 
Q 1150 -91 751 415 
Q 353 922 353 1747 
Q 353 2572 751 3078 
Q 1150 3584 1784 3584 
Q 2172 3584 2448 3432 
Q 2725 3281 2906 2969 
L 2906 3500 
L 3481 3500 
L 3481 -1331 
L 2906 -1331 
L 2906 525 
z
" transform="scale(0.015625)"/>
      <path id="DejaVuSans-6e" d="M 3513 2113 
L 3513 0 
L 2938 0 
L 2938 2094 
Q 2938 2591 2744 2837 
Q 2550 3084 2163 3084 
Q 1697 3084 1428 2787 
Q 1159 2491 1159 1978 
L 1159 0 
L 581 0 
L 581 3500 
L 1159 3500 
L 1159 2956 
Q 1366 3272 1645 3428 
Q 1925 3584 2291 3584 
Q 2894 3584 3203 3211 
Q 3513 2838 3513 2113 
z
" transform="scale(0.015625)"/>
      <path id="DejaVuSans-63" d="M 3122 3366 
L 3122 2828 
Q 2878 2963 2633 3030 
Q 2388 3097 2138 3097 
Q 1578 3097 1268 2742 
Q 959 2388 959 1747 
Q 959 1106 1268 751 
Q 1578 397 2138 397 
Q 2388 397 2633 464 
Q 2878 531 3122 666 
L 3122 134 
Q 2881 22 2623 -34 
Q 2366 -91 2075 -91 
Q 1284 -91 818 406 
Q 353 903 353 1747 
Q 353 2603 823 3093 
Q 1294 3584 2113 3584 
Q 2378 3584 2631 3529 
Q 2884 3475 3122 3366 
z
" transform="scale(0.015625)"/>
      <path id="DejaVuSans-79" d="M 2059 -325 
Q 1816 -950 1584 -1140 
Q 1353 -1331 966 -1331 
L 506 -1331 
L 506 -850 
L 844 -850 
Q 1081 -850 1212 -737 
Q 1344 -625 1503 -206 
L 1606 56 
L 191 3500 
L 800 3500 
L 1894 763 
L 2988 3500 
L 3597 3500 
L 2059 -325 
z
" transform="scale(0.015625)"/>
      <path id="DejaVuSans-20" transform="scale(0.015625)"/>
      <path id="DejaVuSans-69" d="M 603 3500 
L 1178 3500 
L 1178 0 
L 603 0 
L 603 3500 
z
M 603 4863 
L 1178 4863 
L 1178 4134 
L 603 4134 
L 603 4863 
z
" transform="scale(0.015625)"/>
      <path id="DejaVuSans-74" d="M 1172 4494 
L 1172 3500 
L 2356 3500 
L 2356 3053 
L 1172 3053 
L 1172 1153 
Q 1172 725 1289 603 
Q 1406 481 1766 481 
L 2356 481 
L 2356 0 
L 1766 0 
Q 1100 0 847 248 
Q 594 497 594 1153 
L 594 3053 
L 172 3053 
L 172 3500 
L 594 3500 
L 594 4494 
L 1172 4494 
z
" transform="scale(0.015625)"/>
      <path id="DejaVuSans-67" d="M 2906 1791 
Q 2906 2416 2648 2759 
Q 2391 3103 1925 3103 
Q 1463 3103 1205 2759 
Q 947 2416 947 1791 
Q 947 1169 1205 825 
Q 1463 481 1925 481 
Q 2391 481 2648 825 
Q 2906 1169 2906 1791 
z
M 3481 434 
Q 3481 -459 3084 -895 
Q 2688 -1331 1869 -1331 
Q 1566 -1331 1297 -1286 
Q 1028 -1241 775 -1147 
L 775 -588 
Q 1028 -725 1275 -790 
Q 1522 -856 1778 -856 
Q 2344 -856 2625 -561 
Q 2906 -266 2906 331 
L 2906 616 
Q 2728 306 2450 153 
Q 2172 0 1784 0 
Q 1141 0 747 490 
Q 353 981 353 1791 
Q 353 2603 747 3093 
Q 1141 3584 1784 3584 
Q 2172 3584 2450 3431 
Q 2728 3278 2906 2969 
L 2906 3500 
L 3481 3500 
L 3481 434 
z
" transform="scale(0.015625)"/>
      <path id="DejaVuSans-61" d="M 2194 1759 
Q 1497 1759 1228 1600 
Q 959 1441 959 1056 
Q 959 750 1161 570 
Q 1363 391 1709 391 
Q 2188 391 2477 730 
Q 2766 1069 2766 1631 
L 2766 1759 
L 2194 1759 
z
M 3341 1997 
L 3341 0 
L 2766 0 
L 2766 531 
Q 2569 213 2275 61 
Q 1981 -91 1556 -91 
Q 1019 -91 701 211 
Q 384 513 384 1019 
Q 384 1609 779 1909 
Q 1175 2209 1959 2209 
L 2766 2209 
L 2766 2266 
Q 2766 2663 2505 2880 
Q 2244 3097 1772 3097 
Q 1472 3097 1187 3025 
Q 903 2953 641 2809 
L 641 3341 
Q 956 3463 1253 3523 
Q 1550 3584 1831 3584 
Q 2591 3584 2966 3190 
Q 3341 2797 3341 1997 
z
" transform="scale(0.015625)"/>
      <path id="DejaVuSans-6f" d="M 1959 3097 
Q 1497 3097 1228 2736 
Q 959 2375 959 1747 
Q 959 1119 1226 758 
Q 1494 397 1959 397 
Q 2419 397 2687 759 
Q 2956 1122 2956 1747 
Q 2956 2369 2687 2733 
Q 2419 3097 1959 3097 
z
M 1959 3584 
Q 2709 3584 3137 3096 
Q 3566 2609 3566 1747 
Q 3566 888 3137 398 
Q 2709 -91 1959 -91 
Q 1206 -91 779 398 
Q 353 888 353 1747 
Q 353 2609 779 3096 
Q 1206 3584 1959 3584 
z
" transform="scale(0.015625)"/>
      <path id="DejaVuSans-73" d="M 2834 3397 
L 2834 2853 
Q 2591 2978 2328 3040 
Q 2066 3103 1784 3103 
Q 1356 3103 1142 2972 
Q 928 2841 928 2578 
Q 928 2378 1081 2264 
Q 1234 2150 1697 2047 
L 1894 2003 
Q 2506 1872 2764 1633 
Q 3022 1394 3022 966 
Q 3022 478 2636 193 
Q 2250 -91 1575 -91 
Q 1294 -91 989 -36 
Q 684 19 347 128 
L 347 722 
Q 666 556 975 473 
Q 1284 391 1588 391 
Q 1994 391 2212 530 
Q 2431 669 2431 922 
Q 2431 1156 2273 1281 
Q 2116 1406 1581 1522 
L 1381 1569 
Q 847 1681 609 1914 
Q 372 2147 372 2553 
Q 372 3047 722 3315 
Q 1072 3584 1716 3584 
Q 2034 3584 2315 3537 
Q 2597 3491 2834 3397 
z
" transform="scale(0.015625)"/>
      <path id="DejaVuSans-70" d="M 1159 525 
L 1159 -1331 
L 581 -1331 
L 581 3500 
L 1159 3500 
L 1159 2969 
Q 1341 3281 1617 3432 
Q 1894 3584 2278 3584 
Q 2916 3584 3314 3078 
Q 3713 2572 3713 1747 
Q 3713 922 3314 415 
Q 2916 -91 2278 -91 
Q 1894 -91 1617 61 
Q 1341 213 1159 525 
z
M 3116 1747 
Q 3116 2381 2855 2742 
Q 2594 3103 2138 3103 
Q 1681 3103 1420 2742 
Q 1159 2381 1159 1747 
Q 1159 1113 1420 752 
Q 1681 391 2138 391 
Q 2594 391 2855 752 
Q 3116 1113 3116 1747 
z
" transform="scale(0.015625)"/>
     </defs>
     <use xlink:href="#DejaVuSans-46"/>
     <use xlink:href="#DejaVuSans-72" x="50.269531"/>
     <use xlink:href="#DejaVuSans-65" x="89.132812"/>
     <use xlink:href="#DejaVuSans-71" x="150.65625"/>
     <use xlink:href="#DejaVuSans-75" x="214.132812"/>
     <use xlink:href="#DejaVuSans-65" x="277.511719"/>
     <use xlink:href="#DejaVuSans-6e" x="339.035156"/>
     <use xlink:href="#DejaVuSans-63" x="402.414062"/>
     <use xlink:href="#DejaVuSans-79" x="457.394531"/>
     <use xlink:href="#DejaVuSans-20" x="516.574219"/>
     <use xlink:href="#DejaVuSans-69" x="548.361328"/>
     <use xlink:href="#DejaVuSans-6e" x="576.144531"/>
     <use xlink:href="#DejaVuSans-74" x="639.523438"/>
     <use xlink:href="#DejaVuSans-65" x="678.732422"/>
     <use xlink:href="#DejaVuSans-67" x="740.255859"/>
     <use xlink:href="#DejaVuSans-72" x="803.732422"/>
     <use xlink:href="#DejaVuSans-61" x="844.845703"/>
     <use xlink:href="#DejaVuSans-74" x="906.125"/>
     <use xlink:href="#DejaVuSans-6f" x="945.333984"/>
     <use xlink:href="#DejaVuSans-72" x="1006.515625"/>
     <use xlink:href="#DejaVuSans-20" x="1047.628906"/>
     <use xlink:href="#DejaVuSans-72" x="1079.416016"/>
     <use xlink:href="#DejaVuSans-65" x="1118.279297"/>
     <use xlink:href="#DejaVuSans-73" x="1179.802734"/>
     <use xlink:href="#DejaVuSans-70" x="1231.902344"/>
     <use xlink:href="#DejaVuSans-6f" x="1295.378906"/>
     <use xlink:href="#DejaVuSans-6e" x="1356.560547"/>
     <use xlink:href="#DejaVuSans-73" x="1419.939453"/>
     <use xlink:href="#DejaVuSans-65" x="1472.039062"/>
    </g>
   </g>
   <g id="legend_1">
    <g id="line2d_7">
     <path d="M 156.778125 27.137813 
L 162.778125 27.137813 
L 168.778125 27.137813 
" style="fill: none; stroke: #ff8c00; stroke-width: 0.5; stroke-linecap: square"/>
    </g>
    <g id="text_5">
     <!-- LPF image -->
     <g transform="translate(173.578125 29.237813) scale(0.06 -0.06)">
      <defs>
       <path id="DejaVuSans-4c" d="M 628 4666 
L 1259 4666 
L 1259 531 
L 3531 531 
L 3531 0 
L 628 0 
L 628 4666 
z
" transform="scale(0.015625)"/>
       <path id="DejaVuSans-50" d="M 1259 4147 
L 1259 2394 
L 2053 2394 
Q 2494 2394 2734 2622 
Q 2975 2850 2975 3272 
Q 2975 3691 2734 3919 
Q 2494 4147 2053 4147 
L 1259 4147 
z
M 628 4666 
L 2053 4666 
Q 2838 4666 3239 4311 
Q 3641 3956 3641 3272 
Q 3641 2581 3239 2228 
Q 2838 1875 2053 1875 
L 1259 1875 
L 1259 0 
L 628 0 
L 628 4666 
z
" transform="scale(0.015625)"/>
       <path id="DejaVuSans-6d" d="M 3328 2828 
Q 3544 3216 3844 3400 
Q 4144 3584 4550 3584 
Q 5097 3584 5394 3201 
Q 5691 2819 5691 2113 
L 5691 0 
L 5113 0 
L 5113 2094 
Q 5113 2597 4934 2840 
Q 4756 3084 4391 3084 
Q 3944 3084 3684 2787 
Q 3425 2491 3425 1978 
L 3425 0 
L 2847 0 
L 2847 2094 
Q 2847 2600 2669 2842 
Q 2491 3084 2119 3084 
Q 1678 3084 1418 2786 
Q 1159 2488 1159 1978 
L 1159 0 
L 581 0 
L 581 3500 
L 1159 3500 
L 1159 2956 
Q 1356 3278 1631 3431 
Q 1906 3584 2284 3584 
Q 2666 3584 2933 3390 
Q 3200 3197 3328 2828 
z
" transform="scale(0.015625)"/>
      </defs>
      <use xlink:href="#DejaVuSans-4c"/>
      <use xlink:href="#DejaVuSans-50" x="55.712891"/>
      <use xlink:href="#DejaVuSans-46" x="116.015625"/>
      <use xlink:href="#DejaVuSans-20" x="173.535156"/>
      <use xlink:href="#DejaVuSans-69" x="205.322266"/>
      <use xlink:href="#DejaVuSans-6d" x="233.105469"/>
      <use xlink:href="#DejaVuSans-61" x="330.517578"/>
      <use xlink:href="#DejaVuSans-67" x="391.796875"/>
      <use xlink:href="#DejaVuSans-65" x="455.273438"/>
     </g>
    </g>
    <g id="line2d_8">
     <path d="M 156.778125 35.944688 
L 162.778125 35.944688 
L 168.778125 35.944688 
" style="fill: none; stroke: #000000; stroke-width: 0.5; stroke-linecap: square"/>
    </g>
    <g id="text_6">
     <!-- FS image -->
     <g transform="translate(173.578125 38.044688) scale(0.06 -0.06)">
      <defs>
       <path id="DejaVuSans-53" d="M 3425 4513 
L 3425 3897 
Q 3066 4069 2747 4153 
Q 2428 4238 2131 4238 
Q 1616 4238 1336 4038 
Q 1056 3838 1056 3469 
Q 1056 3159 1242 3001 
Q 1428 2844 1947 2747 
L 2328 2669 
Q 3034 2534 3370 2195 
Q 3706 1856 3706 1288 
Q 3706 609 3251 259 
Q 2797 -91 1919 -91 
Q 1588 -91 1214 -16 
Q 841 59 441 206 
L 441 856 
Q 825 641 1194 531 
Q 1563 422 1919 422 
Q 2459 422 2753 634 
Q 3047 847 3047 1241 
Q 3047 1584 2836 1778 
Q 2625 1972 2144 2069 
L 1759 2144 
Q 1053 2284 737 2584 
Q 422 2884 422 3419 
Q 422 4038 858 4394 
Q 1294 4750 2059 4750 
Q 2388 4750 2728 4690 
Q 3069 4631 3425 4513 
z
" transform="scale(0.015625)"/>
      </defs>
      <use xlink:href="#DejaVuSans-46"/>
      <use xlink:href="#DejaVuSans-53" x="55.769531"/>
      <use xlink:href="#DejaVuSans-20" x="119.246094"/>
      <use xlink:href="#DejaVuSans-69" x="151.033203"/>
      <use xlink:href="#DejaVuSans-6d" x="178.816406"/>
      <use xlink:href="#DejaVuSans-61" x="276.228516"/>
      <use xlink:href="#DejaVuSans-67" x="337.507812"/>
      <use xlink:href="#DejaVuSans-65" x="400.984375"/>
     </g>
    </g>
    <g id="line2d_9">
     <path d="M 156.778125 44.751563 
L 162.778125 44.751563 
L 168.778125 44.751563 
" style="fill: none; stroke: #800080; stroke-width: 0.5; stroke-linecap: square"/>
    </g>
    <g id="text_7">
     <!-- HPF image -->
     <g transform="translate(173.578125 46.851563) scale(0.06 -0.06)">
      <defs>
       <path id="DejaVuSans-48" d="M 628 4666 
L 1259 4666 
L 1259 2753 
L 3553 2753 
L 3553 4666 
L 4184 4666 
L 4184 0 
L 3553 0 
L 3553 2222 
L 1259 2222 
L 1259 0 
L 628 0 
L 628 4666 
z
" transform="scale(0.015625)"/>
      </defs>
      <use xlink:href="#DejaVuSans-48"/>
      <use xlink:href="#DejaVuSans-50" x="75.195312"/>
      <use xlink:href="#DejaVuSans-46" x="135.498047"/>
      <use xlink:href="#DejaVuSans-20" x="193.017578"/>
      <use xlink:href="#DejaVuSans-69" x="224.804688"/>
      <use xlink:href="#DejaVuSans-6d" x="252.587891"/>
      <use xlink:href="#DejaVuSans-61" x="350"/>
      <use xlink:href="#DejaVuSans-67" x="411.279297"/>
      <use xlink:href="#DejaVuSans-65" x="474.755859"/>
     </g>
    </g>
   </g>
  </g>
  <g id="axes_2">
   <g id="patch_5">
    <path d="M 43.755 159.337697 
L 211.155 159.337697 
L 211.155 100.979803 
L 43.755 100.979803 
z
" style="fill: #ffffff"/>
   </g>
   <g id="matplotlib.axis_3"/>
   <g id="matplotlib.axis_4">
    <g id="ytick_3">
     <g id="line2d_10">
      <g>
       <use xlink:href="#mdfe2834ba7" x="43.755" y="141.552045" style="stroke: #000000; stroke-width: 0.8"/>
      </g>
     </g>
     <g id="text_8">
      <!-- 0.00 -->
      <g transform="translate(18.9425 144.59142) scale(0.08 -0.08)">
       <defs>
        <path id="DejaVuSans-2e" d="M 684 794 
L 1344 794 
L 1344 0 
L 684 0 
L 684 794 
z
" transform="scale(0.015625)"/>
       </defs>
       <use xlink:href="#DejaVuSans-30"/>
       <use xlink:href="#DejaVuSans-2e" x="63.623047"/>
       <use xlink:href="#DejaVuSans-30" x="95.410156"/>
       <use xlink:href="#DejaVuSans-30" x="159.033203"/>
      </g>
     </g>
    </g>
    <g id="ytick_4">
     <g id="line2d_11">
      <g>
       <use xlink:href="#mdfe2834ba7" x="43.755" y="120.653731" style="stroke: #000000; stroke-width: 0.8"/>
      </g>
     </g>
     <g id="text_9">
      <!-- 0.25 -->
      <g transform="translate(18.9425 123.693106) scale(0.08 -0.08)">
       <defs>
        <path id="DejaVuSans-35" d="M 691 4666 
L 3169 4666 
L 3169 4134 
L 1269 4134 
L 1269 2991 
Q 1406 3038 1543 3061 
Q 1681 3084 1819 3084 
Q 2600 3084 3056 2656 
Q 3513 2228 3513 1497 
Q 3513 744 3044 326 
Q 2575 -91 1722 -91 
Q 1428 -91 1123 -41 
Q 819 9 494 109 
L 494 744 
Q 775 591 1075 516 
Q 1375 441 1709 441 
Q 2250 441 2565 725 
Q 2881 1009 2881 1497 
Q 2881 1984 2565 2268 
Q 2250 2553 1709 2553 
Q 1456 2553 1204 2497 
Q 953 2441 691 2322 
L 691 4666 
z
" transform="scale(0.015625)"/>
       </defs>
       <use xlink:href="#DejaVuSans-30"/>
       <use xlink:href="#DejaVuSans-2e" x="63.623047"/>
       <use xlink:href="#DejaVuSans-32" x="95.410156"/>
       <use xlink:href="#DejaVuSans-35" x="159.033203"/>
      </g>
     </g>
    </g>
    <g id="text_10">
     <!-- Au -->
     <g transform="translate(13.27875 135.43) rotate(-90) scale(0.08 -0.08)">
      <use xlink:href="#DejaVuSans-41"/>
      <use xlink:href="#DejaVuSans-75" x="68.408203"/>
     </g>
    </g>
   </g>
   <g id="line2d_12">
    <path d="M 51.364091 141.55202 
L 62.648113 141.456096 
L 64.477955 141.225664 
L 65.697849 140.844765 
L 66.61277 140.327078 
L 67.527691 139.495355 
L 68.442612 138.216215 
L 69.357532 136.34049 
L 70.272453 133.728441 
L 71.187374 130.289815 
L 72.102295 126.034693 
L 73.627163 117.649044 
L 75.15203 109.392308 
L 76.066951 105.707647 
L 76.676898 104.195569 
L 76.981872 103.78705 
L 77.286846 103.632434 
L 77.591819 103.743854 
L 77.896793 104.129311 
L 78.201766 104.792406 
L 78.811713 106.942056 
L 79.421661 110.126095 
L 80.336581 116.517839 
L 81.861449 129.579709 
L 83.386317 142.138736 
L 84.301238 148.056647 
L 85.216159 152.337698 
L 85.826106 154.281474 
L 86.436053 155.573163 
L 87.046 156.318603 
L 87.655947 156.64187 
L 88.265895 156.669654 
L 89.180815 156.405793 
L 91.31563 155.642238 
L 94.975313 154.713106 
L 95.890234 154.126009 
L 96.805155 153.31365 
L 98.025049 151.926147 
L 100.159864 149.04948 
L 102.294679 146.297001 
L 103.819547 144.716132 
L 105.039442 143.73823 
L 106.259336 143.004045 
L 107.784204 142.37652 
L 109.309072 141.993213 
L 111.443887 141.718717 
L 114.493623 141.586196 
L 122.727909 141.5522 
L 203.545909 141.552045 
L 203.545909 141.552045 
" clip-path="url(#pb66abad15d)" style="fill: none; stroke: #ff8c00; stroke-width: 0.5; stroke-linecap: square"/>
   </g>
   <g id="line2d_13">
    <path d="M 51.364091 141.552019 
L 62.34314 141.457753 
L 64.477955 141.223849 
L 65.697849 140.904895 
L 66.61277 140.495919 
L 67.527691 139.863504 
L 68.442612 138.917962 
L 69.357532 137.559227 
L 70.272453 135.693622 
L 71.187374 133.260698 
L 72.407268 129.160747 
L 75.761978 116.710886 
L 76.371925 115.315643 
L 76.981872 114.514532 
L 77.286846 114.368237 
L 77.591819 114.403695 
L 77.896793 114.626652 
L 78.201766 115.039874 
L 78.811713 116.432147 
L 79.421661 118.538045 
L 80.336581 122.820738 
L 81.861449 131.681911 
L 83.386317 140.320687 
L 84.301238 144.458518 
L 85.216159 147.517993 
L 85.826106 148.954935 
L 86.436053 149.959475 
L 87.046 150.602134 
L 87.655947 150.966128 
L 88.570868 151.174324 
L 92.840498 151.520723 
L 94.365366 151.650984 
L 95.280287 151.540212 
L 96.195208 151.236235 
L 97.110128 150.732674 
L 98.330023 149.790667 
L 100.159864 148.015764 
L 102.904627 145.327603 
L 104.429494 144.124786 
L 105.954362 143.207494 
L 107.47923 142.560109 
L 109.309072 142.070212 
L 111.443887 141.769115 
L 114.493623 141.604921 
L 120.898068 141.553499 
L 203.545909 141.552045 
L 203.545909 141.552045 
" clip-path="url(#pb66abad15d)" style="fill: none; stroke: #000000; stroke-width: 0.5; stroke-linecap: square"/>
   </g>
   <g id="line2d_14">
    <path d="M 51.364091 141.552045 
L 203.545909 141.552045 
L 203.545909 141.552045 
" clip-path="url(#pb66abad15d)" style="fill: none; stroke-dasharray: 1.85,0.8; stroke-dashoffset: 0; stroke: #000000; stroke-width: 0.5"/>
   </g>
   <g id="line2d_15">
    <path d="M 51.364091 141.552017 
L 61.733193 141.454741 
L 64.477955 141.219679 
L 67.527691 140.70944 
L 71.187374 140.087238 
L 76.066951 139.472628 
L 77.286846 139.037135 
L 78.811713 138.238639 
L 81.861449 136.512378 
L 82.77637 136.227048 
L 83.691291 136.135649 
L 84.606212 136.2528 
L 85.521132 136.569688 
L 86.741027 137.256461 
L 88.265895 138.422944 
L 90.705683 140.664116 
L 94.060393 143.749868 
L 95.585261 144.830739 
L 96.805155 145.426048 
L 98.025049 145.741747 
L 99.244944 145.777686 
L 100.464838 145.567928 
L 101.989706 145.051734 
L 108.699125 142.392144 
L 110.83394 141.967604 
L 113.273728 141.714099 
L 116.933411 141.582263 
L 126.692566 141.55212 
L 203.545909 141.552045 
L 203.545909 141.552045 
" clip-path="url(#pb66abad15d)" style="fill: none; stroke: #800080; stroke-width: 0.5; stroke-linecap: square"/>
   </g>
   <g id="patch_6">
    <path d="M 43.755 159.337697 
L 43.755 100.979803 
" style="fill: none; stroke: #000000; stroke-width: 0.8; stroke-linejoin: miter; stroke-linecap: square"/>
   </g>
   <g id="patch_7">
    <path d="M 43.755 159.337697 
L 211.155 159.337697 
" style="fill: none; stroke: #000000; stroke-width: 0.8; stroke-linejoin: miter; stroke-linecap: square"/>
   </g>
   <g id="text_11">
    <!-- Normalized Frequency integrator response -->
    <g transform="translate(42.15625 94.979803) scale(0.08 -0.08)">
     <defs>
      <path id="DejaVuSans-4e" d="M 628 4666 
L 1478 4666 
L 3547 763 
L 3547 4666 
L 4159 4666 
L 4159 0 
L 3309 0 
L 1241 3903 
L 1241 0 
L 628 0 
L 628 4666 
z
" transform="scale(0.015625)"/>
      <path id="DejaVuSans-6c" d="M 603 4863 
L 1178 4863 
L 1178 0 
L 603 0 
L 603 4863 
z
" transform="scale(0.015625)"/>
      <path id="DejaVuSans-7a" d="M 353 3500 
L 3084 3500 
L 3084 2975 
L 922 459 
L 3084 459 
L 3084 0 
L 275 0 
L 275 525 
L 2438 3041 
L 353 3041 
L 353 3500 
z
" transform="scale(0.015625)"/>
      <path id="DejaVuSans-64" d="M 2906 2969 
L 2906 4863 
L 3481 4863 
L 3481 0 
L 2906 0 
L 2906 525 
Q 2725 213 2448 61 
Q 2172 -91 1784 -91 
Q 1150 -91 751 415 
Q 353 922 353 1747 
Q 353 2572 751 3078 
Q 1150 3584 1784 3584 
Q 2172 3584 2448 3432 
Q 2725 3281 2906 2969 
z
M 947 1747 
Q 947 1113 1208 752 
Q 1469 391 1925 391 
Q 2381 391 2643 752 
Q 2906 1113 2906 1747 
Q 2906 2381 2643 2742 
Q 2381 3103 1925 3103 
Q 1469 3103 1208 2742 
Q 947 2381 947 1747 
z
" transform="scale(0.015625)"/>
     </defs>
     <use xlink:href="#DejaVuSans-4e"/>
     <use xlink:href="#DejaVuSans-6f" x="74.804688"/>
     <use xlink:href="#DejaVuSans-72" x="135.986328"/>
     <use xlink:href="#DejaVuSans-6d" x="175.349609"/>
     <use xlink:href="#DejaVuSans-61" x="272.761719"/>
     <use xlink:href="#DejaVuSans-6c" x="334.041016"/>
     <use xlink:href="#DejaVuSans-69" x="361.824219"/>
     <use xlink:href="#DejaVuSans-7a" x="389.607422"/>
     <use xlink:href="#DejaVuSans-65" x="442.097656"/>
     <use xlink:href="#DejaVuSans-64" x="503.621094"/>
     <use xlink:href="#DejaVuSans-20" x="567.097656"/>
     <use xlink:href="#DejaVuSans-46" x="598.884766"/>
     <use xlink:href="#DejaVuSans-72" x="649.154297"/>
     <use xlink:href="#DejaVuSans-65" x="688.017578"/>
     <use xlink:href="#DejaVuSans-71" x="749.541016"/>
     <use xlink:href="#DejaVuSans-75" x="813.017578"/>
     <use xlink:href="#DejaVuSans-65" x="876.396484"/>
     <use xlink:href="#DejaVuSans-6e" x="937.919922"/>
     <use xlink:href="#DejaVuSans-63" x="1001.298828"/>
     <use xlink:href="#DejaVuSans-79" x="1056.279297"/>
     <use xlink:href="#DejaVuSans-20" x="1115.458984"/>
     <use xlink:href="#DejaVuSans-69" x="1147.246094"/>
     <use xlink:href="#DejaVuSans-6e" x="1175.029297"/>
     <use xlink:href="#DejaVuSans-74" x="1238.408203"/>
     <use xlink:href="#DejaVuSans-65" x="1277.617188"/>
     <use xlink:href="#DejaVuSans-67" x="1339.140625"/>
     <use xlink:href="#DejaVuSans-72" x="1402.617188"/>
     <use xlink:href="#DejaVuSans-61" x="1443.730469"/>
     <use xlink:href="#DejaVuSans-74" x="1505.009766"/>
     <use xlink:href="#DejaVuSans-6f" x="1544.21875"/>
     <use xlink:href="#DejaVuSans-72" x="1605.400391"/>
     <use xlink:href="#DejaVuSans-20" x="1646.513672"/>
     <use xlink:href="#DejaVuSans-72" x="1678.300781"/>
     <use xlink:href="#DejaVuSans-65" x="1717.164062"/>
     <use xlink:href="#DejaVuSans-73" x="1778.6875"/>
     <use xlink:href="#DejaVuSans-70" x="1830.787109"/>
     <use xlink:href="#DejaVuSans-6f" x="1894.263672"/>
     <use xlink:href="#DejaVuSans-6e" x="1955.445312"/>
     <use xlink:href="#DejaVuSans-73" x="2018.824219"/>
     <use xlink:href="#DejaVuSans-65" x="2070.923828"/>
    </g>
   </g>
  </g>
  <g id="axes_3">
   <g id="patch_8">
    <path d="M 43.755 241.03875 
L 211.155 241.03875 
L 211.155 182.680855 
L 43.755 182.680855 
z
" style="fill: #ffffff"/>
   </g>
   <g id="matplotlib.axis_5">
    <g id="xtick_1">
     <g id="line2d_16">
      <defs>
       <path id="m8ca7a5a08d" d="M 0 0 
L 0 3.5 
" style="stroke: #000000; stroke-width: 0.8"/>
      </defs>
      <g>
       <use xlink:href="#m8ca7a5a08d" x="51.364091" y="241.03875" style="stroke: #000000; stroke-width: 0.8"/>
      </g>
     </g>
     <g id="text_12">
      <!-- 0 -->
      <g transform="translate(48.819091 254.1175) scale(0.08 -0.08)">
       <use xlink:href="#DejaVuSans-30"/>
      </g>
     </g>
    </g>
    <g id="xtick_2">
     <g id="line2d_17">
      <g>
       <use xlink:href="#m8ca7a5a08d" x="81.861449" y="241.03875" style="stroke: #000000; stroke-width: 0.8"/>
      </g>
     </g>
     <g id="text_13">
      <!-- 100 -->
      <g transform="translate(74.226449 254.1175) scale(0.08 -0.08)">
       <defs>
        <path id="DejaVuSans-31" d="M 794 531 
L 1825 531 
L 1825 4091 
L 703 3866 
L 703 4441 
L 1819 4666 
L 2450 4666 
L 2450 531 
L 3481 531 
L 3481 0 
L 794 0 
L 794 531 
z
" transform="scale(0.015625)"/>
       </defs>
       <use xlink:href="#DejaVuSans-31"/>
       <use xlink:href="#DejaVuSans-30" x="63.623047"/>
       <use xlink:href="#DejaVuSans-30" x="127.246094"/>
      </g>
     </g>
    </g>
    <g id="xtick_3">
     <g id="line2d_18">
      <g>
       <use xlink:href="#m8ca7a5a08d" x="112.358808" y="241.03875" style="stroke: #000000; stroke-width: 0.8"/>
      </g>
     </g>
     <g id="text_14">
      <!-- 200 -->
      <g transform="translate(104.723808 254.1175) scale(0.08 -0.08)">
       <use xlink:href="#DejaVuSans-32"/>
       <use xlink:href="#DejaVuSans-30" x="63.623047"/>
       <use xlink:href="#DejaVuSans-30" x="127.246094"/>
      </g>
     </g>
    </g>
    <g id="xtick_4">
     <g id="line2d_19">
      <g>
       <use xlink:href="#m8ca7a5a08d" x="142.856166" y="241.03875" style="stroke: #000000; stroke-width: 0.8"/>
      </g>
     </g>
     <g id="text_15">
      <!-- 300 -->
      <g transform="translate(135.221166 254.1175) scale(0.08 -0.08)">
       <defs>
        <path id="DejaVuSans-33" d="M 2597 2516 
Q 3050 2419 3304 2112 
Q 3559 1806 3559 1356 
Q 3559 666 3084 287 
Q 2609 -91 1734 -91 
Q 1441 -91 1130 -33 
Q 819 25 488 141 
L 488 750 
Q 750 597 1062 519 
Q 1375 441 1716 441 
Q 2309 441 2620 675 
Q 2931 909 2931 1356 
Q 2931 1769 2642 2001 
Q 2353 2234 1838 2234 
L 1294 2234 
L 1294 2753 
L 1863 2753 
Q 2328 2753 2575 2939 
Q 2822 3125 2822 3475 
Q 2822 3834 2567 4026 
Q 2313 4219 1838 4219 
Q 1578 4219 1281 4162 
Q 984 4106 628 3988 
L 628 4550 
Q 988 4650 1302 4700 
Q 1616 4750 1894 4750 
Q 2613 4750 3031 4423 
Q 3450 4097 3450 3541 
Q 3450 3153 3228 2886 
Q 3006 2619 2597 2516 
z
" transform="scale(0.015625)"/>
       </defs>
       <use xlink:href="#DejaVuSans-33"/>
       <use xlink:href="#DejaVuSans-30" x="63.623047"/>
       <use xlink:href="#DejaVuSans-30" x="127.246094"/>
      </g>
     </g>
    </g>
    <g id="xtick_5">
     <g id="line2d_20">
      <g>
       <use xlink:href="#m8ca7a5a08d" x="173.353524" y="241.03875" style="stroke: #000000; stroke-width: 0.8"/>
      </g>
     </g>
     <g id="text_16">
      <!-- 400 -->
      <g transform="translate(165.718524 254.1175) scale(0.08 -0.08)">
       <defs>
        <path id="DejaVuSans-34" d="M 2419 4116 
L 825 1625 
L 2419 1625 
L 2419 4116 
z
M 2253 4666 
L 3047 4666 
L 3047 1625 
L 3713 1625 
L 3713 1100 
L 3047 1100 
L 3047 0 
L 2419 0 
L 2419 1100 
L 313 1100 
L 313 1709 
L 2253 4666 
z
" transform="scale(0.015625)"/>
       </defs>
       <use xlink:href="#DejaVuSans-34"/>
       <use xlink:href="#DejaVuSans-30" x="63.623047"/>
       <use xlink:href="#DejaVuSans-30" x="127.246094"/>
      </g>
     </g>
    </g>
    <g id="xtick_6">
     <g id="line2d_21">
      <g>
       <use xlink:href="#m8ca7a5a08d" x="203.850883" y="241.03875" style="stroke: #000000; stroke-width: 0.8"/>
      </g>
     </g>
     <g id="text_17">
      <!-- 500 -->
      <g transform="translate(196.215883 254.1175) scale(0.08 -0.08)">
       <use xlink:href="#DejaVuSans-35"/>
       <use xlink:href="#DejaVuSans-30" x="63.623047"/>
       <use xlink:href="#DejaVuSans-30" x="127.246094"/>
      </g>
     </g>
    </g>
    <g id="text_18">
     <!-- Time (ms) -->
     <g transform="translate(107.295625 265.86) scale(0.08 -0.08)">
      <defs>
       <path id="DejaVuSans-54" d="M -19 4666 
L 3928 4666 
L 3928 4134 
L 2272 4134 
L 2272 0 
L 1638 0 
L 1638 4134 
L -19 4134 
L -19 4666 
z
" transform="scale(0.015625)"/>
       <path id="DejaVuSans-28" d="M 1984 4856 
Q 1566 4138 1362 3434 
Q 1159 2731 1159 2009 
Q 1159 1288 1364 580 
Q 1569 -128 1984 -844 
L 1484 -844 
Q 1016 -109 783 600 
Q 550 1309 550 2009 
Q 550 2706 781 3412 
Q 1013 4119 1484 4856 
L 1984 4856 
z
" transform="scale(0.015625)"/>
       <path id="DejaVuSans-29" d="M 513 4856 
L 1013 4856 
Q 1481 4119 1714 3412 
Q 1947 2706 1947 2009 
Q 1947 1309 1714 600 
Q 1481 -109 1013 -844 
L 513 -844 
Q 928 -128 1133 580 
Q 1338 1288 1338 2009 
Q 1338 2731 1133 3434 
Q 928 4138 513 4856 
z
" transform="scale(0.015625)"/>
      </defs>
      <use xlink:href="#DejaVuSans-54"/>
      <use xlink:href="#DejaVuSans-69" x="57.958984"/>
      <use xlink:href="#DejaVuSans-6d" x="85.742188"/>
      <use xlink:href="#DejaVuSans-65" x="183.154297"/>
      <use xlink:href="#DejaVuSans-20" x="244.677734"/>
      <use xlink:href="#DejaVuSans-28" x="276.464844"/>
      <use xlink:href="#DejaVuSans-6d" x="315.478516"/>
      <use xlink:href="#DejaVuSans-73" x="412.890625"/>
      <use xlink:href="#DejaVuSans-29" x="464.990234"/>
     </g>
    </g>
   </g>
   <g id="matplotlib.axis_6">
    <g id="ytick_5">
     <g id="line2d_22">
      <g>
       <use xlink:href="#mdfe2834ba7" x="43.755" y="219.097987" style="stroke: #000000; stroke-width: 0.8"/>
      </g>
     </g>
     <g id="text_19">
      <!-- 0.2 -->
      <g transform="translate(24.0325 222.137362) scale(0.08 -0.08)">
       <use xlink:href="#DejaVuSans-30"/>
       <use xlink:href="#DejaVuSans-2e" x="63.623047"/>
       <use xlink:href="#DejaVuSans-32" x="95.410156"/>
      </g>
     </g>
    </g>
    <g id="ytick_6">
     <g id="line2d_23">
      <g>
       <use xlink:href="#mdfe2834ba7" x="43.755" y="195.345155" style="stroke: #000000; stroke-width: 0.8"/>
      </g>
     </g>
     <g id="text_20">
      <!-- 0.4 -->
      <g transform="translate(24.0325 198.38453) scale(0.08 -0.08)">
       <use xlink:href="#DejaVuSans-30"/>
       <use xlink:href="#DejaVuSans-2e" x="63.623047"/>
       <use xlink:href="#DejaVuSans-34" x="95.410156"/>
      </g>
     </g>
    </g>
    <g id="text_21">
     <!-- Au -->
     <g transform="translate(18.36875 217.131053) rotate(-90) scale(0.08 -0.08)">
      <use xlink:href="#DejaVuSans-41"/>
      <use xlink:href="#DejaVuSans-75" x="68.408203"/>
     </g>
    </g>
   </g>
   <g id="line2d_24">
    <path d="M 51.364091 233.372557 
L 52.279012 232.684281 
L 52.583985 232.567887 
L 53.80388 231.094103 
L 54.413827 231.02137 
L 54.7188 230.69014 
L 55.328747 230.448593 
L 55.633721 230.088966 
L 55.938695 230.055849 
L 57.158589 229.547277 
L 57.463563 229.522928 
L 57.768536 229.221583 
L 58.378483 229.125217 
L 59.293404 229.287367 
L 59.598378 229.272742 
L 59.903351 229.606081 
L 60.818272 229.958176 
L 61.428219 229.860471 
L 61.733193 229.587042 
L 62.038166 229.885898 
L 62.34314 229.52861 
L 62.648113 229.422012 
L 62.953087 229.091335 
L 63.563034 228.751244 
L 63.868008 228.298973 
L 64.172981 228.181942 
L 64.782929 227.785614 
L 65.087902 227.6533 
L 65.392876 227.858675 
L 65.697849 227.435469 
L 66.002823 227.609332 
L 66.61277 227.374028 
L 66.917744 227.037278 
L 67.222717 227.471248 
L 67.527691 227.512358 
L 68.137638 228.251584 
L 68.442612 228.770651 
L 69.357532 229.508491 
L 69.662506 230.058302 
L 70.272453 230.582067 
L 70.8824 230.663183 
L 71.492347 230.93399 
L 71.797321 231.183595 
L 72.102295 231.073993 
L 72.407268 230.835211 
L 73.017215 229.899369 
L 73.627163 228.658018 
L 74.542083 225.853078 
L 75.761978 220.804437 
L 77.591819 211.229243 
L 79.726634 199.612842 
L 82.166423 188.97155 
L 83.081344 186.465187 
L 83.386317 185.91472 
L 83.691291 185.864981 
L 84.301238 185.333487 
L 84.606212 185.71452 
L 84.911185 185.85354 
L 85.521132 186.769606 
L 86.131079 188.322132 
L 87.350974 192.866805 
L 88.265895 197.458513 
L 91.010657 213.31936 
L 92.230551 219.072705 
L 93.145472 222.33093 
L 94.060393 224.683718 
L 94.975313 226.148223 
L 95.280287 226.345541 
L 95.585261 226.745313 
L 96.195208 226.961519 
L 97.110128 226.835653 
L 97.720076 227.071015 
L 98.025049 227.098489 
L 98.330023 226.766028 
L 99.244944 226.67486 
L 99.549917 227.02156 
L 99.854891 227.134718 
L 100.159864 227.109232 
L 100.464838 227.392252 
L 101.074785 227.535184 
L 101.379759 227.904917 
L 102.294679 228.364807 
L 102.904627 228.475834 
L 103.2096 228.257517 
L 103.514574 228.703011 
L 104.124521 229.051478 
L 104.429494 228.98978 
L 105.039442 229.22935 
L 105.344415 229.568349 
L 105.649389 229.495494 
L 106.56431 230.021671 
L 107.174257 230.568322 
L 107.47923 231.090385 
L 107.784204 231.064849 
L 108.699125 232.073862 
L 109.309072 232.2109 
L 109.614045 232.882934 
L 109.919019 233.067974 
L 110.528966 233.957476 
L 110.83394 234.44271 
L 111.138913 234.421107 
L 111.443887 234.921974 
L 112.358808 235.310371 
L 112.663781 235.908131 
L 112.968755 235.958072 
L 113.578702 236.629624 
L 115.10357 236.846408 
L 116.018491 236.207612 
L 116.628438 236.244275 
L 116.933411 236.147068 
L 117.543359 236.346193 
L 118.763253 236.319197 
L 119.068226 236.133251 
L 119.3732 236.086013 
L 119.983147 236.302282 
L 120.593094 236.141112 
L 122.117962 235.716149 
L 122.422936 235.372379 
L 122.727909 235.26737 
L 123.032883 235.332296 
L 124.252777 234.535125 
L 125.167698 234.589758 
L 125.777645 234.179958 
L 126.082619 234.186548 
L 126.692566 233.920796 
L 127.91246 233.997446 
L 128.217434 233.971109 
L 128.827381 234.172173 
L 129.437328 234.199446 
L 129.742302 234.137541 
L 130.047275 234.376233 
L 131.26717 234.35802 
L 133.401985 234.598812 
L 134.316906 234.431464 
L 134.621879 234.260817 
L 135.231826 234.358681 
L 136.146747 234.428097 
L 136.451721 234.438607 
L 137.061668 234.207454 
L 137.671615 234.063857 
L 137.976589 233.910497 
L 138.281562 233.955326 
L 138.891509 233.562059 
L 139.196483 233.555592 
L 139.80643 233.213728 
L 140.416377 233.025743 
L 140.721351 232.656278 
L 141.331298 232.656673 
L 141.636272 232.393447 
L 142.856166 232.033449 
L 143.466113 231.870203 
L 143.771087 231.627778 
L 144.07606 231.738287 
L 144.381034 231.640996 
L 144.686007 231.72349 
L 146.515849 231.202991 
L 146.820823 231.465976 
L 147.43077 231.456365 
L 147.735743 231.460459 
L 148.34569 230.986888 
L 148.650664 230.955186 
L 149.260611 231.08464 
L 149.565585 231.113608 
L 150.175532 231.607001 
L 150.480506 231.382806 
L 150.785479 231.377174 
L 151.090453 231.542738 
L 151.395426 231.519432 
L 151.7004 231.332886 
L 152.310347 231.555582 
L 152.615321 231.829866 
L 152.920294 231.755221 
L 153.225268 231.551026 
L 155.055109 231.096436 
L 155.360083 230.64246 
L 155.665056 230.524935 
L 155.97003 230.255533 
L 156.884951 228.965447 
L 157.494898 228.469193 
L 157.799872 228.557308 
L 158.104845 228.447706 
L 158.409819 228.493517 
L 158.714792 228.684305 
L 161.154581 231.614602 
L 161.764528 232.372277 
L 162.374475 232.784692 
L 162.984422 233.429143 
L 164.204317 233.36698 
L 165.424211 232.523507 
L 166.949079 229.330909 
L 168.168973 225.39033 
L 168.473947 224.286623 
L 169.388868 219.940737 
L 170.608762 214.579796 
L 171.828656 209.276446 
L 173.048551 205.139499 
L 173.658498 203.477201 
L 174.268445 202.157182 
L 174.573419 201.832384 
L 175.183366 201.450857 
L 175.793313 201.811598 
L 176.40326 202.407492 
L 177.013207 203.748097 
L 177.928128 206.511825 
L 178.843049 209.983744 
L 179.75797 213.866386 
L 180.67289 218.622821 
L 181.892785 224.89708 
L 184.0276 233.844701 
L 184.94252 236.251347 
L 186.162415 238.025341 
L 186.467388 238.368634 
L 187.382309 238.374321 
L 188.29723 237.571571 
L 189.212151 236.712483 
L 190.127071 235.94775 
L 190.432045 235.489041 
L 190.737019 235.549858 
L 191.651939 235.301576 
L 191.956913 235.27519 
L 192.261887 235.424384 
L 192.56686 235.237622 
L 192.871834 235.291089 
L 193.176807 235.215569 
L 193.481781 234.917823 
L 193.786754 234.801556 
L 194.091728 234.984589 
L 194.396702 234.797927 
L 195.006649 234.923513 
L 195.311622 235.113976 
L 196.531517 235.011401 
L 196.83649 234.668925 
L 197.141464 234.604763 
L 197.446437 234.677494 
L 198.361358 234.193805 
L 198.666332 233.96792 
L 198.971305 234.002996 
L 199.276279 233.868226 
L 199.886226 234.417681 
L 200.801147 234.387356 
L 201.10612 234.744904 
L 201.411094 234.520369 
L 201.716068 234.543786 
L 202.021041 234.443683 
L 202.326015 234.012788 
L 202.630988 234.137456 
L 202.935962 233.855211 
L 203.240936 233.753256 
L 203.545909 233.418558 
L 203.545909 233.418558 
" clip-path="url(#p94261af8b8)" style="fill: none; stroke: #ff8c00; stroke-width: 0.5; stroke-linecap: square"/>
   </g>
   <g id="line2d_25">
    <path d="M 51.364091 232.905667 
L 51.669064 232.615499 
L 52.279012 232.544121 
L 52.583985 232.743339 
L 52.888959 232.633334 
L 53.498906 232.816912 
L 53.80388 232.699103 
L 54.413827 232.744401 
L 54.7188 232.584759 
L 55.023774 232.628859 
L 55.633721 232.383559 
L 55.938695 232.047139 
L 56.243668 232.403527 
L 56.548642 232.2466 
L 57.463563 232.254882 
L 58.683457 231.641635 
L 58.98843 231.693375 
L 59.598378 231.164148 
L 59.903351 231.317978 
L 60.513298 230.900217 
L 60.818272 230.577016 
L 61.123246 230.682655 
L 61.733193 230.28214 
L 62.648113 229.052282 
L 63.563034 227.316095 
L 64.782929 226.278588 
L 65.087902 226.294544 
L 65.392876 226.054899 
L 66.002823 225.886351 
L 66.307797 225.789503 
L 67.222717 226.345532 
L 67.527691 226.459195 
L 69.357532 229.032249 
L 70.8824 230.777565 
L 72.102295 231.183929 
L 73.627163 228.864781 
L 74.23711 227.034412 
L 75.457004 222.638402 
L 77.286846 213.599939 
L 80.641555 195.914072 
L 81.861449 191.174909 
L 82.471396 189.55185 
L 83.081344 188.605042 
L 83.996264 188.262155 
L 84.606212 188.994475 
L 85.826106 191.989848 
L 86.131079 192.834942 
L 87.655947 199.313588 
L 89.180815 207.094271 
L 90.40071 213.399709 
L 91.620604 218.407441 
L 92.230551 220.090281 
L 93.145472 222.276679 
L 93.755419 223.440469 
L 94.060393 223.746876 
L 94.67034 224.513771 
L 94.975313 224.715568 
L 95.280287 224.643294 
L 95.890234 224.834358 
L 97.415102 224.336887 
L 98.025049 224.458978 
L 98.330023 224.543347 
L 99.244944 225.254971 
L 99.549917 225.696771 
L 100.464838 226.3714 
L 100.769811 226.675797 
L 101.074785 226.759119 
L 101.379759 227.120466 
L 101.684732 227.955308 
L 101.989706 227.999456 
L 102.599653 228.960059 
L 103.514574 229.596435 
L 104.124521 229.612624 
L 104.429494 229.747052 
L 104.734468 229.72668 
L 105.344415 230.249746 
L 105.649389 230.216738 
L 105.954362 230.312796 
L 106.259336 230.598145 
L 106.56431 231.103608 
L 106.869283 231.26597 
L 107.47923 231.756209 
L 107.784204 232.020211 
L 108.089177 232.069078 
L 109.614045 233.169746 
L 109.919019 233.555765 
L 110.223993 233.698951 
L 110.528966 234.206816 
L 110.83394 234.318745 
L 111.138913 234.636833 
L 111.443887 234.695782 
L 112.053834 235.286424 
L 112.358808 235.507728 
L 112.968755 235.683503 
L 113.273728 235.946321 
L 114.493623 236.33123 
L 115.713517 236.343237 
L 116.323464 236.595602 
L 116.628438 236.355475 
L 116.933411 236.295363 
L 117.238385 236.535829 
L 117.848332 236.30411 
L 118.153306 236.492958 
L 118.458279 236.425329 
L 119.068226 236.65169 
L 119.678174 236.336521 
L 120.288121 236.218818 
L 120.593094 236.030513 
L 120.898068 236.0023 
L 122.117962 234.892883 
L 122.422936 234.596924 
L 124.252777 234.049669 
L 124.862725 233.960442 
L 125.167698 233.769017 
L 126.082619 234.053122 
L 126.692566 234.025531 
L 126.99754 234.219521 
L 128.217434 234.388918 
L 130.352249 235.636285 
L 131.877117 235.541451 
L 132.487064 235.549254 
L 132.792038 235.334411 
L 133.401985 235.319192 
L 134.011932 235.23918 
L 134.621879 235.265251 
L 135.231826 235.121565 
L 135.5368 235.052809 
L 136.146747 234.796225 
L 136.756694 234.500719 
L 137.671615 233.624583 
L 137.976589 233.604377 
L 141.026324 231.999843 
L 142.246219 231.859249 
L 142.856166 231.626182 
L 143.466113 231.503218 
L 144.686007 230.655549 
L 145.295955 230.502168 
L 146.515849 229.827511 
L 147.125796 230.120359 
L 147.43077 229.980889 
L 147.735743 230.18974 
L 149.565585 230.609862 
L 150.175532 231.091867 
L 150.480506 231.208651 
L 150.785479 231.174393 
L 151.395426 231.37034 
L 152.005373 231.783651 
L 152.310347 231.875603 
L 152.615321 232.362367 
L 152.920294 232.615055 
L 153.225268 232.687124 
L 153.530241 233.011007 
L 153.835215 233.147561 
L 154.140189 233.105507 
L 154.750136 232.667764 
L 156.275004 232.210363 
L 156.884951 231.335438 
L 157.189924 231.249552 
L 157.799872 230.853463 
L 158.714792 230.875252 
L 159.324739 230.827191 
L 159.629713 231.016043 
L 160.544634 232.160576 
L 161.459555 232.757392 
L 161.764528 232.807282 
L 162.069502 233.105891 
L 162.679449 233.392967 
L 162.984422 233.344395 
L 163.289396 233.522671 
L 163.899343 233.473793 
L 164.204317 233.413509 
L 165.119238 232.65569 
L 166.339132 231.199104 
L 166.949079 229.978003 
L 169.083894 224.275799 
L 170.913736 218.251986 
L 171.828656 215.202935 
L 173.048551 211.322413 
L 173.658498 209.898387 
L 174.573419 208.81996 
L 175.488339 208.456887 
L 176.40326 208.510173 
L 176.708234 208.675763 
L 178.538075 212.086994 
L 178.843049 212.825431 
L 180.977864 220.815637 
L 182.502732 226.997662 
L 183.722626 231.436642 
L 184.94252 234.357155 
L 185.552468 235.265911 
L 186.772362 236.792266 
L 188.29723 237.488885 
L 188.907177 237.383774 
L 189.517124 236.810181 
L 189.822098 236.808294 
L 190.127071 236.664559 
L 190.432045 236.720593 
L 190.737019 236.608837 
L 191.041992 236.349546 
L 191.956913 236.145599 
L 192.261887 236.32557 
L 192.56686 236.346909 
L 192.871834 236.239596 
L 193.176807 236.296103 
L 193.481781 236.220381 
L 194.396702 236.368826 
L 195.311622 236.13835 
L 196.226543 235.1449 
L 197.141464 234.760156 
L 197.751411 234.252716 
L 198.056385 234.199807 
L 198.361358 233.786017 
L 198.666332 233.575286 
L 198.971305 233.608771 
L 199.581253 232.815485 
L 199.886226 232.696128 
L 200.496173 232.811073 
L 200.801147 233.002802 
L 202.021041 233.074108 
L 202.326015 232.937499 
L 202.935962 233.11046 
L 203.545909 233.13637 
L 203.545909 233.13637 
" clip-path="url(#p94261af8b8)" style="fill: none; stroke: #000000; stroke-width: 0.5; stroke-linecap: square"/>
   </g>
   <g id="line2d_26">
    <path d="M 51.364091 232.773463 
L 51.669064 232.726543 
L 51.974038 232.414499 
L 52.583985 232.147588 
L 53.193932 231.587281 
L 53.80388 231.146539 
L 54.413827 230.674098 
L 54.7188 230.444385 
L 55.023774 230.371574 
L 55.938695 229.790305 
L 56.243668 229.709617 
L 56.548642 229.34209 
L 56.853615 229.30906 
L 57.158589 229.032576 
L 57.768536 229.270884 
L 58.07351 228.943347 
L 58.378483 229.406301 
L 58.98843 229.174507 
L 59.598378 229.267675 
L 60.208325 229.048492 
L 60.818272 229.556952 
L 62.34314 230.348357 
L 62.648113 230.51973 
L 63.258061 229.763799 
L 63.563034 229.882207 
L 63.868008 229.76975 
L 64.782929 228.847602 
L 65.087902 228.759481 
L 65.392876 228.321301 
L 65.697849 228.291947 
L 66.61277 227.55423 
L 67.222717 227.472152 
L 68.137638 227.727039 
L 68.442612 228.145246 
L 70.8824 229.66714 
L 71.187374 229.730011 
L 71.797321 229.599801 
L 72.407268 229.453183 
L 73.017215 229.063193 
L 73.322189 228.633553 
L 75.15203 223.991829 
L 75.761978 221.32795 
L 76.371925 218.355585 
L 76.981872 215.430443 
L 77.896793 210.634357 
L 80.031608 199.697629 
L 81.251502 194.530924 
L 82.471396 191.000001 
L 83.081344 189.722653 
L 83.691291 189.153953 
L 83.996264 189.066244 
L 84.606212 189.348262 
L 84.911185 189.569281 
L 86.131079 192.187293 
L 87.350974 196.436343 
L 87.960921 198.741187 
L 89.180815 204.054652 
L 90.095736 208.406963 
L 91.010657 212.798428 
L 91.620604 215.399567 
L 92.840498 219.764553 
L 94.060393 222.31664 
L 94.365366 222.785713 
L 94.975313 223.165332 
L 95.280287 223.227572 
L 95.890234 224.134238 
L 96.500181 224.183476 
L 97.720076 224.109369 
L 98.330023 224.270003 
L 98.634996 224.377812 
L 99.549917 225.187897 
L 100.464838 226.200977 
L 103.514574 230.840948 
L 103.819547 231.552942 
L 104.124521 231.502214 
L 104.734468 232.107946 
L 105.039442 232.122509 
L 105.344415 231.982973 
L 105.649389 231.967539 
L 105.954362 232.197445 
L 106.56431 232.340406 
L 106.869283 232.522202 
L 107.174257 232.39034 
L 107.784204 232.705337 
L 108.089177 232.643462 
L 108.394151 232.420622 
L 109.004098 233.05072 
L 109.614045 232.770189 
L 110.223993 233.295454 
L 110.528966 233.553004 
L 110.83394 233.457798 
L 111.138913 233.700616 
L 112.358808 233.990221 
L 116.323464 235.879286 
L 117.238385 235.917527 
L 118.153306 235.826306 
L 118.763253 235.838214 
L 119.068226 235.830213 
L 119.3732 236.24907 
L 119.983147 236.420648 
L 120.288121 236.36607 
L 120.898068 236.485358 
L 121.812989 236.656008 
L 122.117962 236.468246 
L 122.727909 236.41681 
L 123.64283 236.26622 
L 123.947804 236.091156 
L 124.252777 236.198138 
L 124.862725 235.938693 
L 125.167698 235.533102 
L 125.472672 235.653913 
L 126.387592 235.305396 
L 126.99754 235.414992 
L 127.607487 235.051488 
L 128.217434 234.775743 
L 128.522408 234.631415 
L 128.827381 234.68967 
L 129.437328 234.555507 
L 130.047275 234.185011 
L 130.657223 234.186486 
L 130.962196 234.078438 
L 131.26717 234.119024 
L 131.877117 233.928968 
L 133.706958 233.905559 
L 134.011932 233.823671 
L 135.231826 234.161214 
L 135.5368 233.970601 
L 136.146747 233.918032 
L 136.451721 233.83096 
L 136.756694 234.075813 
L 137.671615 234.201345 
L 137.976589 234.152617 
L 138.281562 234.297916 
L 138.586536 234.281284 
L 138.891509 234.377398 
L 139.196483 234.201066 
L 139.501457 234.190188 
L 139.80643 233.926288 
L 141.331298 233.761728 
L 142.246219 233.243642 
L 142.856166 233.108202 
L 143.16114 233.134907 
L 144.07606 232.857705 
L 145.905902 232.795486 
L 146.210875 232.483241 
L 146.820823 232.455446 
L 147.43077 232.034098 
L 148.040717 232.085561 
L 148.650664 231.979485 
L 149.260611 231.994868 
L 150.175532 232.055709 
L 150.480506 232.280647 
L 150.785479 232.048354 
L 151.090453 232.282358 
L 151.7004 232.280204 
L 152.615321 231.789259 
L 152.920294 231.742213 
L 153.530241 231.391635 
L 154.445162 231.380221 
L 156.579977 229.589673 
L 156.884951 229.517737 
L 157.189924 229.225838 
L 158.714792 228.912477 
L 159.019766 228.875349 
L 159.934687 229.583248 
L 161.764528 231.493178 
L 162.374475 232.439456 
L 162.984422 232.837064 
L 163.289396 233.161793 
L 163.899343 233.347225 
L 164.204317 233.187938 
L 164.814264 233.222693 
L 166.339132 231.925953 
L 166.644105 231.468949 
L 168.778921 226.400836 
L 170.303788 221.753546 
L 171.828656 217.170452 
L 173.048551 213.975371 
L 173.963471 212.502473 
L 174.573419 211.930346 
L 174.878392 211.638268 
L 175.183366 211.566688 
L 176.40326 212.275352 
L 177.318181 213.254266 
L 178.843049 216.902537 
L 180.977864 223.913939 
L 181.587811 225.761154 
L 182.807705 229.836863 
L 183.722626 232.550457 
L 184.332573 234.173818 
L 184.637547 234.637582 
L 184.94252 235.331832 
L 185.247494 235.662343 
L 185.552468 236.252197 
L 186.772362 236.971982 
L 187.077336 236.874337 
L 187.382309 236.902314 
L 188.602203 236.484568 
L 189.212151 235.994309 
L 190.432045 235.627529 
L 190.737019 235.647459 
L 191.956913 235.0826 
L 192.871834 234.817589 
L 193.176807 234.920068 
L 193.786754 234.723096 
L 194.396702 234.81799 
L 194.701675 234.802407 
L 195.311622 234.632423 
L 195.92157 234.683348 
L 196.226543 234.322744 
L 196.531517 234.75635 
L 197.141464 234.385116 
L 197.446437 234.116351 
L 197.751411 234.269228 
L 198.056385 234.024579 
L 198.361358 234.023313 
L 198.666332 233.871559 
L 198.971305 233.941838 
L 199.276279 233.756581 
L 199.886226 233.845493 
L 200.801147 233.172578 
L 201.411094 233.154026 
L 201.716068 233.467863 
L 202.630988 233.017674 
L 202.935962 233.166128 
L 203.240936 233.186921 
L 203.545909 232.943398 
L 203.545909 232.943398 
" clip-path="url(#p94261af8b8)" style="fill: none; stroke: #800080; stroke-width: 0.5; stroke-linecap: square"/>
   </g>
   <g id="patch_9">
    <path d="M 43.755 241.03875 
L 43.755 182.680855 
" style="fill: none; stroke: #000000; stroke-width: 0.8; stroke-linejoin: miter; stroke-linecap: square"/>
   </g>
   <g id="patch_10">
    <path d="M 43.755 241.03875 
L 211.155 241.03875 
" style="fill: none; stroke: #000000; stroke-width: 0.8; stroke-linejoin: miter; stroke-linecap: square"/>
   </g>
   <g id="text_22">
    <!-- Recorded response -->
    <g transform="translate(89.195625 176.680855) scale(0.08 -0.08)">
     <defs>
      <path id="DejaVuSans-52" d="M 2841 2188 
Q 3044 2119 3236 1894 
Q 3428 1669 3622 1275 
L 4263 0 
L 3584 0 
L 2988 1197 
Q 2756 1666 2539 1819 
Q 2322 1972 1947 1972 
L 1259 1972 
L 1259 0 
L 628 0 
L 628 4666 
L 2053 4666 
Q 2853 4666 3247 4331 
Q 3641 3997 3641 3322 
Q 3641 2881 3436 2590 
Q 3231 2300 2841 2188 
z
M 1259 4147 
L 1259 2491 
L 2053 2491 
Q 2509 2491 2742 2702 
Q 2975 2913 2975 3322 
Q 2975 3731 2742 3939 
Q 2509 4147 2053 4147 
L 1259 4147 
z
" transform="scale(0.015625)"/>
     </defs>
     <use xlink:href="#DejaVuSans-52"/>
     <use xlink:href="#DejaVuSans-65" x="64.982422"/>
     <use xlink:href="#DejaVuSans-63" x="126.505859"/>
     <use xlink:href="#DejaVuSans-6f" x="181.486328"/>
     <use xlink:href="#DejaVuSans-72" x="242.667969"/>
     <use xlink:href="#DejaVuSans-64" x="282.03125"/>
     <use xlink:href="#DejaVuSans-65" x="345.507812"/>
     <use xlink:href="#DejaVuSans-64" x="407.03125"/>
     <use xlink:href="#DejaVuSans-20" x="470.507812"/>
     <use xlink:href="#DejaVuSans-72" x="502.294922"/>
     <use xlink:href="#DejaVuSans-65" x="541.158203"/>
     <use xlink:href="#DejaVuSans-73" x="602.681641"/>
     <use xlink:href="#DejaVuSans-70" x="654.78125"/>
     <use xlink:href="#DejaVuSans-6f" x="718.257812"/>
     <use xlink:href="#DejaVuSans-6e" x="779.439453"/>
     <use xlink:href="#DejaVuSans-73" x="842.818359"/>
     <use xlink:href="#DejaVuSans-65" x="894.917969"/>
    </g>
   </g>
  </g>
 </g>
 <defs>
  <clipPath id="p08b42f0e30">
   <rect x="43.755" y="19.27875" width="167.4" height="58.357895"/>
  </clipPath>
  <clipPath id="pb66abad15d">
   <rect x="43.755" y="100.979803" width="167.4" height="58.357895"/>
  </clipPath>
  <clipPath id="p94261af8b8">
   <rect x="43.755" y="182.680855" width="167.4" height="58.357895"/>
  </clipPath>
 </defs>
</svg>
