<?xml version="1.0" encoding="utf-8" standalone="no"?>
<!DOCTYPE svg PUBLIC "-//W3C//DTD SVG 1.1//EN"
  "http://www.w3.org/Graphics/SVG/1.1/DTD/svg11.dtd">
<svg xmlns:xlink="http://www.w3.org/1999/xlink" width="160.778471pt" height="115.33375pt" viewBox="0 0 160.778471 115.33375" xmlns="http://www.w3.org/2000/svg" version="1.1">
 <metadata>
  <rdf:RDF xmlns:dc="http://purl.org/dc/elements/1.1/" xmlns:cc="http://creativecommons.org/ns#" xmlns:rdf="http://www.w3.org/1999/02/22-rdf-syntax-ns#">
   <cc:Work>
    <dc:type rdf:resource="http://purl.org/dc/dcmitype/StillImage"/>
    <dc:date>2026-05-01T16:20:06.311372</dc:date>
    <dc:format>image/svg+xml</dc:format>
    <dc:creator>
     <cc:Agent>
      <dc:title>Matplotlib v3.9.4, https://matplotlib.org/</dc:title>
     </cc:Agent>
    </dc:creator>
   </cc:Work>
  </rdf:RDF>
 </metadata>
 <defs>
  <style type="text/css">*{stroke-linejoin: round; stroke-linecap: butt}</style>
 </defs>
 <g id="figure_1">
  <g id="patch_1">
   <path d="M 0 115.33375 
L 160.778471 115.33375 
L 160.778471 -0 
L 0 -0 
z
" style="fill: #ffffff"/>
  </g>
  <g id="axes_1">
   <g id="patch_2">
    <path d="M 39.00875 81.64875 
L 150.60875 81.64875 
L 150.60875 19.27875 
L 39.00875 19.27875 
z
" style="fill: #ffffff"/>
   </g>
   <g id="PolyCollection_1">
    <path d="M 44.081477 81.057147 
L 44.081477 75.871689 
L 44.488925 75.836247 
L 44.896373 75.803095 
L 45.303821 75.772929 
L 45.711269 75.746707 
L 46.118717 75.724967 
L 46.526165 75.707928 
L 46.933613 75.695854 
L 47.341061 75.688459 
L 47.748509 75.685715 
L 48.155957 75.687295 
L 48.563405 75.692618 
L 48.970853 75.701418 
L 49.378301 75.71317 
L 49.785749 75.727039 
L 50.193197 75.742188 
L 50.600645 75.755777 
L 51.008093 75.738587 
L 51.415541 75.656734 
L 51.822989 75.816121 
L 52.230437 75.836006 
L 52.637885 75.855624 
L 53.045333 75.876072 
L 53.452781 75.897324 
L 53.860229 75.919513 
L 54.267677 75.942991 
L 54.675125 75.967645 
L 55.082573 75.992536 
L 55.490021 76.016851 
L 55.897469 76.040664 
L 56.304916 76.062087 
L 56.712364 76.077876 
L 57.119812 76.08894 
L 57.52726 76.098404 
L 57.934708 76.108464 
L 58.342156 76.126602 
L 58.749604 76.133942 
L 59.157052 76.141367 
L 59.5645 76.146125 
L 59.971948 76.142079 
L 60.379396 76.12258 
L 60.786844 76.087726 
L 61.194292 76.037858 
L 61.60174 75.974016 
L 62.009188 75.893995 
L 62.416636 75.795092 
L 62.824084 75.680319 
L 63.231532 75.555139 
L 63.63898 75.418323 
L 64.046428 75.268493 
L 64.453876 75.108743 
L 64.861324 74.945322 
L 65.268772 74.780606 
L 65.67622 74.617041 
L 66.083668 74.459832 
L 66.491116 74.31205 
L 66.898564 74.176601 
L 67.306012 74.055213 
L 67.71346 73.950664 
L 68.120908 73.865779 
L 68.528356 73.802242 
L 68.935804 73.759083 
L 69.343252 73.735291 
L 69.7507 73.730254 
L 70.158148 73.740973 
L 70.565596 73.766112 
L 70.973044 73.80259 
L 71.380492 73.846742 
L 71.787939 73.895689 
L 72.195387 73.948542 
L 72.602835 74.002254 
L 73.010283 74.043066 
L 73.417731 74.057113 
L 73.825179 74.037385 
L 74.232627 73.95716 
L 74.640075 73.767881 
L 75.047523 73.293306 
L 75.454971 71.804213 
L 75.862419 70.393917 
L 76.269867 69.836886 
L 76.677315 69.76469 
L 77.084763 70.11599 
L 77.492211 70.334771 
L 77.899659 70.682757 
L 78.307107 71.529755 
L 78.714555 72.220613 
L 79.122003 72.762268 
L 79.529451 73.002337 
L 79.936899 73.22273 
L 80.344347 73.034515 
L 80.751795 72.726173 
L 81.159243 72.29091 
L 81.566691 71.714017 
L 81.974139 70.98037 
L 82.381587 70.083881 
L 82.789035 69.030169 
L 83.196483 67.842157 
L 83.603931 66.561631 
L 84.011379 65.235697 
L 84.418827 63.924026 
L 84.826275 62.690179 
L 85.233723 61.583296 
L 85.641171 60.635232 
L 86.048619 59.865024 
L 86.456067 59.27874 
L 86.863515 58.882178 
L 87.270962 58.660533 
L 87.67841 58.598507 
L 88.085858 58.675907 
L 88.493306 58.890741 
L 88.900754 59.217419 
L 89.308202 59.641257 
L 89.71565 60.147174 
L 90.123098 60.726085 
L 90.530546 61.36682 
L 90.937994 62.059041 
L 91.345442 62.794968 
L 91.75289 63.564166 
L 92.160338 64.357285 
L 92.567786 65.166108 
L 92.975234 65.981681 
L 93.382682 66.794152 
L 93.79013 67.598677 
L 94.197578 68.388443 
L 94.605026 69.161671 
L 95.012474 69.915745 
L 95.419922 70.651225 
L 95.82737 71.364525 
L 96.234818 72.057762 
L 96.642266 72.727788 
L 97.049714 73.364437 
L 97.457162 73.964467 
L 97.86461 74.519293 
L 98.272058 75.021858 
L 98.679506 75.464649 
L 99.086954 75.846377 
L 99.494402 76.171562 
L 99.90185 76.44789 
L 100.309298 76.680471 
L 100.716746 76.877154 
L 101.124194 77.045598 
L 101.531642 77.19186 
L 101.93909 77.321057 
L 102.346538 77.437218 
L 102.753985 77.543418 
L 103.161433 77.641771 
L 103.568881 77.733786 
L 103.976329 77.820511 
L 104.383777 77.902685 
L 104.791225 77.980824 
L 105.198673 78.055298 
L 105.606121 78.126414 
L 106.013569 78.194346 
L 106.421017 78.259247 
L 106.828465 78.321216 
L 107.235913 78.380532 
L 107.643361 78.437205 
L 108.050809 78.491312 
L 108.458257 78.543098 
L 108.865705 78.592558 
L 109.273153 78.639801 
L 109.680601 78.684908 
L 110.088049 78.727986 
L 110.495497 78.76908 
L 110.902945 78.808189 
L 111.310393 78.845377 
L 111.717841 78.880635 
L 112.125289 78.914116 
L 112.532737 78.945712 
L 112.940185 78.975524 
L 113.347633 79.003756 
L 113.755081 79.030267 
L 114.162529 79.055183 
L 114.569977 79.078483 
L 114.977425 79.100462 
L 115.384873 79.12087 
L 115.792321 79.140037 
L 116.199769 79.15803 
L 116.607217 79.174689 
L 117.014665 79.190108 
L 117.422113 79.204779 
L 117.829561 79.218364 
L 118.237008 79.230856 
L 118.644456 79.242726 
L 119.051904 79.253859 
L 119.459352 79.264152 
L 119.8668 79.273479 
L 120.274248 79.282451 
L 120.681696 79.290659 
L 121.089144 79.298366 
L 121.496592 79.305316 
L 121.90404 79.311839 
L 122.311488 79.31781 
L 122.718936 79.323061 
L 123.126384 79.327946 
L 123.533832 79.332217 
L 123.94128 79.336239 
L 124.348728 79.339802 
L 124.756176 79.342948 
L 125.163624 79.345728 
L 125.571072 79.348275 
L 125.97852 79.350495 
L 126.385968 79.352388 
L 126.793416 79.353842 
L 127.200864 79.355191 
L 127.608312 79.356254 
L 128.01576 79.357192 
L 128.423208 79.35793 
L 128.830656 79.358352 
L 129.238104 79.358861 
L 129.645552 79.359128 
L 130.053 79.359146 
L 130.460448 79.358983 
L 130.867896 79.358569 
L 131.275344 79.358134 
L 131.682792 79.357309 
L 132.09024 79.356158 
L 132.497688 79.354758 
L 132.905136 79.353042 
L 133.312584 79.351214 
L 133.720031 79.349133 
L 134.127479 79.346883 
L 134.534927 79.344374 
L 134.942375 79.341962 
L 135.349823 79.339475 
L 135.757271 79.336885 
L 136.164719 79.334283 
L 136.572167 79.331915 
L 136.979615 79.329468 
L 137.387063 79.327309 
L 137.794511 79.325293 
L 138.201959 79.323362 
L 138.609407 79.321751 
L 139.016855 79.320377 
L 139.424303 79.319074 
L 139.831751 79.318037 
L 140.239199 79.317215 
L 140.646647 79.316603 
L 141.054095 79.316138 
L 141.461543 79.315763 
L 141.868991 79.315552 
L 142.276439 79.315451 
L 142.683887 79.31538 
L 143.091335 79.315293 
L 143.498783 79.315268 
L 143.906231 79.315125 
L 144.313679 79.314895 
L 144.721127 79.31468 
L 145.128575 79.314361 
L 145.536023 79.313884 
L 145.536023 80.489813 
L 145.536023 80.489813 
L 145.128575 80.490278 
L 144.721127 80.490749 
L 144.313679 80.491249 
L 143.906231 80.491888 
L 143.498783 80.492494 
L 143.091335 80.492976 
L 142.683887 80.493508 
L 142.276439 80.493918 
L 141.868991 80.494226 
L 141.461543 80.494454 
L 141.054095 80.494612 
L 140.646647 80.494545 
L 140.239199 80.494276 
L 139.831751 80.493839 
L 139.424303 80.493208 
L 139.016855 80.492416 
L 138.609407 80.491237 
L 138.201959 80.489855 
L 137.794511 80.488411 
L 137.387063 80.486635 
L 136.979615 80.484643 
L 136.572167 80.482669 
L 136.164719 80.480324 
L 135.757271 80.478064 
L 135.349823 80.475665 
L 134.942375 80.473104 
L 134.534927 80.470496 
L 134.127479 80.468141 
L 133.720031 80.465693 
L 133.312584 80.463353 
L 132.905136 80.461077 
L 132.497688 80.459115 
L 132.09024 80.45726 
L 131.682792 80.455619 
L 131.275344 80.454129 
L 130.867896 80.45268 
L 130.460448 80.451698 
L 130.053 80.450846 
L 129.645552 80.450159 
L 129.238104 80.449495 
L 128.830656 80.448829 
L 128.423208 80.448569 
L 128.01576 80.448221 
L 127.608312 80.447959 
L 127.200864 80.447935 
L 126.793416 80.447989 
L 126.385968 80.448395 
L 125.97852 80.448765 
L 125.571072 80.449277 
L 125.163624 80.449948 
L 124.756176 80.450925 
L 124.348728 80.452078 
L 123.94128 80.453367 
L 123.533832 80.454763 
L 123.126384 80.45657 
L 122.718936 80.458377 
L 122.311488 80.460538 
L 121.90404 80.462614 
L 121.496592 80.464875 
L 121.089144 80.467553 
L 120.681696 80.470215 
L 120.274248 80.473272 
L 119.8668 80.476436 
L 119.459352 80.48028 
L 119.051904 80.484058 
L 118.644456 80.487992 
L 118.237008 80.492293 
L 117.829561 80.497195 
L 117.422113 80.502129 
L 117.014665 80.50722 
L 116.607217 80.513001 
L 116.199769 80.518907 
L 115.792321 80.524907 
L 115.384873 80.531323 
L 114.977425 80.53815 
L 114.569977 80.545 
L 114.162529 80.552317 
L 113.755081 80.559715 
L 113.347633 80.567282 
L 112.940185 80.57482 
L 112.532737 80.582551 
L 112.125289 80.590136 
L 111.717841 80.597353 
L 111.310393 80.604303 
L 110.902945 80.610642 
L 110.495497 80.61627 
L 110.088049 80.620956 
L 109.680601 80.624592 
L 109.273153 80.62697 
L 108.865705 80.627775 
L 108.458257 80.626748 
L 108.050809 80.623566 
L 107.643361 80.618177 
L 107.235913 80.609971 
L 106.828465 80.598712 
L 106.421017 80.58431 
L 106.013569 80.56603 
L 105.606121 80.543517 
L 105.198673 80.516294 
L 104.791225 80.483875 
L 104.383777 80.445421 
L 103.976329 80.400054 
L 103.568881 80.346793 
L 103.161433 80.284541 
L 102.753985 80.2122 
L 102.346538 80.128628 
L 101.93909 80.033798 
L 101.531642 79.926594 
L 101.124194 79.806134 
L 100.716746 79.672156 
L 100.309298 79.523893 
L 99.90185 79.36616 
L 99.494402 79.200513 
L 99.086954 79.018205 
L 98.679506 78.828987 
L 98.272058 78.634326 
L 97.86461 78.422463 
L 97.457162 78.170405 
L 97.049714 77.866948 
L 96.642266 77.503785 
L 96.234818 77.093254 
L 95.82737 76.629062 
L 95.419922 76.125052 
L 95.012474 75.604982 
L 94.605026 75.07629 
L 94.197578 74.555138 
L 93.79013 74.0506 
L 93.382682 73.574365 
L 92.975234 73.128891 
L 92.567786 72.722362 
L 92.160338 72.35382 
L 91.75289 72.024518 
L 91.345442 71.73739 
L 90.937994 71.492662 
L 90.530546 71.288078 
L 90.123098 71.126994 
L 89.71565 71.008444 
L 89.308202 70.931701 
L 88.900754 70.904171 
L 88.493306 70.923905 
L 88.085858 70.99446 
L 87.67841 71.097586 
L 87.270962 71.274282 
L 86.863515 71.522606 
L 86.456067 71.84633 
L 86.048619 72.236731 
L 85.641171 72.713898 
L 85.233723 73.264443 
L 84.826275 73.864655 
L 84.418827 74.477303 
L 84.011379 75.072314 
L 83.603931 75.640421 
L 83.196483 76.165414 
L 82.789035 76.621673 
L 82.381587 77.015758 
L 81.974139 77.351182 
L 81.566691 77.629162 
L 81.159243 77.856188 
L 80.751795 78.036648 
L 80.344347 78.187263 
L 79.936899 78.332947 
L 79.529451 78.717502 
L 79.122003 79.068291 
L 78.714555 79.578034 
L 78.307107 80.162391 
L 77.899659 80.847239 
L 77.492211 81.132414 
L 77.084763 81.259704 
L 76.677315 81.460663 
L 76.269867 81.341526 
L 75.862419 80.846622 
L 75.454971 79.777219 
L 75.047523 78.646066 
L 74.640075 78.298516 
L 74.232627 78.137491 
L 73.825179 78.04711 
L 73.417731 77.999939 
L 73.010283 77.971614 
L 72.602835 77.97944 
L 72.195387 78.008848 
L 71.787939 78.036439 
L 71.380492 78.066149 
L 70.973044 78.106682 
L 70.565596 78.15918 
L 70.158148 78.22078 
L 69.7507 78.288745 
L 69.343252 78.36495 
L 68.935804 78.442825 
L 68.528356 78.522606 
L 68.120908 78.600583 
L 67.71346 78.670256 
L 67.306012 78.734357 
L 66.898564 78.798853 
L 66.491116 78.866896 
L 66.083668 78.932674 
L 65.67622 78.992251 
L 65.268772 79.040055 
L 64.861324 79.083568 
L 64.453876 79.119338 
L 64.046428 79.145479 
L 63.63898 79.176865 
L 63.231532 79.2133 
L 62.824084 79.251295 
L 62.416636 79.283816 
L 62.009188 79.322938 
L 61.60174 79.379513 
L 61.194292 79.445399 
L 60.786844 79.513031 
L 60.379396 79.588565 
L 59.971948 79.66083 
L 59.5645 79.741495 
L 59.157052 79.822624 
L 58.749604 79.895115 
L 58.342156 79.965362 
L 57.934708 80.030345 
L 57.52726 80.097199 
L 57.119812 80.164169 
L 56.712364 80.228796 
L 56.304916 80.29198 
L 55.897469 80.349509 
L 55.490021 80.40627 
L 55.082573 80.460743 
L 54.675125 80.508409 
L 54.267677 80.550932 
L 53.860229 80.590615 
L 53.452781 80.627498 
L 53.045333 80.660772 
L 52.637885 80.691513 
L 52.230437 80.720821 
L 51.822989 80.747866 
L 51.415541 80.865594 
L 51.008093 80.815543 
L 50.600645 80.823373 
L 50.193197 80.847473 
L 49.785749 80.87059 
L 49.378301 80.892362 
L 48.970853 80.912395 
L 48.563405 80.931511 
L 48.155957 80.949557 
L 47.748509 80.965661 
L 47.341061 80.980644 
L 46.933613 80.994517 
L 46.526165 81.006492 
L 46.118717 81.017422 
L 45.711269 81.026773 
L 45.303821 81.03519 
L 44.896373 81.043161 
L 44.488925 81.050211 
L 44.081477 81.057147 
z
" clip-path="url(#p8834565f3f)" style="fill: #3b4cc0; fill-opacity: 0.3"/>
   </g>
   <g id="matplotlib.axis_1">
    <g id="xtick_1">
     <g id="line2d_1">
      <defs>
       <path id="mecc4823f87" d="M 0 0 
L 0 3.5 
" style="stroke: #000000; stroke-width: 0.8"/>
      </defs>
      <g>
       <use xlink:href="#mecc4823f87" x="44.081477" y="81.64875" style="stroke: #000000; stroke-width: 0.8"/>
      </g>
     </g>
     <g id="text_1">
      <!-- 0 -->
      <g transform="translate(41.536477 94.7275) scale(0.08 -0.08)">
       <defs>
        <path id="DejaVuSans-30" d="M 2034 4250 
Q 1547 4250 1301 3770 
Q 1056 3291 1056 2328 
Q 1056 1369 1301 889 
Q 1547 409 2034 409 
Q 2525 409 2770 889 
Q 3016 1369 3016 2328 
Q 3016 3291 2770 3770 
Q 2525 4250 2034 4250 
z
M 2034 4750 
Q 2819 4750 3233 4129 
Q 3647 3509 3647 2328 
Q 3647 1150 3233 529 
Q 2819 -91 2034 -91 
Q 1250 -91 836 529 
Q 422 1150 422 2328 
Q 422 3509 836 4129 
Q 1250 4750 2034 4750 
z
" transform="scale(0.015625)"/>
       </defs>
       <use xlink:href="#DejaVuSans-30"/>
      </g>
     </g>
    </g>
    <g id="xtick_2">
     <g id="line2d_2">
      <g>
       <use xlink:href="#mecc4823f87" x="64.453876" y="81.64875" style="stroke: #000000; stroke-width: 0.8"/>
      </g>
     </g>
     <g id="text_2">
      <!-- 50 -->
      <g transform="translate(59.363876 94.7275) scale(0.08 -0.08)">
       <defs>
        <path id="DejaVuSans-35" d="M 691 4666 
L 3169 4666 
L 3169 4134 
L 1269 4134 
L 1269 2991 
Q 1406 3038 1543 3061 
Q 1681 3084 1819 3084 
Q 2600 3084 3056 2656 
Q 3513 2228 3513 1497 
Q 3513 744 3044 326 
Q 2575 -91 1722 -91 
Q 1428 -91 1123 -41 
Q 819 9 494 109 
L 494 744 
Q 775 591 1075 516 
Q 1375 441 1709 441 
Q 2250 441 2565 725 
Q 2881 1009 2881 1497 
Q 2881 1984 2565 2268 
Q 2250 2553 1709 2553 
Q 1456 2553 1204 2497 
Q 953 2441 691 2322 
L 691 4666 
z
" transform="scale(0.015625)"/>
       </defs>
       <use xlink:href="#DejaVuSans-35"/>
       <use xlink:href="#DejaVuSans-30" x="63.623047"/>
      </g>
     </g>
    </g>
    <g id="xtick_3">
     <g id="line2d_3">
      <g>
       <use xlink:href="#mecc4823f87" x="84.826275" y="81.64875" style="stroke: #000000; stroke-width: 0.8"/>
      </g>
     </g>
     <g id="text_3">
      <!-- 100 -->
      <g transform="translate(77.191275 94.7275) scale(0.08 -0.08)">
       <defs>
        <path id="DejaVuSans-31" d="M 794 531 
L 1825 531 
L 1825 4091 
L 703 3866 
L 703 4441 
L 1819 4666 
L 2450 4666 
L 2450 531 
L 3481 531 
L 3481 0 
L 794 0 
L 794 531 
z
" transform="scale(0.015625)"/>
       </defs>
       <use xlink:href="#DejaVuSans-31"/>
       <use xlink:href="#DejaVuSans-30" x="63.623047"/>
       <use xlink:href="#DejaVuSans-30" x="127.246094"/>
      </g>
     </g>
    </g>
    <g id="xtick_4">
     <g id="line2d_4">
      <g>
       <use xlink:href="#mecc4823f87" x="105.198673" y="81.64875" style="stroke: #000000; stroke-width: 0.8"/>
      </g>
     </g>
     <g id="text_4">
      <!-- 150 -->
      <g transform="translate(97.563673 94.7275) scale(0.08 -0.08)">
       <use xlink:href="#DejaVuSans-31"/>
       <use xlink:href="#DejaVuSans-35" x="63.623047"/>
       <use xlink:href="#DejaVuSans-30" x="127.246094"/>
      </g>
     </g>
    </g>
    <g id="xtick_5">
     <g id="line2d_5">
      <g>
       <use xlink:href="#mecc4823f87" x="125.571072" y="81.64875" style="stroke: #000000; stroke-width: 0.8"/>
      </g>
     </g>
     <g id="text_5">
      <!-- 200 -->
      <g transform="translate(117.936072 94.7275) scale(0.08 -0.08)">
       <defs>
        <path id="DejaVuSans-32" d="M 1228 531 
L 3431 531 
L 3431 0 
L 469 0 
L 469 531 
Q 828 903 1448 1529 
Q 2069 2156 2228 2338 
Q 2531 2678 2651 2914 
Q 2772 3150 2772 3378 
Q 2772 3750 2511 3984 
Q 2250 4219 1831 4219 
Q 1534 4219 1204 4116 
Q 875 4013 500 3803 
L 500 4441 
Q 881 4594 1212 4672 
Q 1544 4750 1819 4750 
Q 2544 4750 2975 4387 
Q 3406 4025 3406 3419 
Q 3406 3131 3298 2873 
Q 3191 2616 2906 2266 
Q 2828 2175 2409 1742 
Q 1991 1309 1228 531 
z
" transform="scale(0.015625)"/>
       </defs>
       <use xlink:href="#DejaVuSans-32"/>
       <use xlink:href="#DejaVuSans-30" x="63.623047"/>
       <use xlink:href="#DejaVuSans-30" x="127.246094"/>
      </g>
     </g>
    </g>
    <g id="xtick_6">
     <g id="line2d_6">
      <g>
       <use xlink:href="#mecc4823f87" x="145.943471" y="81.64875" style="stroke: #000000; stroke-width: 0.8"/>
      </g>
     </g>
     <g id="text_6">
      <!-- 250 -->
      <g transform="translate(138.308471 94.7275) scale(0.08 -0.08)">
       <use xlink:href="#DejaVuSans-32"/>
       <use xlink:href="#DejaVuSans-35" x="63.623047"/>
       <use xlink:href="#DejaVuSans-30" x="127.246094"/>
      </g>
     </g>
    </g>
    <g id="text_7">
     <!-- Time (ms) -->
     <g transform="translate(74.649375 106.47) scale(0.08 -0.08)">
      <defs>
       <path id="DejaVuSans-54" d="M -19 4666 
L 3928 4666 
L 3928 4134 
L 2272 4134 
L 2272 0 
L 1638 0 
L 1638 4134 
L -19 4134 
L -19 4666 
z
" transform="scale(0.015625)"/>
       <path id="DejaVuSans-69" d="M 603 3500 
L 1178 3500 
L 1178 0 
L 603 0 
L 603 3500 
z
M 603 4863 
L 1178 4863 
L 1178 4134 
L 603 4134 
L 603 4863 
z
" transform="scale(0.015625)"/>
       <path id="DejaVuSans-6d" d="M 3328 2828 
Q 3544 3216 3844 3400 
Q 4144 3584 4550 3584 
Q 5097 3584 5394 3201 
Q 5691 2819 5691 2113 
L 5691 0 
L 5113 0 
L 5113 2094 
Q 5113 2597 4934 2840 
Q 4756 3084 4391 3084 
Q 3944 3084 3684 2787 
Q 3425 2491 3425 1978 
L 3425 0 
L 2847 0 
L 2847 2094 
Q 2847 2600 2669 2842 
Q 2491 3084 2119 3084 
Q 1678 3084 1418 2786 
Q 1159 2488 1159 1978 
L 1159 0 
L 581 0 
L 581 3500 
L 1159 3500 
L 1159 2956 
Q 1356 3278 1631 3431 
Q 1906 3584 2284 3584 
Q 2666 3584 2933 3390 
Q 3200 3197 3328 2828 
z
" transform="scale(0.015625)"/>
       <path id="DejaVuSans-65" d="M 3597 1894 
L 3597 1613 
L 953 1613 
Q 991 1019 1311 708 
Q 1631 397 2203 397 
Q 2534 397 2845 478 
Q 3156 559 3463 722 
L 3463 178 
Q 3153 47 2828 -22 
Q 2503 -91 2169 -91 
Q 1331 -91 842 396 
Q 353 884 353 1716 
Q 353 2575 817 3079 
Q 1281 3584 2069 3584 
Q 2775 3584 3186 3129 
Q 3597 2675 3597 1894 
z
M 3022 2063 
Q 3016 2534 2758 2815 
Q 2500 3097 2075 3097 
Q 1594 3097 1305 2825 
Q 1016 2553 972 2059 
L 3022 2063 
z
" transform="scale(0.015625)"/>
       <path id="DejaVuSans-20" transform="scale(0.015625)"/>
       <path id="DejaVuSans-28" d="M 1984 4856 
Q 1566 4138 1362 3434 
Q 1159 2731 1159 2009 
Q 1159 1288 1364 580 
Q 1569 -128 1984 -844 
L 1484 -844 
Q 1016 -109 783 600 
Q 550 1309 550 2009 
Q 550 2706 781 3412 
Q 1013 4119 1484 4856 
L 1984 4856 
z
" transform="scale(0.015625)"/>
       <path id="DejaVuSans-73" d="M 2834 3397 
L 2834 2853 
Q 2591 2978 2328 3040 
Q 2066 3103 1784 3103 
Q 1356 3103 1142 2972 
Q 928 2841 928 2578 
Q 928 2378 1081 2264 
Q 1234 2150 1697 2047 
L 1894 2003 
Q 2506 1872 2764 1633 
Q 3022 1394 3022 966 
Q 3022 478 2636 193 
Q 2250 -91 1575 -91 
Q 1294 -91 989 -36 
Q 684 19 347 128 
L 347 722 
Q 666 556 975 473 
Q 1284 391 1588 391 
Q 1994 391 2212 530 
Q 2431 669 2431 922 
Q 2431 1156 2273 1281 
Q 2116 1406 1581 1522 
L 1381 1569 
Q 847 1681 609 1914 
Q 372 2147 372 2553 
Q 372 3047 722 3315 
Q 1072 3584 1716 3584 
Q 2034 3584 2315 3537 
Q 2597 3491 2834 3397 
z
" transform="scale(0.015625)"/>
       <path id="DejaVuSans-29" d="M 513 4856 
L 1013 4856 
Q 1481 4119 1714 3412 
Q 1947 2706 1947 2009 
Q 1947 1309 1714 600 
Q 1481 -109 1013 -844 
L 513 -844 
Q 928 -128 1133 580 
Q 1338 1288 1338 2009 
Q 1338 2731 1133 3434 
Q 928 4138 513 4856 
z
" transform="scale(0.015625)"/>
      </defs>
      <use xlink:href="#DejaVuSans-54"/>
      <use xlink:href="#DejaVuSans-69" x="57.958984"/>
      <use xlink:href="#DejaVuSans-6d" x="85.742188"/>
      <use xlink:href="#DejaVuSans-65" x="183.154297"/>
      <use xlink:href="#DejaVuSans-20" x="244.677734"/>
      <use xlink:href="#DejaVuSans-28" x="276.464844"/>
      <use xlink:href="#DejaVuSans-6d" x="315.478516"/>
      <use xlink:href="#DejaVuSans-73" x="412.890625"/>
      <use xlink:href="#DejaVuSans-29" x="464.990234"/>
     </g>
    </g>
   </g>
   <g id="matplotlib.axis_2">
    <g id="ytick_1">
     <g id="line2d_7">
      <defs>
       <path id="mb7633c9037" d="M 0 0 
L -3.5 0 
" style="stroke: #000000; stroke-width: 0.8"/>
      </defs>
      <g>
       <use xlink:href="#mb7633c9037" x="39.00875" y="79.963074" style="stroke: #000000; stroke-width: 0.8"/>
      </g>
     </g>
     <g id="text_8">
      <!-- 0 -->
      <g transform="translate(26.91875 83.002449) scale(0.08 -0.08)">
       <use xlink:href="#DejaVuSans-30"/>
      </g>
     </g>
    </g>
    <g id="ytick_2">
     <g id="line2d_8">
      <g>
       <use xlink:href="#mb7633c9037" x="39.00875" y="69.84902" style="stroke: #000000; stroke-width: 0.8"/>
      </g>
     </g>
     <g id="text_9">
      <!-- 30 -->
      <g transform="translate(21.82875 72.888395) scale(0.08 -0.08)">
       <defs>
        <path id="DejaVuSans-33" d="M 2597 2516 
Q 3050 2419 3304 2112 
Q 3559 1806 3559 1356 
Q 3559 666 3084 287 
Q 2609 -91 1734 -91 
Q 1441 -91 1130 -33 
Q 819 25 488 141 
L 488 750 
Q 750 597 1062 519 
Q 1375 441 1716 441 
Q 2309 441 2620 675 
Q 2931 909 2931 1356 
Q 2931 1769 2642 2001 
Q 2353 2234 1838 2234 
L 1294 2234 
L 1294 2753 
L 1863 2753 
Q 2328 2753 2575 2939 
Q 2822 3125 2822 3475 
Q 2822 3834 2567 4026 
Q 2313 4219 1838 4219 
Q 1578 4219 1281 4162 
Q 984 4106 628 3988 
L 628 4550 
Q 988 4650 1302 4700 
Q 1616 4750 1894 4750 
Q 2613 4750 3031 4423 
Q 3450 4097 3450 3541 
Q 3450 3153 3228 2886 
Q 3006 2619 2597 2516 
z
" transform="scale(0.015625)"/>
       </defs>
       <use xlink:href="#DejaVuSans-33"/>
       <use xlink:href="#DejaVuSans-30" x="63.623047"/>
      </g>
     </g>
    </g>
    <g id="ytick_3">
     <g id="line2d_9">
      <g>
       <use xlink:href="#mb7633c9037" x="39.00875" y="59.734966" style="stroke: #000000; stroke-width: 0.8"/>
      </g>
     </g>
     <g id="text_10">
      <!-- 60 -->
      <g transform="translate(21.82875 62.774341) scale(0.08 -0.08)">
       <defs>
        <path id="DejaVuSans-36" d="M 2113 2584 
Q 1688 2584 1439 2293 
Q 1191 2003 1191 1497 
Q 1191 994 1439 701 
Q 1688 409 2113 409 
Q 2538 409 2786 701 
Q 3034 994 3034 1497 
Q 3034 2003 2786 2293 
Q 2538 2584 2113 2584 
z
M 3366 4563 
L 3366 3988 
Q 3128 4100 2886 4159 
Q 2644 4219 2406 4219 
Q 1781 4219 1451 3797 
Q 1122 3375 1075 2522 
Q 1259 2794 1537 2939 
Q 1816 3084 2150 3084 
Q 2853 3084 3261 2657 
Q 3669 2231 3669 1497 
Q 3669 778 3244 343 
Q 2819 -91 2113 -91 
Q 1303 -91 875 529 
Q 447 1150 447 2328 
Q 447 3434 972 4092 
Q 1497 4750 2381 4750 
Q 2619 4750 2861 4703 
Q 3103 4656 3366 4563 
z
" transform="scale(0.015625)"/>
       </defs>
       <use xlink:href="#DejaVuSans-36"/>
       <use xlink:href="#DejaVuSans-30" x="63.623047"/>
      </g>
     </g>
    </g>
    <g id="ytick_4">
     <g id="line2d_10">
      <g>
       <use xlink:href="#mb7633c9037" x="39.00875" y="49.620912" style="stroke: #000000; stroke-width: 0.8"/>
      </g>
     </g>
     <g id="text_11">
      <!-- 90 -->
      <g transform="translate(21.82875 52.660287) scale(0.08 -0.08)">
       <defs>
        <path id="DejaVuSans-39" d="M 703 97 
L 703 672 
Q 941 559 1184 500 
Q 1428 441 1663 441 
Q 2288 441 2617 861 
Q 2947 1281 2994 2138 
Q 2813 1869 2534 1725 
Q 2256 1581 1919 1581 
Q 1219 1581 811 2004 
Q 403 2428 403 3163 
Q 403 3881 828 4315 
Q 1253 4750 1959 4750 
Q 2769 4750 3195 4129 
Q 3622 3509 3622 2328 
Q 3622 1225 3098 567 
Q 2575 -91 1691 -91 
Q 1453 -91 1209 -44 
Q 966 3 703 97 
z
M 1959 2075 
Q 2384 2075 2632 2365 
Q 2881 2656 2881 3163 
Q 2881 3666 2632 3958 
Q 2384 4250 1959 4250 
Q 1534 4250 1286 3958 
Q 1038 3666 1038 3163 
Q 1038 2656 1286 2365 
Q 1534 2075 1959 2075 
z
" transform="scale(0.015625)"/>
       </defs>
       <use xlink:href="#DejaVuSans-39"/>
       <use xlink:href="#DejaVuSans-30" x="63.623047"/>
      </g>
     </g>
    </g>
    <g id="ytick_5">
     <g id="line2d_11">
      <g>
       <use xlink:href="#mb7633c9037" x="39.00875" y="39.506858" style="stroke: #000000; stroke-width: 0.8"/>
      </g>
     </g>
     <g id="text_12">
      <!-- -60 -->
      <g transform="translate(18.9425 42.546233) scale(0.08 -0.08)">
       <defs>
        <path id="DejaVuSans-2d" d="M 313 2009 
L 1997 2009 
L 1997 1497 
L 313 1497 
L 313 2009 
z
" transform="scale(0.015625)"/>
       </defs>
       <use xlink:href="#DejaVuSans-2d"/>
       <use xlink:href="#DejaVuSans-36" x="36.083984"/>
       <use xlink:href="#DejaVuSans-30" x="99.707031"/>
      </g>
     </g>
    </g>
    <g id="ytick_6">
     <g id="line2d_12">
      <g>
       <use xlink:href="#mb7633c9037" x="39.00875" y="29.392804" style="stroke: #000000; stroke-width: 0.8"/>
      </g>
     </g>
     <g id="text_13">
      <!-- -30 -->
      <g transform="translate(18.9425 32.432179) scale(0.08 -0.08)">
       <use xlink:href="#DejaVuSans-2d"/>
       <use xlink:href="#DejaVuSans-33" x="36.083984"/>
       <use xlink:href="#DejaVuSans-30" x="99.707031"/>
      </g>
     </g>
    </g>
    <g id="ytick_7">
     <g id="line2d_13">
      <g>
       <use xlink:href="#mb7633c9037" x="39.00875" y="19.27875" style="stroke: #000000; stroke-width: 0.8"/>
      </g>
     </g>
     <g id="text_14">
      <!-- 0 -->
      <g transform="translate(26.91875 22.318125) scale(0.08 -0.08)">
       <use xlink:href="#DejaVuSans-30"/>
      </g>
     </g>
    </g>
    <g id="text_15">
     <!-- Degrees -->
     <g transform="translate(13.27875 67.105) rotate(-90) scale(0.08 -0.08)">
      <defs>
       <path id="DejaVuSans-44" d="M 1259 4147 
L 1259 519 
L 2022 519 
Q 2988 519 3436 956 
Q 3884 1394 3884 2338 
Q 3884 3275 3436 3711 
Q 2988 4147 2022 4147 
L 1259 4147 
z
M 628 4666 
L 1925 4666 
Q 3281 4666 3915 4102 
Q 4550 3538 4550 2338 
Q 4550 1131 3912 565 
Q 3275 0 1925 0 
L 628 0 
L 628 4666 
z
" transform="scale(0.015625)"/>
       <path id="DejaVuSans-67" d="M 2906 1791 
Q 2906 2416 2648 2759 
Q 2391 3103 1925 3103 
Q 1463 3103 1205 2759 
Q 947 2416 947 1791 
Q 947 1169 1205 825 
Q 1463 481 1925 481 
Q 2391 481 2648 825 
Q 2906 1169 2906 1791 
z
M 3481 434 
Q 3481 -459 3084 -895 
Q 2688 -1331 1869 -1331 
Q 1566 -1331 1297 -1286 
Q 1028 -1241 775 -1147 
L 775 -588 
Q 1028 -725 1275 -790 
Q 1522 -856 1778 -856 
Q 2344 -856 2625 -561 
Q 2906 -266 2906 331 
L 2906 616 
Q 2728 306 2450 153 
Q 2172 0 1784 0 
Q 1141 0 747 490 
Q 353 981 353 1791 
Q 353 2603 747 3093 
Q 1141 3584 1784 3584 
Q 2172 3584 2450 3431 
Q 2728 3278 2906 2969 
L 2906 3500 
L 3481 3500 
L 3481 434 
z
" transform="scale(0.015625)"/>
       <path id="DejaVuSans-72" d="M 2631 2963 
Q 2534 3019 2420 3045 
Q 2306 3072 2169 3072 
Q 1681 3072 1420 2755 
Q 1159 2438 1159 1844 
L 1159 0 
L 581 0 
L 581 3500 
L 1159 3500 
L 1159 2956 
Q 1341 3275 1631 3429 
Q 1922 3584 2338 3584 
Q 2397 3584 2469 3576 
Q 2541 3569 2628 3553 
L 2631 2963 
z
" transform="scale(0.015625)"/>
      </defs>
      <use xlink:href="#DejaVuSans-44"/>
      <use xlink:href="#DejaVuSans-65" x="77.001953"/>
      <use xlink:href="#DejaVuSans-67" x="138.525391"/>
      <use xlink:href="#DejaVuSans-72" x="202.001953"/>
      <use xlink:href="#DejaVuSans-65" x="240.865234"/>
      <use xlink:href="#DejaVuSans-65" x="302.388672"/>
      <use xlink:href="#DejaVuSans-73" x="363.912109"/>
     </g>
    </g>
   </g>
   <g id="line2d_14">
    <path d="M 44.081477 49.620912 
L 145.536023 49.620912 
L 145.536023 49.620912 
" clip-path="url(#p8834565f3f)" style="fill: none; stroke-dasharray: 1.85,0.8; stroke-dashoffset: 0; stroke: #000000; stroke-width: 0.5"/>
   </g>
   <g id="line2d_15">
    <path d="M 44.081477 78.464418 
L 48.970853 78.306907 
L 57.119812 78.126555 
L 61.194292 77.741629 
L 64.453876 77.11404 
L 68.935804 76.100954 
L 70.973044 75.954636 
L 75.047523 75.969686 
L 75.862419 75.620269 
L 76.677315 75.612677 
L 78.714555 75.899323 
L 79.529451 75.859919 
L 80.344347 75.610889 
L 81.159243 75.073549 
L 81.974139 74.165776 
L 82.789035 72.825921 
L 84.011379 70.154006 
L 85.233723 67.423869 
L 86.048619 66.050877 
L 86.863515 65.202392 
L 87.67841 64.848047 
L 88.493306 64.907323 
L 89.308202 65.286479 
L 90.123098 65.92654 
L 91.345442 67.266179 
L 92.975234 69.555286 
L 96.642266 75.115787 
L 97.86461 76.470878 
L 99.086954 77.432291 
L 100.309298 78.102182 
L 101.93909 78.677427 
L 103.976329 79.110283 
L 106.828465 79.459964 
L 110.902945 79.709416 
L 117.422113 79.853454 
L 132.905136 79.90706 
L 145.536023 79.901848 
L 145.536023 79.901848 
" clip-path="url(#p8834565f3f)" style="fill: none; stroke: #3b4cc0; stroke-width: 0.5; stroke-linecap: square"/>
   </g>
   <g id="patch_3">
    <path d="M 39.00875 81.64875 
L 39.00875 19.27875 
" style="fill: none; stroke: #000000; stroke-width: 0.8; stroke-linejoin: miter; stroke-linecap: square"/>
   </g>
   <g id="patch_4">
    <path d="M 39.00875 81.64875 
L 150.60875 81.64875 
" style="fill: none; stroke: #000000; stroke-width: 0.8; stroke-linejoin: miter; stroke-linecap: square"/>
   </g>
   <g id="text_16">
    <!-- Frozen fts (reoptimization) -->
    <g transform="translate(42.145 13.27875) scale(0.08 -0.08)">
     <defs>
      <path id="DejaVuSans-46" d="M 628 4666 
L 3309 4666 
L 3309 4134 
L 1259 4134 
L 1259 2759 
L 3109 2759 
L 3109 2228 
L 1259 2228 
L 1259 0 
L 628 0 
L 628 4666 
z
" transform="scale(0.015625)"/>
      <path id="DejaVuSans-6f" d="M 1959 3097 
Q 1497 3097 1228 2736 
Q 959 2375 959 1747 
Q 959 1119 1226 758 
Q 1494 397 1959 397 
Q 2419 397 2687 759 
Q 2956 1122 2956 1747 
Q 2956 2369 2687 2733 
Q 2419 3097 1959 3097 
z
M 1959 3584 
Q 2709 3584 3137 3096 
Q 3566 2609 3566 1747 
Q 3566 888 3137 398 
Q 2709 -91 1959 -91 
Q 1206 -91 779 398 
Q 353 888 353 1747 
Q 353 2609 779 3096 
Q 1206 3584 1959 3584 
z
" transform="scale(0.015625)"/>
      <path id="DejaVuSans-7a" d="M 353 3500 
L 3084 3500 
L 3084 2975 
L 922 459 
L 3084 459 
L 3084 0 
L 275 0 
L 275 525 
L 2438 3041 
L 353 3041 
L 353 3500 
z
" transform="scale(0.015625)"/>
      <path id="DejaVuSans-6e" d="M 3513 2113 
L 3513 0 
L 2938 0 
L 2938 2094 
Q 2938 2591 2744 2837 
Q 2550 3084 2163 3084 
Q 1697 3084 1428 2787 
Q 1159 2491 1159 1978 
L 1159 0 
L 581 0 
L 581 3500 
L 1159 3500 
L 1159 2956 
Q 1366 3272 1645 3428 
Q 1925 3584 2291 3584 
Q 2894 3584 3203 3211 
Q 3513 2838 3513 2113 
z
" transform="scale(0.015625)"/>
      <path id="DejaVuSans-66" d="M 2375 4863 
L 2375 4384 
L 1825 4384 
Q 1516 4384 1395 4259 
Q 1275 4134 1275 3809 
L 1275 3500 
L 2222 3500 
L 2222 3053 
L 1275 3053 
L 1275 0 
L 697 0 
L 697 3053 
L 147 3053 
L 147 3500 
L 697 3500 
L 697 3744 
Q 697 4328 969 4595 
Q 1241 4863 1831 4863 
L 2375 4863 
z
" transform="scale(0.015625)"/>
      <path id="DejaVuSans-74" d="M 1172 4494 
L 1172 3500 
L 2356 3500 
L 2356 3053 
L 1172 3053 
L 1172 1153 
Q 1172 725 1289 603 
Q 1406 481 1766 481 
L 2356 481 
L 2356 0 
L 1766 0 
Q 1100 0 847 248 
Q 594 497 594 1153 
L 594 3053 
L 172 3053 
L 172 3500 
L 594 3500 
L 594 4494 
L 1172 4494 
z
" transform="scale(0.015625)"/>
      <path id="DejaVuSans-70" d="M 1159 525 
L 1159 -1331 
L 581 -1331 
L 581 3500 
L 1159 3500 
L 1159 2969 
Q 1341 3281 1617 3432 
Q 1894 3584 2278 3584 
Q 2916 3584 3314 3078 
Q 3713 2572 3713 1747 
Q 3713 922 3314 415 
Q 2916 -91 2278 -91 
Q 1894 -91 1617 61 
Q 1341 213 1159 525 
z
M 3116 1747 
Q 3116 2381 2855 2742 
Q 2594 3103 2138 3103 
Q 1681 3103 1420 2742 
Q 1159 2381 1159 1747 
Q 1159 1113 1420 752 
Q 1681 391 2138 391 
Q 2594 391 2855 752 
Q 3116 1113 3116 1747 
z
" transform="scale(0.015625)"/>
      <path id="DejaVuSans-61" d="M 2194 1759 
Q 1497 1759 1228 1600 
Q 959 1441 959 1056 
Q 959 750 1161 570 
Q 1363 391 1709 391 
Q 2188 391 2477 730 
Q 2766 1069 2766 1631 
L 2766 1759 
L 2194 1759 
z
M 3341 1997 
L 3341 0 
L 2766 0 
L 2766 531 
Q 2569 213 2275 61 
Q 1981 -91 1556 -91 
Q 1019 -91 701 211 
Q 384 513 384 1019 
Q 384 1609 779 1909 
Q 1175 2209 1959 2209 
L 2766 2209 
L 2766 2266 
Q 2766 2663 2505 2880 
Q 2244 3097 1772 3097 
Q 1472 3097 1187 3025 
Q 903 2953 641 2809 
L 641 3341 
Q 956 3463 1253 3523 
Q 1550 3584 1831 3584 
Q 2591 3584 2966 3190 
Q 3341 2797 3341 1997 
z
" transform="scale(0.015625)"/>
     </defs>
     <use xlink:href="#DejaVuSans-46"/>
     <use xlink:href="#DejaVuSans-72" x="50.269531"/>
     <use xlink:href="#DejaVuSans-6f" x="89.132812"/>
     <use xlink:href="#DejaVuSans-7a" x="150.314453"/>
     <use xlink:href="#DejaVuSans-65" x="202.804688"/>
     <use xlink:href="#DejaVuSans-6e" x="264.328125"/>
     <use xlink:href="#DejaVuSans-20" x="327.707031"/>
     <use xlink:href="#DejaVuSans-66" x="359.494141"/>
     <use xlink:href="#DejaVuSans-74" x="392.949219"/>
     <use xlink:href="#DejaVuSans-73" x="432.158203"/>
     <use xlink:href="#DejaVuSans-20" x="484.257812"/>
     <use xlink:href="#DejaVuSans-28" x="516.044922"/>
     <use xlink:href="#DejaVuSans-72" x="555.058594"/>
     <use xlink:href="#DejaVuSans-65" x="593.921875"/>
     <use xlink:href="#DejaVuSans-6f" x="655.445312"/>
     <use xlink:href="#DejaVuSans-70" x="716.626953"/>
     <use xlink:href="#DejaVuSans-74" x="780.103516"/>
     <use xlink:href="#DejaVuSans-69" x="819.3125"/>
     <use xlink:href="#DejaVuSans-6d" x="847.095703"/>
     <use xlink:href="#DejaVuSans-69" x="944.507812"/>
     <use xlink:href="#DejaVuSans-7a" x="972.291016"/>
     <use xlink:href="#DejaVuSans-61" x="1024.78125"/>
     <use xlink:href="#DejaVuSans-74" x="1086.060547"/>
     <use xlink:href="#DejaVuSans-69" x="1125.269531"/>
     <use xlink:href="#DejaVuSans-6f" x="1153.052734"/>
     <use xlink:href="#DejaVuSans-6e" x="1214.234375"/>
     <use xlink:href="#DejaVuSans-29" x="1277.613281"/>
    </g>
   </g>
  </g>
 </g>
 <defs>
  <clipPath id="p8834565f3f">
   <rect x="39.00875" y="19.27875" width="111.6" height="62.37"/>
  </clipPath>
 </defs>
</svg>
